<?xml version="1.0" encoding="UTF-8"?>
<!DOCTYPE svg PUBLIC "-//W3C//DTD SVG 1.1//EN" "http://www.w3.org/Graphics/SVG/1.1/DTD/svg11.dtd">
<!-- Creator: CorelDRAW -->
<svg xmlns="http://www.w3.org/2000/svg" xml:space="preserve" width="100px" height="100px" version="1.1" shape-rendering="geometricPrecision" text-rendering="geometricPrecision" image-rendering="optimizeQuality" fill-rule="evenodd" clip-rule="evenodd"
viewBox="0 0 104.65 104.67"
 xmlns:xlink="http://www.w3.org/1999/xlink"
 xmlns:xodm="http://www.corel.com/coreldraw/odm/2003">
 <g id="Capa_x0020_1">
  <metadata id="CorelCorpID_0Corel-Layer"/>
  <path fill="#FEFEFE" fill-rule="nonzero" d="M104.37 46.88c-2.21,-21.55 -17.92,-39.82 -38.89,-45.2 -8.08,-2.07 -16.21,-2.23 -24.37,-0.46 -15.52,3.35 -28.8,13.94 -35.76,28.09 -5.03,10.22 -6.59,22 -4.35,33.19 5,24.98 27.46,43.02 53,42.14 30.39,-1.04 53.47,-27.57 50.37,-57.76z"/>
  <path fill="black" fill-rule="nonzero" d="M92.06 52.33c0,21.94 -17.79,39.73 -39.73,39.73 -21.94,0 -39.73,-17.79 -39.73,-39.73 0,-21.94 17.79,-39.73 39.73,-39.73 21.94,0 39.73,17.79 39.73,39.73zm-13.23 28.53c9.32,-8.57 13.88,-21.5 12.08,-34.01 -2.48,-17.2 -16.19,-30.9 -33.51,-33.15 -12.5,-1.63 -25.1,2.89 -33.65,12.19 -7.97,8.66 -11.73,20.45 -9.97,32.15 2.55,16.88 15.97,30.47 33.02,32.86 11.74,1.65 23.31,-2.03 32.03,-10.04z"/>
  <path fill="black" fill-rule="nonzero" d="M57.38 3.62c0.11,-0.25 0.24,-0.07 0.25,0.09 0.02,0.66 0.03,1.32 0.03,1.98 0,0.01 0,0.01 0,0.01 0,0.06 -0.05,0.12 -0.12,0.11 0,0 0,0 0,0l-0.04 0c-0.03,0 -0.05,-0.02 -0.06,-0.05 -0.38,-1.81 -2.1,-2.59 -3.66,-1.43 -0.19,0.15 -0.39,0.48 -0.58,0.98 -0.63,1.67 -0.56,4.22 1.71,4.58 1.14,0.19 1.86,-0.35 2.53,-1.17 0.01,-0.02 0.04,-0.03 0.07,-0.03 0.01,0 0.03,0 0.04,0.01 0.09,0.04 0.09,0.12 0.04,0.2 -0.67,1.02 -1.56,1.51 -2.67,1.49 -3.99,-0.09 -4.26,-5.71 -0.84,-6.85 0.88,-0.29 1.75,-0.2 2.6,0.26 0.33,0.18 0.54,0.19 0.7,-0.18zm-43.59 65.65c1.08,1.19 1.53,3.27 -0.24,4.15 -1.11,0.56 -2.23,1.09 -3.36,1.61 -0.49,0.23 -0.6,0.57 -0.35,1.02 0.05,0.09 0.09,0.23 -0.06,0.25 0,0 -0.01,0 -0.01,0 -0.05,0 -0.09,-0.03 -0.11,-0.07 -0.37,-0.8 -0.74,-1.6 -1.12,-2.4 -0.05,-0.1 -0.05,-0.24 0.1,-0.21 0.04,0 0.08,0.04 0.1,0.08 0.15,0.54 0.49,0.69 1.02,0.44 1.01,-0.47 2.03,-0.95 3.04,-1.43 1.05,-0.49 1.71,-1.28 1.1,-2.46 -0.43,-0.84 -1.2,-1.44 -2.18,-1.11 -0.62,0.2 -1.82,0.76 -3.61,1.66 -0.56,0.29 -0.43,0.56 -0.27,1.05 0,0.01 0.01,0.03 0.01,0.04 0,0.05 -0.03,0.09 -0.07,0.11l-0.04 0.01c-0.01,0.01 -0.02,0.01 -0.03,0.01 -0.02,0 -0.04,-0.01 -0.05,-0.03 -0.11,-0.26 -0.98,-2.01 -0.95,-2.12 0.02,-0.05 0.05,-0.08 0.1,-0.08 0.01,0 0.01,0 0.02,0 0.04,0 0.07,0.02 0.09,0.06 0.16,0.49 0.56,0.67 1.04,0.45 1.06,-0.48 2.1,-0.96 3.14,-1.46 0.93,-0.44 2,-0.34 2.69,0.43zm82.07 1.09c-1.17,-0.56 -2.35,-1.11 -3.54,-1.65 -0.51,-0.23 -0.84,-0.09 -1,0.42 -0.01,0.03 -0.04,0.06 -0.07,0.07 -0.16,0.07 -0.2,-0.07 -0.14,-0.2 0.3,-0.6 0.58,-1.21 0.86,-1.82 0.12,-0.29 0.33,-0.1 0.19,0.12 -0.27,0.47 -0.05,0.77 0.39,0.98 1.43,0.68 2.86,1.34 4.29,2 0.02,0.01 0.05,0.01 0.07,0.01 0.52,-0.07 0.89,-0.35 1.12,-0.82 0.02,-0.03 0.04,-0.04 0.07,-0.04 0.02,0 0.03,0 0.04,0.01l0.04 0.03c0.03,0.02 0.05,0.05 0.05,0.09 0,0.02 0,0.04 -0.01,0.05l-0.69 1.51c-0.02,0.03 -0.05,0.05 -0.08,0.06 -1.79,0.46 -3.58,0.92 -5.37,1.38 -0.18,0.04 -0.36,0.08 -0.54,0.11 -0.22,0.03 -0.22,0.08 -0.03,0.17 1.13,0.53 2.27,1.05 3.41,1.57 0.49,0.23 0.9,0.09 1.02,-0.45 0.01,-0.03 0.04,-0.05 0.08,-0.05 0.01,0 0.01,0 0.02,0l0.04 0.01c0,0 0,0 0,0 0.06,0.03 0.1,0.1 0.07,0.16 0,0 0,0 0,0l-0.9 1.93c-0.02,0.05 -0.08,0.08 -0.14,0.07l-0.04 -0.01c-0.02,-0.01 -0.04,-0.04 -0.04,-0.06 0,-0.01 0,-0.02 0,-0.02 0.11,-0.33 0.34,-0.81 -0.11,-1.03 -1.77,-0.84 -3.54,-1.66 -5.31,-2.47 -0.23,-0.1 -0.17,-0.27 0.03,-0.32 2.07,-0.53 4.13,-1.06 6.2,-1.59 0.21,-0.05 0.22,-0.12 0.02,-0.22zm5.74 -4.89c0.04,0.03 0.06,0.08 0.05,0.13l-0.21 0.8c-0.04,0.17 -0.11,0.18 -0.21,0.03l-1.13 -1.66c-0.02,-0.02 -0.03,-0.05 -0.02,-0.08 0.04,-0.26 1.36,0.68 1.52,0.78zm-94.07 1.1c1.25,-0.33 2.5,-0.68 3.76,-1.03 0.51,-0.14 0.79,-0.44 0.51,-0.96 -0.03,-0.05 -0.01,-0.1 0.04,-0.13l0.02 -0.01c0.01,-0.01 0.01,-0.01 0.01,-0.01 0.06,-0.02 0.13,0 0.16,0.06 0,0.01 0,0.01 0,0.02 0.18,0.64 0.36,1.28 0.52,1.93 0.03,0.08 0.19,0.29 -0.08,0.25 -0.05,0 -0.08,-0.04 -0.1,-0.08 -0.12,-0.41 -0.26,-0.75 -0.77,-0.62 -1.52,0.39 -3.04,0.79 -4.55,1.21 -0.59,0.17 -0.74,0.9 -0.61,1.43 0.01,0.03 -0.01,0.07 -0.04,0.1 -0.11,0.07 -0.19,-0.05 -0.21,-0.15 -0.11,-0.5 -0.25,-0.99 -0.43,-1.5 -0.01,-0.03 0,-0.07 0.02,-0.1l3.52 -4.91c0.14,-0.18 0.09,-0.24 -0.12,-0.18 -1.06,0.29 -2.12,0.58 -3.19,0.87 -0.62,0.16 -1.07,0.23 -0.86,1 0.02,0.07 0.01,0.13 -0.02,0.2 -0.07,0.17 -0.13,0.16 -0.18,-0.02 -0.17,-0.66 -0.35,-1.32 -0.54,-1.98 -0.03,-0.1 -0.06,-0.3 0.1,-0.27 0.05,0.01 0.09,0.05 0.1,0.1 0.09,0.55 0.43,0.75 1.02,0.58 0.74,-0.21 2.53,-0.7 5.38,-1.46 0.12,-0.03 0.31,0.03 0.2,0.17 -1.25,1.78 -2.52,3.55 -3.79,5.31 -0.13,0.18 -0.08,0.24 0.13,0.18zm87.07 -5.74c1.67,1.33 3.35,2.65 5.03,3.97 0.21,0.17 0.19,0.27 -0.08,0.31 -2.01,0.27 -4.04,0.54 -6.1,0.82 -0.5,0.07 -0.85,0.31 -1.04,0.72 -0.02,0.04 -0.06,0.07 -0.11,0.07 -0.08,-0.01 -0.11,-0.05 -0.09,-0.13 0.06,-0.31 0.27,-1.07 0.62,-2.3 0.04,-0.14 0.11,-0.19 0.21,-0.15 0.04,0.02 0.07,0.07 0.05,0.11 -0.14,0.51 0.08,0.72 0.64,0.65 0.6,-0.07 1,-0.13 1.2,-0.16 0.05,0 0.09,-0.04 0.1,-0.08l0.62 -2.3c0.01,-0.04 -0.01,-0.09 -0.04,-0.12 -0.32,-0.26 -0.64,-0.51 -0.96,-0.75 -0.59,-0.43 -0.68,-0.17 -0.94,0.36 -0.01,0.03 -0.05,0.05 -0.08,0.05 -0.01,0 -0.02,0 -0.03,0 -0.07,-0.03 -0.1,-0.09 -0.07,-0.2 0.15,-0.62 0.32,-1.23 0.49,-1.83 0,-0.03 0.02,-0.05 0.04,-0.06 0.12,-0.06 0.17,0.06 0.17,0.16 -0.01,0.37 0.11,0.66 0.37,0.86zm1.47 1.76c-0.01,0 -0.01,-0.01 -0.02,-0.01 -0.02,0 -0.04,0.02 -0.04,0.03l-0.56 2.04c0,0 0,0.01 0,0.01 0,0.02 0.02,0.04 0.04,0.04 0,0 0.01,0 0.01,0l2.65 -0.37c0.02,-0.01 0.04,-0.02 0.04,-0.04 0,-0.01 -0.01,-0.03 -0.02,-0.03l-2.1 -1.67zm-92.03 -5.02c0.07,0.57 0.26,0.85 0.89,0.76 1.48,-0.21 2.96,-0.42 4.44,-0.62 0.58,-0.08 1.07,-0.19 0.88,-0.94 0,-0.01 0,-0.02 0,-0.03 0,-0.06 0.05,-0.11 0.11,-0.11l0.04 -0.01c0.03,0 0.06,0.03 0.06,0.06 0.1,0.89 0.23,1.79 0.38,2.68 0.02,0.1 -0.03,0.15 -0.14,0.13 -0.04,-0.01 -0.08,-0.04 -0.09,-0.08 -0.14,-0.49 -0.16,-0.87 -0.84,-0.77 -1.39,0.21 -2.79,0.41 -4.18,0.59 -0.3,0.04 -0.59,0.09 -0.87,0.16 -0.21,0.04 -0.31,0.16 -0.31,0.37l-0.01 0.52c0,0.04 -0.02,0.07 -0.04,0.09 -0.08,0.07 -0.13,0.05 -0.15,-0.07 -0.1,-0.55 -0.49,-2.87 -0.27,-2.83 0.05,0.01 0.09,0.05 0.1,0.1l0 0zm92.11 1.3c-0.85,-0.08 -1.9,-0.63 -1.97,-1.59 -0.17,-1.99 2.03,-1.28 1.15,-0.4 -0.13,0.12 -1.27,0.28 -0.65,0.72 0.13,0.1 0.32,0.16 0.56,0.19 1.57,0.18 3.14,0.38 4.71,0.58 0.57,0.08 0.72,-0.23 0.8,-0.74 0.04,-0.28 0.22,-0.09 0.21,0.07 -0.11,0.85 -0.21,1.7 -0.32,2.55 -0.01,0.12 -0.1,0.26 -0.22,0.12 -0.02,-0.02 -0.03,-0.05 -0.03,-0.08 0,-0.01 0.01,-0.02 0.01,-0.03 0.19,-0.62 -0.17,-0.84 -0.72,-0.92 -1.72,-0.25 -2.9,-0.41 -3.53,-0.47zm-87.54 -6.5c0.18,-0.05 0.18,-0.11 0.01,-0.18 -1.29,-0.52 -2.59,-1.04 -3.9,-1.55 -0.48,-0.19 -0.9,-0.15 -0.91,0.47 0,0.06 -0.04,0.11 -0.1,0.12l-0.04 0c0,0 0,0 -0.01,0 -0.06,0 -0.12,-0.05 -0.12,-0.11l0 -1.87c0,-0.05 0.05,-0.09 0.1,-0.09l0.03 0c0,0 0,0 0,0 0.05,0 0.09,0.03 0.11,0.08 0.13,0.39 0.41,0.67 0.83,0.83 0.78,0.32 2.67,1.08 5.66,2.3 0.14,0.06 0.24,0.23 0.07,0.3 -3.3,1.44 -5.32,2.33 -6.08,2.69 -0.25,0.12 -0.4,0.34 -0.42,0.66 -0.01,0.13 -0.07,0.26 -0.21,0.17 -0.03,-0.02 -0.06,-0.06 -0.06,-0.1 0,-0.28 -0.06,-2.64 0.1,-2.66 0.04,0 0.08,0.02 0.1,0.07 0.08,0.24 0.09,0.72 0.46,0.71 0.13,-0.01 0.26,-0.04 0.38,-0.09 1.29,-0.55 2.51,-1.09 3.67,-1.62 0.12,-0.06 0.23,-0.1 0.33,-0.13zm92.33 1.41c0.16,-0.2 0.02,-0.42 0.09,-0.64 0.02,-0.06 0.06,-0.09 0.11,-0.09 0.06,0.01 0.11,0.06 0.11,0.12l0.04 2.21c0.01,0.04 -0.03,0.07 -0.07,0.08l-0.04 0c0,0 -0.01,0 -0.01,0 -0.07,0 -0.12,-0.05 -0.12,-0.12 0,0 0,0 0,-0.01 0.07,-0.55 -0.24,-0.8 -0.78,-0.8 -1.08,0 -2.15,0 -3.23,0 -1.2,0 -2.16,-0.41 -2.5,-1.62 -0.34,-1.21 -0.12,-2.91 1.21,-3.41 0.27,-0.11 0.73,-0.16 1.38,-0.16 1.08,0 2.15,-0.02 3.22,-0.07 0.44,-0.02 0.71,-0.23 0.67,-0.68 0,-0.11 0.01,-0.44 0.21,-0.2 0.02,0.02 0.03,0.05 0.03,0.07l0 2.71c0,0.04 -0.03,0.07 -0.08,0.07 0,0 0,0 -0.01,0l-0.05 0c-0.05,-0.01 -0.1,-0.06 -0.1,-0.12 0,0 0,-0.01 0.01,-0.01 0.05,-0.57 -0.22,-0.84 -0.84,-0.82 -0.44,0.02 -1.51,0.02 -3.21,0.02 -0.28,0 -0.81,0.05 -1.08,0.14 -1.35,0.44 -1.23,2.31 -0.44,3.13 0.34,0.36 0.95,0.44 1.51,0.45 1.17,0.03 2.34,0.02 3.52,-0.02 0.18,-0.01 0.33,-0.08 0.45,-0.23zm-93.96 -7.66c0.1,-0.63 0.18,-1.13 0.22,-1.51 0.06,-0.51 -0.15,-0.81 -0.63,-0.92 -0.11,-0.02 -0.21,-0.05 -0.16,-0.17 0.01,-0.06 0.07,-0.09 0.13,-0.08l2.11 0.35c0.04,0.01 0.08,0.05 0.09,0.09 0.03,0.12 -0.02,0.16 -0.15,0.15 -0.91,-0.09 -0.91,0.41 -1.05,1.16 -0.06,0.34 -0.12,0.67 -0.17,1 0,0 0,0 0,0 -0.01,0.07 0.03,0.13 0.1,0.14 0,0 0,0 0,0l2.63 0.39c0.06,0.01 0.12,-0.04 0.13,-0.1 0.1,-0.6 0.2,-1.21 0.29,-1.81 0.14,-0.89 -0.39,-1.25 -0.97,-1.76 -0.07,-0.07 -0.12,-0.19 -0.01,-0.23 0.03,-0.01 0.06,0 0.08,0.01l1.42 0.74c0.05,0.03 0.07,0.08 0.06,0.13 -0.24,1.62 -0.48,3.2 -0.73,4.74 -0.02,0.09 0.02,0.31 -0.15,0.25 -0.06,-0.01 -0.1,-0.06 -0.09,-0.12 0.07,-0.58 0,-0.83 -0.61,-0.92 -1.42,-0.23 -2.84,-0.46 -4.26,-0.68 -0.66,-0.1 -1.25,-0.3 -1.28,0.59 -0.01,0.02 -0.01,0.04 -0.02,0.06 -0.14,0.2 -0.25,0.07 -0.23,-0.1 0.26,-1.63 0.51,-3.24 0.75,-4.84 0.01,-0.06 0.06,-0.1 0.12,-0.1 0.01,0 0.01,0 0.02,0l1.27 0.16c0.04,0 0.07,0.02 0.09,0.05 0.08,0.15 -0.09,0.2 -0.2,0.2 -0.63,-0.02 -1,0.29 -1.08,0.94 -0.08,0.61 -0.17,1.21 -0.27,1.8 0,0.01 0,0.02 0,0.02 0,0.06 0.04,0.11 0.1,0.12l2.31 0.35c0.01,0 0.02,0 0.02,0 0.06,0 0.11,-0.04 0.12,-0.1l0 0zm87.46 1.37c-0.05,-0.01 -0.09,-0.05 -0.1,-0.1l-0.82 -4.91c-0.01,-0.05 0.02,-0.1 0.07,-0.12 0.1,-0.05 0.16,-0.01 0.17,0.12 0.06,0.49 0.28,0.75 0.83,0.66 1.53,-0.25 3.06,-0.51 4.58,-0.77 0.56,-0.1 0.92,-0.32 0.73,-0.94 0,-0.01 -0.01,-0.02 -0.01,-0.04 0,-0.05 0.04,-0.1 0.1,-0.11l0.04 -0.01c0,0 0,0 0,0 0.04,-0.01 0.08,0.02 0.09,0.06 0,0 0,0 0,0l0.47 2.82c0,0.01 0,0.01 0,0.02 0,0.05 -0.03,0.1 -0.08,0.11l-0.03 0.01c-0.01,0 -0.01,0.01 -0.01,0.01 -0.04,0.01 -0.08,-0.02 -0.09,-0.06 0,0 0,-0.01 0,-0.01 -0.05,-0.41 -0.23,-0.99 -0.77,-0.91 -1.65,0.25 -3.28,0.52 -4.89,0.81 -0.25,0.05 -0.36,0.2 -0.34,0.45 0.11,1.21 0.17,2.67 1.7,2.89 0.11,0.02 0.25,0.09 0.19,0.22 -0.02,0.03 -0.06,0.05 -0.1,0.05l-1.73 -0.25zm-85.16 -9.49c0,0 0,0.01 0,0.02 0,0.06 0.06,0.11 0.13,0.1 0.01,0 0.01,0 0.02,0 0.82,-0.26 1.65,-0.53 2.47,-0.81 0.52,-0.18 0.91,-0.52 1.15,-1 0.05,-0.12 0.17,-0.23 0.23,-0.02 0.01,0.02 0.01,0.05 0,0.07l-0.5 1.55c-0.02,0.04 -0.04,0.07 -0.08,0.08l-3.52 1.16c-0.03,0.01 -0.06,0.04 -0.07,0.07l-0.15 0.48c0,0.01 0,0.03 0,0.04 0,0.05 0.03,0.09 0.08,0.11l2.27 0.7c0.03,0.01 0.06,0.01 0.09,0 0.28,-0.13 0.45,-0.35 0.51,-0.67 0.01,-0.05 0.07,-0.09 0.12,-0.09l0.03 0c0.05,0 0.09,0.04 0.09,0.09 0,0.01 0,0.02 0,0.03l-0.84 2.62c-0.01,0.03 -0.03,0.05 -0.07,0.05 -0.01,0 -0.02,0 -0.03,-0.01l-0.02 -0.01c-0.05,-0.02 -0.08,-0.06 -0.08,-0.11 0,-0.01 0,-0.02 0.01,-0.04 0.32,-0.92 -0.31,-0.96 -0.95,-1.17 -2.15,-0.71 -3.51,-1.14 -4.08,-1.3 -0.51,-0.15 -0.82,0.04 -0.92,0.55 -0.01,0.06 -0.05,0.1 -0.11,0.1 -0.01,0 -0.02,0 -0.03,0l-0.05 -0.02c0,0 0,0 0,0 -0.04,-0.01 -0.06,-0.05 -0.05,-0.09 0,0 0,0 0,0 0.3,-0.91 0.59,-1.83 0.89,-2.74 0.37,-1.14 1.3,-2.18 2.6,-1.52 0.64,0.33 0.93,0.93 0.86,1.78zm-3.21 0.9l2.39 0.76c0.06,0.02 0.12,-0.01 0.14,-0.07 1.15,-2.68 -2.52,-3.45 -2.61,-0.81 0,0.05 0.03,0.1 0.08,0.12l0 0zm46.56 -5.52c-0.74,0.2 -0.49,-1.02 0.1,-0.59 0.17,0.12 0.26,0.7 -0.03,0.59 -0.02,0 -0.05,0 -0.07,0zm41.51 1.12l-2.23 0.92c-0.22,0.09 -0.29,0.25 -0.2,0.48 0.51,1.3 0.62,2.37 2.33,2.47 0.04,0 0.07,0.02 0.09,0.06l0.01 0.04c0,0 0,0.01 0,0.01 0.01,0.05 -0.02,0.1 -0.07,0.11 0,0 -0.01,0.01 -0.01,0.01l-1.58 0.09c-0.05,0 -0.1,-0.03 -0.12,-0.07 -0.61,-1.51 -1.22,-3.02 -1.83,-4.53 -0.06,-0.15 -0.04,-0.34 0.17,-0.19 0.02,0.01 0.04,0.04 0.05,0.06 0.24,0.83 0.78,0.53 1.39,0.29 1.22,-0.48 2.42,-0.97 3.63,-1.47 0.61,-0.25 1.15,-0.4 0.72,-1.17 0,-0.01 -0.01,-0.03 -0.01,-0.04 0,-0.04 0.03,-0.08 0.07,-0.09l0.04 -0.02c0.06,-0.01 0.12,0.02 0.14,0.07l1.84 4.56c0,0.02 0.01,0.03 0.01,0.05 0,0.04 -0.03,0.09 -0.07,0.1l-1.15 0.54c0,0 -0.01,0 -0.01,0 -0.06,0.02 -0.13,-0.01 -0.15,-0.08 0,0 0,-0.01 0,-0.01l-0.01 -0.03c-0.01,-0.06 0.02,-0.11 0.07,-0.13 0.79,-0.38 0.66,-0.96 0.36,-1.68 -0.19,-0.46 -0.37,-0.92 -0.55,-1.39 0,0 0,0 0,0 -0.02,-0.06 -0.09,-0.09 -0.15,-0.07 0,0 0,0 0,0l-2.18 0.87c-0.04,0.02 -0.07,0.06 -0.07,0.11 0,0.01 0,0.03 0.01,0.04 0.31,0.86 0.6,2.29 1.66,1.85 0.05,-0.02 0.1,-0.01 0.14,0.03 0.19,0.24 -1.8,0.88 -2.01,0.96 -0.17,0.07 -0.23,0.02 -0.19,-0.13 0.01,-0.03 0.04,-0.06 0.07,-0.07 0.89,-0.36 0.54,-0.94 0.26,-1.68 -0.1,-0.27 -0.21,-0.54 -0.31,-0.8 -0.02,-0.05 -0.06,-0.08 -0.11,-0.08 -0.02,0 -0.03,0.01 -0.05,0.01zm-82.21 0.03c1.14,0.38 2.08,-0.07 2.52,-1.15 0.29,-0.74 -0.17,-1.64 -1.04,-1.54 -0.63,0.08 -1.61,0.87 -2.16,1.25 -2.68,1.85 -4.32,-1.46 -2.04,-3.19 0.42,-0.32 -0.21,-0.58 0.03,-0.75 0.02,-0.01 0.04,-0.02 0.06,-0.02 0.02,0 0.04,0.01 0.05,0.01l1.92 0.94c0.04,0.02 0.07,0.06 0.07,0.11 0,0.01 0,0.01 -0.01,0.02 -0.01,0.09 -0.06,0.12 -0.16,0.08 -1.06,-0.33 -1.84,-0.1 -2.34,0.7 -0.49,0.78 -0.08,2.01 1.04,1.59 1.26,-0.47 2.67,-2.36 4.15,-1.64 0.67,0.32 1.02,0.96 1.02,1.7 0,0.94 -0.56,1.61 -1.19,2.25 -0.2,0.19 -0.29,0.41 -0.03,0.6 0.03,0.03 0.05,0.08 0.04,0.12 -0.02,0.09 -0.08,0.1 -0.19,0.05 -0.62,-0.3 -1.25,-0.61 -1.88,-0.91 -0.05,-0.02 -0.07,-0.07 -0.06,-0.12 0.01,-0.11 0.08,-0.14 0.2,-0.1zm4.4 -5.76c0.45,0.27 0.85,0.13 1.06,-0.34 0,0 0,0 0,0 0.02,-0.05 0.08,-0.07 0.13,-0.04 0,0 0,0 0,0 0.03,0.02 0.05,0.04 0.06,0.08 0.03,0.1 -1.31,2.14 -1.47,2.4 -0.01,0.02 -0.04,0.04 -0.06,0.04 -0.02,0 -0.04,-0.01 -0.05,-0.02l-0.03 -0.03c-0.05,-0.04 -0.06,-0.1 -0.03,-0.15 0.21,-0.32 0.39,-0.71 0,-0.97 -1.14,-0.77 -2.65,-1.73 -4.52,-2.86 -0.02,-0.01 -0.04,-0.02 -0.07,-0.02 -0.32,0.05 -0.54,0.22 -0.67,0.52 -0.01,0.03 -0.05,0.06 -0.08,0.06 -0.02,0 -0.04,-0.01 -0.06,-0.02l-0.03 -0.02c-0.05,-0.04 -0.06,-0.11 -0.03,-0.16 0.46,-0.74 0.93,-1.48 1.4,-2.22 0.05,-0.08 0.12,-0.15 0.21,-0.06 0.02,0.01 0.03,0.04 0.03,0.06 0,0.02 -0.01,0.04 -0.02,0.06 -0.29,0.44 -0.36,0.79 0.13,1.11 1.35,0.88 2.72,1.74 4.1,2.58zm77.18 2.52c-1.75,1.36 -3.8,0.98 -5.02,-0.84 -0.27,-0.4 -0.84,-1.34 -1.72,-2.82 -0.01,-0.02 -0.01,-0.04 -0.01,-0.06 0,-0.02 0,-0.04 0.01,-0.05 0.06,-0.14 0.17,-0.07 0.22,0.03 0.43,0.8 0.94,0.37 1.55,0 1.05,-0.62 2.11,-1.26 3.16,-1.9 0.6,-0.37 1.16,-0.62 0.61,-1.36 -0.01,-0.02 -0.02,-0.04 -0.02,-0.06 0,-0.02 0.01,-0.04 0.02,-0.06 0.09,-0.1 0.19,-0.03 0.24,0.07 0.57,0.94 1.14,1.89 1.7,2.84 0.88,1.5 0.62,3.15 -0.74,4.21zm-5.3 -2.28c1.23,4.11 6.85,1.43 5.62,-1.72 -0.17,-0.45 -0.43,-0.84 -0.78,-1.19 -0.04,-0.04 -0.1,-0.04 -0.15,-0.02l-4.63 2.8c-0.05,0.02 -0.07,0.08 -0.06,0.13l0 0zm-75.27 -5.27c-0.04,0.07 -0.1,0.08 -0.17,0.04 -0.03,-0.02 -0.05,-0.06 -0.05,-0.1 0,-0.03 0.01,-0.05 0.03,-0.07 0.6,-0.75 1.22,-1.48 1.84,-2.21 0.46,-0.54 1.03,-1.11 1.66,-1.38 1.35,-0.58 2.88,0.02 3.78,1.14 1.28,1.59 0.84,3.14 -0.37,4.6 -0.6,0.72 -1.19,1.44 -1.78,2.15 -0.02,0.03 -0.04,0.04 -0.07,0.04 -0.03,0 -0.05,-0.01 -0.07,-0.03l-0.02 -0.03c-0.02,-0.02 -0.03,-0.05 -0.03,-0.07 0,-0.04 0.01,-0.07 0.03,-0.09 0.38,-0.39 0.35,-0.77 -0.1,-1.15 -1.14,-0.95 -2.29,-1.9 -3.44,-2.84 -0.22,-0.19 -0.44,-0.32 -0.65,-0.4 -0.01,0 -0.02,-0.01 -0.04,-0.01 -0.02,0 -0.03,0.01 -0.05,0.01 -0.21,0.1 -0.36,0.21 -0.5,0.4zm5.78 2.35c3.97,-3.07 -2.36,-7.94 -4.34,-3.6 -0.03,0.05 -0.01,0.11 0.03,0.14l4.17 3.46c0.02,0.02 0.05,0.03 0.07,0.03 0.03,0 0.05,-0.01 0.07,-0.03l0 0zm66.98 -9.44c0.04,-0.1 0.1,-0.12 0.18,-0.03 0.67,0.67 1.32,1.36 1.97,2.05 0.04,0.05 0.04,0.12 0,0.17l-0.03 0.02c-0.01,0.01 -0.02,0.01 -0.03,0.01 -0.01,0 -0.03,0 -0.03,-0.01 -0.36,-0.33 -0.8,-0.73 -1.24,-0.31 -1.24,1.16 -2.43,2.31 -3.58,3.44 -0.16,0.16 -0.16,0.32 -0.03,0.49 0.38,0.45 0.79,0.88 1.24,1.27 0.59,0.53 1.26,0.46 1.95,0.15 0.05,-0.02 0.12,0 0.15,0.06l0.01 0.03c0.01,0.01 0.01,0.02 0.01,0.03 0,0.03 -0.02,0.06 -0.04,0.07l-1.6 0.78c-0.05,0.02 -0.1,0.01 -0.14,-0.02l-3.45 -3.62c-0.02,-0.02 -0.03,-0.05 -0.03,-0.07 0,-0.04 0.02,-0.07 0.05,-0.08l0.04 -0.02c0.01,-0.01 0.03,-0.01 0.05,-0.01 0.04,0 0.08,0.01 0.1,0.05 0.3,0.42 0.64,0.46 1.03,0.11 0.64,-0.57 1.8,-1.68 3.49,-3.32 0.36,-0.36 0.42,-0.8 -0.03,-1.09 -0.05,-0.04 -0.06,-0.1 -0.04,-0.15l0 0zm-61.29 1.2c-0.59,0.53 -1.22,1.04 -1.83,1.55 -0.03,0.03 -0.05,0.08 -0.03,0.13l0.46 1.47c0.01,0.04 0.03,0.06 0.06,0.08 0.29,0.13 0.54,0.09 0.76,-0.14 0.02,-0.02 0.05,-0.04 0.08,-0.04 0.03,0 0.06,0.01 0.08,0.03l0.03 0.02c0,0.01 0,0.01 0.01,0.01 0.03,0.04 0.03,0.1 -0.01,0.13 0,0.01 0,0.01 0,0.01l-1.46 1.24c-0.02,0.03 -0.06,0.03 -0.09,0.03 -0.24,-0.02 0.14,-0.58 0.14,-0.78 0,-0.16 -0.02,-0.32 -0.07,-0.46l-1.89 -6.14c-0.06,-0.18 0,-0.23 0.17,-0.14 1.92,0.99 3.84,1.97 5.78,2.93 0.38,0.2 0.74,0.17 1.08,-0.08 0.01,-0.01 0.03,-0.02 0.04,-0.02 0.03,0 0.06,0.02 0.07,0.05l0.02 0.05c0.02,0.05 0.01,0.1 -0.03,0.13 -0.98,0.83 -1.58,1.34 -1.81,1.54 -0.11,0.11 -0.19,0.1 -0.23,-0.01 -0.01,-0.04 0,-0.08 0.02,-0.11l0.26 -0.33c0.14,-0.18 0.07,-0.34 -0.21,-0.49l-1.26 -0.68c-0.05,-0.02 -0.1,-0.01 -0.14,0.02l0 0zm-2.04 1.13c0.01,0.01 0.02,0.02 0.04,0.02 0.01,0 0.02,0 0.02,-0.01l1.6 -1.36c0.01,-0.01 0.02,-0.02 0.02,-0.03 0,-0.01 -0.01,-0.03 -0.03,-0.03l-2.37 -1.22c-0.01,-0.01 -0.02,-0.01 -0.02,-0.01 -0.02,0 -0.04,0.02 -0.04,0.04 0,0.01 0,0.01 0,0.01l0.78 2.59zm52.77 -2.49l0.03 -0.03c0.01,-0.01 0.03,-0.02 0.05,-0.02 0.02,0 0.03,0 0.04,0.01 0.33,0.17 0.64,0.18 0.94,0.01 1.02,-0.55 2.88,-1.62 5.6,-3.19 0.12,-0.07 0.33,-0.06 0.28,0.13 -0.52,2.03 -1.05,4.07 -1.56,6.1 -0.12,0.47 -0.02,0.85 0.29,1.15 0.03,0.02 0.04,0.06 0.03,0.09 -0.03,0.12 -0.13,0.11 -0.22,0.05 -0.61,-0.46 -1.23,-0.98 -1.86,-1.4 -0.14,-0.08 -0.15,-0.16 -0.04,-0.24 0.04,-0.03 0.09,-0.03 0.14,0.01 0.81,0.63 0.98,-0.91 1.14,-1.55 0,-0.01 0,-0.01 0,-0.02 0,-0.04 -0.02,-0.08 -0.05,-0.1l-1.91 -1.45c-0.02,-0.01 -0.04,-0.02 -0.07,-0.02 -0.02,0 -0.04,0 -0.06,0.02l-1.27 0.75c-0.19,0.11 -0.23,0.28 -0.11,0.49 0.05,0.09 0.5,0.47 0.25,0.55 -0.01,0.01 -0.02,0.01 -0.03,0.01 -0.02,0 -0.04,-0.01 -0.05,-0.02l-1.54 -1.16c-0.03,-0.02 -0.05,-0.05 -0.05,-0.09 0,-0.03 0.01,-0.06 0.03,-0.08zm3.28 -0.74c-0.01,0.01 -0.02,0.02 -0.02,0.03 0,0.01 0.01,0.02 0.02,0.03l1.67 1.28c0.01,0 0.02,0 0.02,0 0.02,0 0.04,-0.01 0.04,-0.02l0.67 -2.61c0,-0.01 0,-0.01 0,-0.01 0,-0.02 -0.02,-0.04 -0.04,-0.04 -0.01,0 -0.01,0 -0.02,0l-2.34 1.34zm-52.86 -3.96c-0.24,0.03 -0.45,0.1 -0.63,0.24 -0.01,0.01 -0.03,0.01 -0.04,0.01 -0.04,0 -0.06,-0.02 -0.08,-0.05l-0.01 -0.04c-0.01,-0.01 -0.01,-0.03 -0.01,-0.04 0,-0.04 0.02,-0.08 0.06,-0.1 0.82,-0.47 1.63,-0.94 2.45,-1.41 0.61,-0.35 1.33,-0.69 2,-0.76 2.15,-0.21 3.88,2.22 3.38,4.21 -0.27,1.04 -1.1,1.81 -2.01,2.34 -0.8,0.46 -1.6,0.92 -2.4,1.39 -0.09,0.05 -0.21,0.06 -0.21,-0.08 0,-0.03 0.02,-0.06 0.04,-0.08 0.5,-0.3 0.66,-0.54 0.35,-1.09 -0.79,-1.4 -1.62,-2.82 -2.49,-4.27 -0.11,-0.19 -0.25,-0.28 -0.4,-0.27zm4.07 4.39c4.6,-1.27 0.85,-8.25 -2.84,-4.88 -0.05,0.04 -0.05,0.1 -0.03,0.15l2.74 4.67c0.02,0.05 0.08,0.07 0.13,0.06l0 0zm42.72 -6.82l-0.04 0c-0.01,0 -0.02,0 -0.02,0.01 -0.64,1.25 -1.28,2.51 -1.92,3.76 -0.28,0.57 -0.02,0.77 0.46,1.01 0.02,0.01 0.04,0.03 0.04,0.06 0,0.02 -0.01,0.04 -0.02,0.05l-0.03 0.04c-0.04,0.04 -0.1,0.05 -0.14,0.02l-1.89 -0.96c-0.02,-0.01 -0.04,-0.03 -0.05,-0.05 -0.1,-0.2 0.11,-0.19 0.21,-0.13 0.42,0.28 0.76,0.18 1,-0.28 0.74,-1.43 1.47,-2.86 2.2,-4.3 0.01,-0.02 0.01,-0.03 0.01,-0.05 0,-0.01 0,-0.02 0,-0.02 -0.08,-0.47 -0.31,-0.82 -0.69,-1.07 -0.08,-0.06 -0.23,-0.21 -0.03,-0.24 0.02,-0.01 0.05,0 0.07,0.01l1.49 0.76c0.03,0.02 0.05,0.05 0.06,0.08l1.25 5.88c0.05,0.21 0.12,0.22 0.22,0.03 0.56,-1.09 1.11,-2.18 1.66,-3.26 0.33,-0.65 0.03,-0.75 -0.43,-1.09 -0.03,-0.02 -0.04,-0.04 -0.04,-0.07 0,-0.01 0,-0.02 0,-0.03 0.02,-0.08 0.08,-0.09 0.17,-0.05 0.64,0.32 1.27,0.64 1.91,0.97 0.04,0.02 0.06,0.06 0.06,0.1 0,0.03 -0.01,0.05 -0.02,0.07l-0.02 0.03c-0.02,0.02 -0.04,0.03 -0.07,0.03 -0.01,0 -0.03,0 -0.04,-0.01 -0.56,-0.42 -0.88,-0.11 -1.15,0.41 -0.84,1.62 -1.68,3.24 -2.51,4.87 -0.1,0.19 -0.24,0.22 -0.3,-0.02 -0.43,-1.99 -0.86,-3.98 -1.29,-5.97 -0.04,-0.22 -0.06,-0.4 -0.06,-0.55 0,-0.02 -0.03,-0.04 -0.05,-0.04l0 0zm-7.58 2.83c-1.69,-0.58 -2.58,-2.55 -1.95,-4.38 0,0 0,0 0,0 0,0 0,0 0,0 0.64,-1.83 2.54,-2.84 4.26,-2.25 1.72,0.59 2.6,2.56 1.97,4.39 0,0 0,0 0,0 0,0 0,0 0,0 -0.63,1.84 -2.53,2.84 -4.25,2.25l-0.03 -0.01zm1.95 -6.29c-2.07,-0.5 -3.06,2.42 -3.06,3.93 -0.01,2.08 2.47,2.92 3.62,1.19 0.87,-1.32 1.79,-4.56 -0.56,-5.12zm-25.02 3.65l0.03 0.02c0.09,0.04 0.11,0.01 0.09,-0.07 -0.37,-1.25 -0.74,-2.49 -1.12,-3.72 -0.14,-0.47 -0.44,-0.62 -0.88,-0.46 -0.09,0.03 -0.28,0.05 -0.24,-0.11 0.01,-0.04 0.04,-0.07 0.08,-0.09l2.04 -0.61c0.04,-0.02 0.1,0 0.13,0.04 0.07,0.1 0.02,0.16 -0.14,0.2 -0.59,0.14 -0.63,0.51 -0.48,1.04 0.53,1.78 1.06,3.57 1.59,5.35 0.04,0.12 -0.03,0.27 -0.16,0.19 -1.81,-1.22 -3.61,-2.44 -5.42,-3.67 -0.18,-0.12 -0.24,-0.08 -0.17,0.13 0.32,1.1 0.65,2.19 0.98,3.29 0.2,0.67 0.29,1.27 1.13,0.95 0.06,-0.03 0.12,0 0.15,0.06 0.05,0.11 0.01,0.17 -0.12,0.18 -0.59,0.06 -1.34,0.38 -1.93,0.56 -0.11,0.03 -0.3,0 -0.21,-0.16 0.02,-0.03 0.05,-0.05 0.08,-0.06 0.89,-0.13 0.63,-0.74 0.44,-1.38 -0.41,-1.37 -0.82,-2.75 -1.23,-4.12 0,-0.02 -0.02,-0.04 -0.04,-0.06 -0.37,-0.3 -0.79,-0.4 -1.26,-0.31 -0.1,0.02 -0.24,0.01 -0.22,-0.12 0.01,-0.04 0.04,-0.07 0.07,-0.08l1.63 -0.49c0.04,-0.01 0.08,0 0.11,0.02l5.04 3.43c0.01,0.01 0.02,0.02 0.02,0.03l0.01 0.01c0,0.01 0,0.01 0,0.01zm17.49 0.66c0.1,-0.22 0.17,-0.47 0.22,-0.77 0.26,-1.45 0.52,-2.89 0.77,-4.33 0.09,-0.51 -0.1,-0.81 -0.56,-0.9 -0.44,-0.08 -0.23,-0.28 0.06,-0.22 0.8,0.16 1.6,0.3 2.4,0.42 0.12,0.02 0.32,0.16 0.1,0.25 -0.03,0.01 -0.06,0.01 -0.08,0 -0.51,-0.16 -0.82,0.01 -0.92,0.53 -0.18,0.91 -0.46,2.47 -0.83,4.7 -0.09,0.54 0.05,0.81 0.6,0.89 0.24,0.03 0.28,0.11 0.12,0.24 -0.02,0.01 -0.05,0.02 -0.07,0.02 -0.01,0 -0.02,0 -0.02,0l-2.65 -0.48c0,0 -0.01,-0.01 -0.01,-0.01 -0.04,-0.01 -0.06,-0.05 -0.05,-0.09 0,-0.01 0,-0.01 0,-0.01l0.03 -0.05c0.02,-0.05 0.09,-0.08 0.14,-0.06 0.25,0.09 0.49,0.06 0.71,-0.08 0.02,-0.01 0.03,-0.03 0.04,-0.05l0 0zm-14.43 -0.46c0.62,-2.03 1.19,-4.07 1.84,-6.09 0.05,-0.18 0.12,-0.18 0.21,-0.02 1.05,1.89 2.11,3.77 3.18,5.65 0.2,0.35 0.52,0.53 0.96,0.52 0,0 0,0 0,0 0.03,0 0.06,0.03 0.06,0.06l0 0.03c0,0.01 0,0.01 0,0.01 0,0.06 -0.04,0.11 -0.1,0.12 -0.25,0.03 -2.59,0.4 -2.56,0.16 0.01,-0.05 0.05,-0.08 0.09,-0.09 0.25,-0.02 0.43,-0.14 0.54,-0.36 0.02,-0.03 0.02,-0.07 0,-0.1 -0.2,-0.51 -0.45,-1 -0.76,-1.46 -0.02,-0.04 -0.06,-0.06 -0.1,-0.06 0,0 0,0 -0.01,0l-2.35 0.26c-0.05,0.01 -0.09,0.04 -0.1,0.08 -0.16,0.48 -0.28,0.92 -0.37,1.33 -0.14,0.6 0.26,0.57 0.67,0.57 0.05,0 0.09,0.03 0.11,0.06 0.05,0.1 0,0.16 -0.14,0.18 -0.62,0.08 -1.23,0.15 -1.85,0.22 -0.11,0.01 -0.16,-0.02 -0.16,-0.1 0.01,-0.05 0.04,-0.09 0.09,-0.11 0.43,-0.13 0.62,-0.41 0.75,-0.86zm1.05 -1.82c0,0 0,0.01 0,0.01 0,0.02 0.01,0.03 0.03,0.03 0.01,0 0.01,0 0.01,0l2.1 -0.23c0.02,0 0.04,-0.02 0.04,-0.04 0,0 -0.01,-0.01 -0.01,-0.02l-1.33 -2.35c0,-0.01 -0.02,-0.02 -0.03,-0.02 -0.02,0 -0.03,0.01 -0.04,0.03l-0.77 2.59z"/>
  <path fill="black" fill-rule="nonzero" d="M46.04 81.93c-0.03,0.03 -0.05,0.05 -0.08,0.08 -0.53,0.74 -1.74,0.75 -2.4,0.4 -0.28,-0.15 -0.62,-0.47 -1.04,-0.95 -1.93,-2.26 -3.61,-4.38 -6.07,-6.11 -0.19,-0.14 -0.84,-0.82 -0.75,-1.05 0,-0.01 0,-0.01 0,-0.01 0.02,-0.02 0.04,-0.02 0.06,-0.01 0,0 0,0 0,0 0.59,0.58 1.27,0.82 2.04,0.72 1.23,-0.17 2.13,-0.8 2.68,-1.89 0,-0.02 0.01,-0.04 0.01,-0.06 0,-0.04 -0.03,-0.09 -0.07,-0.11 -4.35,-1.77 -7.7,-4.67 -10.08,-8.7 -0.08,-0.12 -0.15,-0.12 -0.21,0.01l-0.74 1.53c-0.01,0.03 -0.01,0.06 0,0.09 0.28,0.75 0.62,1.47 1.02,2.16 0.32,0.53 0.35,1.09 -0.22,1.43 -1.1,0.65 -2.61,0.54 -3.27,-0.69 -1.85,-3.44 -3.5,-6.64 -4.97,-9.61 -0.37,-0.75 -0.54,-1.52 -0.52,-2.33 0.06,-1.91 1.54,-4.28 2.74,-5.74 0.04,-0.05 0.04,-0.11 0.01,-0.15 -4.44,-6.01 -0.29,-13.5 4.43,-17.69 0.02,-0.02 0.04,-0.06 0.04,-0.09 0,-0.01 -0.01,-0.02 -0.01,-0.03 -0.93,-3.41 0.01,-6.06 2.76,-8.19 2.7,-2.08 5.17,-3.86 7.41,-5.34 0.38,-0.25 0.91,-0.22 1.3,0.01 0.51,0.17 1.06,1.18 0.56,1.66l-1.44 1.36c-0.04,0.04 -0.05,0.1 -0.02,0.15 1.04,1.53 4.07,2.07 5.76,1.6 1.22,-0.35 3.09,-2.03 1.41,-3.22 -0.29,-0.2 -0.6,-0.36 -0.93,-0.46 -0.16,-0.05 -0.17,-0.12 -0.04,-0.21 1.34,-0.89 2.83,-1.23 4.46,-1.01 0.92,0.13 1.72,0.47 2.39,1.02 0.02,0.02 0.04,0.03 0.07,0.03 0.03,0 0.06,-0.02 0.08,-0.04 0.4,-0.35 0.79,-0.59 1.18,-0.72 1.85,-0.61 3.61,-0.45 5.3,0.5 0.12,0.06 0.23,0.14 0.33,0.22 0,0.01 0.01,0.01 0.02,0.02 0.03,0.06 0.02,0.13 -0.03,0.17 -0.01,0 -0.02,0.01 -0.03,0.01 -0.3,0.11 -0.59,0.26 -0.85,0.44 -0.86,0.57 -0.87,1.48 -0.24,2.24 1.62,1.95 5.85,1.31 7.37,-0.57 0.04,-0.05 0.03,-0.13 -0.02,-0.17 -0.55,-0.46 -1.58,-1.24 -1.55,-2.01 0.03,-0.75 0.8,-1.32 1.54,-1.15 0.22,0.05 0.54,0.21 0.95,0.49 2.46,1.67 4.86,3.42 7.19,5.25 2.49,1.95 3.39,4.86 2.43,7.89 -0.02,0.04 0,0.09 0.03,0.12 4.72,4.22 8.9,11.71 4.45,17.72 -0.03,0.04 -0.03,0.1 0,0.15 0.94,1.14 1.69,2.39 2.25,3.74 0.57,1.36 0.67,2.51 0.19,3.85 -0.06,0.17 -0.34,0.74 -0.83,1.72 -1.37,2.72 -2.77,5.42 -4.21,8.11 -0.48,0.89 -0.88,1.26 -1.88,1.33 -1.02,0.07 -2.55,-0.5 -1.75,-1.82 0.41,-0.68 0.75,-1.4 1.01,-2.15 0.01,-0.03 0.01,-0.07 0,-0.1l-0.74 -1.54c-0.06,-0.14 -0.13,-0.14 -0.21,-0.01 -0.99,1.76 -2.23,3.32 -3.72,4.69 -1.88,1.74 -4,3.09 -6.35,4.04 -0.07,0.03 -0.09,0.1 -0.06,0.16 0.85,1.66 3.16,2.67 4.67,1.19 0.04,-0.03 0.12,0.01 0.1,0.08 -0.15,0.4 -0.33,0.67 -0.56,0.83 -2.53,1.75 -4.34,3.95 -6.29,6.29 -0.35,0.41 -0.65,0.7 -0.92,0.86 -0.88,0.5 -1.73,0.37 -2.55,-0.38 -0.02,-0.02 -0.05,-0.03 -0.08,-0.03 -0.05,0 -0.1,0.04 -0.11,0.09 -0.29,1.08 -0.55,2.01 -1.31,2.88 -0.04,0.05 -0.11,0.05 -0.16,0.02 -0.57,-0.39 -1.03,-0.89 -1.36,-1.5 -0.08,-0.15 -0.14,-0.14 -0.17,0.02 -0.03,0.12 -0.07,0.25 -0.12,0.37 -0.62,1.51 -1.51,3.35 -2.72,4.48 -0.15,0.14 -0.31,0.15 -0.48,0.02 -0.39,-0.29 -0.75,-0.68 -1.07,-1.19 -0.74,-1.16 -1.35,-2.37 -1.83,-3.62 -0.06,-0.16 -0.13,-0.16 -0.22,-0.02 -0.32,0.58 -0.76,1.06 -1.3,1.44 -0.05,0.03 -0.11,0.03 -0.16,-0.02 -0.37,-0.39 -0.65,-0.86 -0.84,-1.39 -0.23,-0.68 -0.39,-1.19 -0.47,-1.53 -0.01,-0.06 -0.06,-0.09 -0.12,-0.09 -0.02,0 -0.05,0.01 -0.07,0.02l0 0zm31.05 -34.44c0.82,-3.36 -1.22,-8.1 -3.59,-10.47 -0.06,-0.05 -0.12,-0.04 -0.16,0 -0.23,0.19 -0.48,0.35 -0.76,0.47 -0.07,0.03 -0.1,0.11 -0.06,0.17 0.87,1.31 1.38,2.74 1.53,4.29 0.13,1.47 -0.1,2.83 -0.78,4.16 -0.03,0.06 0,0.14 0.07,0.16 1.05,0.36 2.54,1.18 3.37,1.82 0.06,0.05 0.15,0.03 0.18,-0.04 0.09,-0.18 0.15,-0.37 0.2,-0.56zm-49.17 0.61c1.03,-0.8 2.15,-1.41 3.39,-1.83 0.06,-0.02 0.09,-0.1 0.06,-0.16 -0.76,-1.53 -0.99,-3.16 -0.68,-4.87 0.23,-1.3 0.71,-2.48 1.42,-3.57 0,0 0.06,-0.1 -0.04,-0.16l-0.81 -0.49c-0.05,-0.03 -0.11,-0.04 -0.15,0.02 -2,2.15 -3.27,4.98 -3.69,7.77 -0.16,1.11 -0.06,2.2 0.31,3.24 0.03,0.08 0.12,0.1 0.19,0.05zm14.15 19.67c0.05,-0.63 0,-1.22 -0.2,-1.83 -1.03,-3.11 -4.11,-5.02 -7.39,-4.4 -0.36,0.06 -0.71,0.15 -1.07,0.24 0,0 0,0 0,0 -0.01,0.01 -0.01,0.01 -0.01,0.01 -0.06,0.02 -0.09,0.09 -0.06,0.15 0.61,1.41 1.54,2.57 2.78,3.47 1.7,1.24 3.79,1.99 5.81,2.46 0.12,0.03 0.14,-0.09 0.14,-0.1zm29.17 -6c-3.69,-0.82 -7.05,0.2 -8.43,4.06 -0.21,0.59 -0.28,1.24 -0.22,1.93 0.01,0.06 0.06,0.11 0.12,0.11 0.01,0 0.02,0 0.03,0 1.38,-0.32 2.72,-0.79 4,-1.39 2.03,-0.96 3.67,-2.46 4.58,-4.55 0.01,-0.01 0.01,-0.03 0.01,-0.04 0,-0.06 -0.04,-0.11 -0.09,-0.12l0 0z"/>
  <path fill="#F8E111" fill-rule="nonzero" d="M75.21 28.95c0.45,1.7 0.43,2.63 -0.03,4.33 -0.54,1.65 -1.56,2.9 -3.05,3.76 -0.02,0.01 -0.04,0.02 -0.06,0.02 -0.03,0 -0.06,-0.02 -0.08,-0.04 -1.4,-1.42 -3.02,-2.58 -3.46,-4.68 -0.11,-0.53 -0.19,-0.71 -0.13,-1.33 0.01,-0.14 0.08,-0.29 0.18,-0.46 0.58,-0.88 0.64,-1.81 0.2,-2.79 -0.71,-1.58 -2.5,-1.42 -3.37,-0.09 -0.02,0.03 -0.06,0.05 -0.1,0.05 -8.65,-0.16 -17.34,0.11 -26.01,-0.03 -0.04,0 -0.08,-0.02 -0.1,-0.06 -0.16,-0.29 -0.37,-0.51 -0.63,-0.67 -1.23,-0.76 -2.32,-0.18 -2.8,1.06 -0.37,0.97 -0.2,1.92 0.5,2.84l0.03 0.36c-0.02,0.58 -0.01,0.31 -0.15,1.03 -0.41,2.12 -2.04,3.33 -3.49,4.77 -0.03,0.04 -0.09,0.05 -0.14,0.02 -3.69,-2.12 -4.43,-7.1 -1.83,-10.43 0.46,-0.59 1.06,-1.09 1.79,-0.96 0.92,0.15 1.42,0.99 1.29,1.89 0,0.02 0,0.04 0,0.05 -0.01,0.17 0.04,0.19 0.16,0.08l4.65 -4.57c0.05,-0.05 0.13,-0.04 0.17,0.01 0.7,0.84 1.58,1.4 2.65,1.68 0.19,0.03 0.35,0.08 0.5,0.11 2.06,0.52 4.89,0.09 5.64,-2.23 0.3,-0.93 -0.06,-1.58 -0.87,-2.01 -0.15,-0.08 -0.14,-0.15 0.01,-0.22 1.94,-0.83 3.95,-0.79 5.58,0.54 0.05,0.04 0.11,0.04 0.15,0 0.38,-0.32 0.67,-0.52 0.88,-0.61 1.59,-0.68 3.15,-0.65 4.67,0.09 0.16,0.08 0.15,0.15 0,0.22 -0.56,0.24 -0.88,0.69 -0.96,1.33 -0.03,0.3 0.06,0.67 0.28,1.09 1.37,2.63 5.21,2.27 7.36,1.12 0.48,-0.26 0.9,-0.63 1.26,-1.11 0.04,-0.05 0.12,-0.06 0.17,-0.01l4.62 4.52c0.12,0.12 0.17,0.09 0.16,-0.07 -0.04,-0.43 0.03,-0.79 0.2,-1.1 0.53,-0.95 1.69,-1.08 2.49,-0.29 0.8,0.78 1.36,1.71 1.67,2.79zm-35.22 -7.63c-1.87,1.83 -3.77,3.61 -5.7,5.33 -0.02,0.02 -0.05,0.03 -0.08,0.03 -0.05,0 -0.09,-0.03 -0.11,-0.08 -0.27,-0.86 -0.85,-1.34 -1.73,-1.44 -0.15,-0.02 -0.16,-0.08 -0.04,-0.17 2.2,-1.7 4.42,-3.38 6.65,-5.04 0.52,-0.39 1.81,0.59 1.01,1.37zm30.37 5.33c-2.05,-1.84 -4.02,-3.59 -5.9,-5.52 -0.42,-0.43 0.06,-1.56 1.26,-1.16l6.57 4.97c0.15,0.12 0.13,0.19 -0.05,0.21 -0.85,0.13 -1.41,0.61 -1.69,1.45 0,0.01 0,0.01 -0.01,0.02 -0.03,0.05 -0.08,0.11 -0.18,0.03zm-23.66 55.55c0.05,-0.12 0.02,-0.23 -0.08,-0.32l-0.16 -0.87c-0.03,-0.18 -0.1,-0.2 -0.21,-0.05 -0.33,0.43 -0.73,0.72 -1.2,0.85 -1.01,0.28 -1.97,-0.5 -2.58,-1.22 -0.8,-0.94 -1.58,-1.9 -2.34,-2.88 -0.4,-0.53 -1.17,-1.39 -1.88,-1.82 -0.08,-0.05 -0.15,-0.1 -0.22,-0.15 -0.13,-0.09 -0.12,-0.16 0.03,-0.21 0.61,-0.18 1.13,-0.38 1.54,-0.58 0.73,-0.36 1.28,-0.92 1.66,-1.67 0.02,-0.04 0.06,-0.07 0.11,-0.07 0.01,0 0.02,0 0.03,0.01 0.86,0.21 1.77,0.48 2.58,0.64 6.24,1.26 13.12,1.2 19.27,-0.66 0.05,-0.02 0.11,0.01 0.13,0.06 0.39,0.74 0.94,1.29 1.68,1.67 0.5,0.25 1.02,0.45 1.55,0.6 0.18,0.05 0.19,0.12 0.03,0.21 -0.54,0.33 -1.02,0.73 -1.44,1.21 -0.82,0.94 -1.61,1.91 -2.38,2.89 -0.97,1.24 -2.21,2.72 -3.95,1.6 -0.13,-0.08 -0.29,-0.26 -0.49,-0.54 -0.1,-0.12 -0.16,-0.11 -0.17,0.05 -0.09,0.78 -0.29,1.53 -0.59,2.26 -0.14,0.35 -0.33,0.67 -0.57,0.97 -0.02,0.02 -0.05,0.04 -0.09,0.04 -0.03,0 -0.06,-0.01 -0.08,-0.03 -0.61,-0.61 -1.06,-1.31 -1.36,-2.11 -0.06,-0.18 -0.12,-0.18 -0.18,0.01 -0.29,1.01 -0.66,1.99 -1.12,2.93 -0.45,0.94 -1.05,1.83 -1.8,2.65 0,0 0,0 0,0.01 -0.05,0.04 -0.13,0.04 -0.17,0 0,0 0,-0.01 0,-0.01 -0.42,-0.44 -0.77,-0.89 -1.05,-1.34 -0.83,-1.33 -1.46,-2.75 -1.88,-4.25 -0.06,-0.19 -0.12,-0.19 -0.18,-0.01 -0.3,0.81 -0.76,1.52 -1.37,2.13 0,0 -0.01,0.01 -0.01,0.01 -0.05,0.04 -0.12,0.03 -0.16,-0.02 -0.01,0 -0.01,0 -0.01,0 -0.44,-0.62 -0.73,-1.29 -0.89,-1.99zm30.33 -13.32c-0.7,0.74 -2.85,0.28 -2.18,-0.9 1.71,-3.01 2.88,-6.2 3.51,-9.59 0.03,-0.17 0.09,-0.18 0.17,-0.03 0.09,0.14 0.18,0.28 0.3,0.4 0.11,0.12 0.25,0.24 0.42,0.34 0.7,0.42 1.47,0.58 2.3,0.47 0.14,-0.02 0.18,0.03 0.12,0.16 -1.21,2.86 -2.59,5.63 -4.12,8.32 -0.27,0.47 -0.44,0.75 -0.52,0.83zm-47.14 -0.78l-0.02 0.59c-0.66,0.81 -1.92,0.8 -2.48,-0.15 -1.63,-2.81 -3.1,-5.75 -4.42,-8.83 -0.05,-0.13 -0.01,-0.18 0.13,-0.16 1.29,0.19 2.32,-0.21 3.09,-1.22 0.08,-0.11 0.13,-0.1 0.13,0.04 0.01,0.04 0,0.07 -0.01,0.11 0,0.02 0,0.03 0,0.05 0.65,3.22 1.83,6.72 3.58,9.57zm45.88 -3.11c-0.07,0.14 -0.14,0.14 -0.21,0.01l-0.89 -1.68c-0.02,-0.03 0.01,-0.12 0.04,-0.18 0.39,-1.01 0.85,-4.65 0.86,-5.29 0,-0.03 -0.01,-0.05 -0.03,-0.07l-1.36 -1.75c-0.03,-0.05 -0.03,-0.11 0.01,-0.16 1.65,-1.66 3.81,-2.73 5.58,-4.28 0.05,-0.04 0.12,-0.04 0.16,0.01 1.24,1.15 2.05,2.55 2.45,4.2 0.42,1.73 -0.49,4.09 -2.75,2.98 -0.71,-0.36 -1.15,-0.91 -1.3,-1.67 -0.04,-0.21 -0.1,-0.22 -0.18,-0.01 -0.1,0.28 -0.18,0.56 -0.23,0.85 -0.38,2.05 -1.05,4.83 -2.15,7.04zm-47.68 -1.88c-0.06,-0.15 -0.08,-0.27 -0.11,-0.35 -0.38,-0.98 -0.6,-2.46 -0.92,-3.19 -0.15,-0.74 -0.29,-1.45 -0.47,-2.18 -0.02,-0.12 -0.04,-0.24 -0.08,-0.35 -0.11,-0.29 -0.17,-0.28 -0.18,0.03 -0.01,0.03 -0.01,0.06 -0.01,0.08 -0.06,0.62 -0.64,1.25 -1.13,1.54 -1,0.6 -2.22,0.5 -2.75,-0.67 -0.89,-1.93 0.57,-4.59 1.88,-6.03 0.14,-0.14 0.28,-0.28 0.43,-0.41 0.05,-0.03 0.12,-0.03 0.16,0.01 1.68,1.63 4.02,2.59 5.55,4.3 0.02,0.03 0.03,0.05 0.03,0.08 0,0.03 -0.01,0.05 -0.03,0.08l-1.37 1.76c-0.01,0.02 -0.02,0.05 -0.02,0.08 0.12,1.68 0.33,3.09 0.64,4.25 0.13,0.51 0.22,0.89 0.27,1.14 0.01,0.03 0,0.06 -0.01,0.08l-0.88 1.63c-0.07,0.13 -0.14,0.13 -0.21,-0.01 -0.29,-0.6 -0.56,-1.23 -0.79,-1.87zm16.97 -0.43c2.06,1.71 4.63,3.06 7.28,3.79 0.02,0.01 0.04,0.01 0.06,0 1.87,-0.58 3.56,-1.34 5.1,-2.28 4.41,-2.69 6.62,-6.72 7.52,-11.74 0.37,-2.07 0.55,-4.47 0.58,-6.72 0.03,-2.71 0.03,-5.41 0.01,-8.11 0,-0.81 0.19,-0.23 0.31,0.11 0.06,0.18 0.3,0.54 0.72,1.1 1.44,1.93 3.36,3.37 2.81,5.93l-0.14 0.65 -0.3 0.95 -0.2 0.49 -0.28 0.59c-0.09,0.2 -0.03,0.25 0.16,0.16 0.86,-0.4 1.66,-0.88 2.41,-1.44 0.02,-0.02 0.05,-0.03 0.07,-0.03 0.06,0 0.11,0.04 0.12,0.1l0.35 1.87c0.04,0.17 0.11,0.18 0.21,0.04l0.82 -1.16c0.03,-0.04 0.08,-0.06 0.12,-0.05 1.36,0.29 2.67,1.03 3.71,1.94 0.04,0.04 0.05,0.11 0.01,0.16 -1.52,2.25 -4.26,2.89 -5.64,5.23 -0.82,1.45 0.42,3.07 1.12,3.69 0.02,0.02 0.03,0.04 0.04,0.07 0.12,0.92 -0.04,2.11 -0.32,3.07 -0.02,0.06 -0.08,0.09 -0.14,0.08l-1.11 -0.31 -0.42 -0.1 -0.44 -0.03c-4.45,-0.63 -7.75,3.11 -7.66,7.39 0,0.05 -0.04,0.1 -0.09,0.12 -7.33,1.64 -11.78,1.68 -19.03,-0.01 -0.05,-0.02 -0.09,-0.06 -0.09,-0.12 0,-0.4 -0.02,-0.79 -0.07,-1.19 -0.48,-3.65 -3.41,-6.55 -7.17,-6.24 -0.82,0.06 -1.61,0.22 -2.39,0.48 -0.01,0.01 -0.02,0.01 -0.04,0.01 -0.05,0 -0.09,-0.04 -0.11,-0.09 -0.16,-0.51 -0.26,-1.04 -0.29,-1.57 0,-0.49 -0.09,-0.97 -0.03,-1.47 0.25,-0.31 0.49,-0.63 0.73,-0.95 2.17,-3.02 -1.54,-4.84 -3.51,-6.3 -0.74,-0.55 -1.31,-1.15 -1.7,-1.78 -0.01,-0.02 -0.02,-0.04 -0.02,-0.06 0,-0.04 0.02,-0.07 0.04,-0.09 0.87,-0.73 2.57,-1.89 3.73,-1.92 0.03,0 0.07,0.02 0.09,0.05l0.85 1.19c0.09,0.12 0.14,0.11 0.17,-0.04l0.34 -1.92c0.01,-0.06 0.05,-0.1 0.11,-0.1 0.03,0 0.05,0.01 0.07,0.02 0.75,0.57 1.55,1.05 2.4,1.45 0.2,0.09 0.26,0.04 0.16,-0.16 -0.29,-0.62 -0.53,-1.25 -0.72,-1.9 0.07,-0.12 0.04,-0.21 -0.08,-0.27 -0.5,-1.82 0,-3.1 1.18,-4.49 0.66,-0.78 1.29,-1.6 1.89,-2.44 0.2,-0.28 0.36,-0.57 0.49,-0.89 0.12,-0.29 0.18,-0.28 0.18,0.04 0.07,8.41 -1.14,19.23 6.03,25.2z"/>
  <path fill="#E2001A" fill-rule="nonzero" d="M30.68 36.43c0.05,0.07 0.07,0.2 -0.02,0.28 -0.91,1.1 -1.76,2 -2.36,3.33 -1.06,2.13 -1.79,3.99 -1.68,6.46 0.14,3.12 3.86,5.57 5.35,6.42 1.17,0.67 2.08,2.38 1.13,3.85 -0.36,0.45 -0.75,0.86 -1.17,1.22 -0.15,0.12 -0.21,0.09 -0.2,-0.1 0.07,-0.8 -0.15,-1.51 -0.67,-2.13 -0.91,-1.75 -6.5,-4.53 -7.29,-6.92 -1.26,-3.77 -0.64,-6.3 0.7,-9.15 1.26,-2.53 2.42,-3.78 4.31,-5.79 0.06,-0.06 0.15,-0.05 0.19,0.01 0.61,0.93 1.03,1.61 1.71,2.52zm8.05 -8.77c0.18,0.09 0.29,0.21 0.3,0.43 0.04,1.29 0.04,2.58 0,3.87 0,0.09 -0.1,0.14 -0.18,0.1 -0.36,-0.22 -0.71,-0.48 -1.03,-0.76 -1.04,-0.92 -2.26,-1.97 -1.31,-3.47 0.6,-0.86 1.47,-0.87 2.22,-0.17zm-7.23 13.05c0.35,-1.42 1.2,-2.77 2.19,-3.84 1.76,-1.92 2.77,-2.89 3.1,-5.55 0.02,-0.14 0.09,-0.17 0.2,-0.08 0.62,0.5 1.28,0.94 1.98,1.31 0.04,0.02 0.06,0.06 0.07,0.1 0.11,1.47 -0.07,2.56 -0.41,3.95 -0.38,1.5 -2.17,3.2 -3.16,4.48 -1.18,1.52 -1.35,3.09 -0.54,4.88 0.02,0.05 0.22,0.54 0.04,0.41 -0.6,-0.42 -1.21,-0.89 -1.82,-1.41 -0.11,-0.09 -0.17,-0.07 -0.19,0.07l-0.22 1.6c-0.03,0.2 -0.1,0.22 -0.21,0.05 -1.16,-1.67 -1.5,-4.02 -1.03,-5.97zm36.61 -13c1.15,2.01 -0.76,3.38 -2.3,4.35 -0.13,0.08 -0.2,-0.03 -0.19,-0.27 0,-1.18 0,-2.36 0,-3.55 0,-0.9 1.74,-1.84 2.49,-0.53zm1.62 7.83c2.46,2.52 4.07,4.67 3.5,8.33 -0.19,0.52 -0.83,2.53 -1.14,2.89 -0.1,0.11 -0.15,0.09 -0.17,-0.06 -0.04,-0.49 -0.15,-1.02 -0.2,-1.53 0.05,-0.35 -0.05,-0.42 -0.32,-0.21 -0.54,0.44 -1.06,0.89 -1.6,1.34 -0.17,0.15 -0.22,0.12 -0.15,-0.11 1.25,-3.51 0.1,-5.41 -2.73,-7.89 -1.21,-1.36 -1.34,-3.88 -1.29,-5.61 0,-0.04 0.02,-0.07 0.05,-0.1 0.28,-0.18 1.56,-1 1.98,-1.32 0.17,-0.13 0.21,-0.04 0.22,0.04 0.12,1.52 0.62,3.23 1.85,4.23zm6.17 -1.68c0.23,0.25 0.46,0.49 0.69,0.72 4.19,4.19 7.34,12.12 2.37,16.88 -1.43,1.07 -4.59,3.1 -5.49,4.45 -0.4,0.58 -0.6,1.23 -0.58,1.93 0.01,0.17 -0.05,0.21 -0.19,0.1 -0.47,-0.38 -0.88,-0.82 -1.22,-1.32 -0.55,-1.06 -0.34,-1.96 0.39,-2.83 1.12,-1.18 2.64,-2.02 3.83,-3.01 4.72,-3.92 1.42,-10.56 -1.7,-14.21 -0.01,-0.02 -0.02,-0.05 -0.02,-0.08 0,-0.02 0.01,-0.05 0.02,-0.07 0.58,-0.68 1.06,-1.4 1.44,-2.16 0.08,-0.37 0.23,-0.5 0.46,-0.4zm-1.57 23.12c0.19,0.21 0.37,0.43 0.54,0.66 0.04,0.04 0.04,0.11 0,0.15 -0.31,0.35 -0.96,0.54 -1.35,0.64 -0.06,0.02 -0.13,-0.02 -0.15,-0.07 -0.25,-0.72 -0.13,-1.36 0.35,-1.93 0.02,-0.03 0.05,-0.04 0.09,-0.04 0.03,0 0.06,0.01 0.08,0.03 0.17,0.17 0.29,0.39 0.44,0.56zm-9.71 11.17c2.21,-0.6 4.84,-2.51 6.26,-4.24 1.05,-1.09 1.7,-3.77 1.58,-5.33 -0.02,-0.18 0.05,-0.21 0.19,-0.1l0.63 0.5c0.03,0.02 0.07,0.03 0.1,0.02 0.5,-0.15 0.96,-0.37 1.39,-0.66 0.12,-0.08 0.18,-0.05 0.18,0.1 0,1.26 -0.2,2.66 -0.6,3.86 -1.38,4.11 -4.32,6.64 -7.93,8.68 -7.02,3.84 -17.13,4.05 -24.71,1.52 -3.97,-1.33 -8.52,-4.23 -10.53,-8.11 -0.98,-1.91 -1.48,-3.9 -1.5,-5.96 0,-0.15 0.06,-0.19 0.18,-0.1 0.45,0.29 0.93,0.52 1.44,0.68 0.03,0.02 0.08,0.01 0.11,-0.02l0.62 -0.53c0.13,-0.12 0.2,-0.09 0.19,0.09 -0.28,7.29 7.4,10.03 13.3,11.04 6.4,1.09 12.95,0.77 19.1,-1.44zm-33.58 -11.58c0.16,0.53 0.35,0.77 0.33,1.44 -0.04,0.49 -0.28,0.58 -0.72,0.26 -0.23,-0.18 -0.48,-0.33 -0.76,-0.44 -0.08,-0.03 -0.1,-0.14 -0.04,-0.2 0.32,-0.31 0.58,-0.66 0.8,-1.04 0.12,-0.26 0.25,-0.27 0.39,-0.02z"/>
  <path fill="#65AF26" fill-rule="nonzero" d="M59.11 62.17c-1.88,1.74 -4.14,3.04 -6.76,3.91 -0.03,0 -0.05,0 -0.08,0 -6.88,-2.23 -10.95,-6.98 -12.02,-14.3 -1.3,-7.32 -0.59,-15.98 -0.59,-23.48 0,-0.07 0.05,-0.12 0.11,-0.12 8.37,0 16.74,0 25.11,0 0.06,0 0.11,0.05 0.11,0.12 -0.02,6.57 0.62,15.98 -0.67,23.58 -0.73,4.3 -2.57,7.98 -5.21,10.29z"/>
  <g>
   <path fill="black" fill-rule="nonzero" d="M44.37 49.21c-0.04,0.03 -0.07,0.06 -0.1,0.09 -0.41,0.44 -1.26,0.8 -1.77,0.92 -0.01,0 -0.02,0 -0.03,0 -0.05,0 -0.1,-0.04 -0.11,-0.09 -0.14,-0.76 -0.02,-1.46 0.35,-2.11 0.01,-0.02 0.02,-0.04 0.02,-0.06 0,-0.06 -0.05,-0.11 -0.11,-0.12 -0.74,-0.1 -1.41,-0.15 -2.16,-0.28 -0.06,-0.01 -0.1,-0.06 -0.1,-0.12 0,-0.02 0.01,-0.04 0.02,-0.05 0.35,-0.7 0.91,-1.17 1.66,-1.42 0.08,-0.03 0.11,-0.14 0.04,-0.2 -1.16,-1.08 -1.88,-2.38 -2.18,-3.89 -0.04,-0.26 -0.04,-0.32 -0.1,-0.65 -0.01,-0.02 0,-0.11 0.08,-0.03l0.38 0.35c0.24,0.23 0.29,0.19 0.15,-0.11 -0.42,-0.91 -0.58,-1.89 -0.47,-2.92 0.03,-0.21 0.1,-0.05 0.15,0.04 0.12,0.22 0.17,0.21 0.14,-0.05 -0.2,-1 -0.28,-1.56 -0.15,-2.67 0.02,-0.27 0.11,-0.29 0.27,-0.08 0.06,0.09 0.17,0.21 0.32,0.37 0.04,0.05 0.08,0.01 0.07,-0.03 -0.36,-1.04 -0.61,-2.38 -0.39,-3.47 0.06,-0.26 0.02,-0.51 0.07,-0.75 0.1,-0.44 0.23,-0.88 0.38,-1.31 0.09,-0.24 0.16,-0.24 0.23,0.01 0.02,0.08 0.04,0.16 0.06,0.24 0.04,0.17 0.12,0.08 0.14,0 0.16,-0.93 0.59,-1.7 1.29,-2.31 0.13,-0.12 0.18,-0.09 0.15,0.08 -0.04,0.27 -0.07,0.53 -0.07,0.8 -0.02,0.99 0.65,2.19 1.27,2.89 1.02,1.13 2.07,2.22 3.16,3.28 1.47,1.41 2.71,3.31 1.9,5.43 -0.19,0.51 -1.34,2.27 -1.25,3.08 0.06,0.51 0.34,0.84 0.86,0.97 0.01,0.01 0.02,0.01 0.03,0.01 0.05,0 0.09,-0.03 0.11,-0.08 1.18,-3.49 2.01,-6.58 1.68,-10.34 -0.02,-0.22 -0.13,-0.37 -0.33,-0.46 -0.47,-0.22 -0.92,-0.59 -1.35,-1.12 -0.22,-0.27 -0.37,-0.56 -0.47,-0.89 -0.06,-0.21 0,-0.25 0.18,-0.13 0.22,0.15 0.48,0.27 0.76,0.36 1.13,0.36 1.64,-0.37 2.61,-0.64 1.16,-0.47 2.57,-0.14 2.95,1.08 0.08,0.23 0.23,0.3 0.46,0.22 0.85,-0.16 2.56,-0.1 2.41,1.15 0,0.06 -0.05,0.11 -0.11,0.11 -0.03,0 -0.05,-0.01 -0.07,-0.03 -0.55,-0.4 -1.13,-0.4 -1.74,0.02 -0.02,0.02 -0.04,0.04 -0.05,0.07 -0.14,0.72 -0.6,0.97 -1.3,1.19 -0.05,0.02 -0.08,0.06 -0.08,0.11 0,0 0,0 0,0 0.01,1.33 0.08,2.41 0.2,3.22 0.15,0.93 0.28,1.9 0.51,2.78 0.29,1.12 0.64,2.22 1.04,3.3 0.02,0.04 0.06,0.08 0.11,0.08 0.01,0 0.02,-0.01 0.03,-0.01 1.79,-0.44 0.13,-2.93 -0.28,-3.78 -0.67,-1.38 -0.42,-2.86 0.49,-4.18 1.25,-1.8 3.1,-3.25 4.47,-4.83 0.63,-0.72 1.33,-1.97 1.29,-2.95 -0.01,-0.25 -0.05,-0.49 -0.13,-0.72 -0.06,-0.22 -0.01,-0.25 0.16,-0.1 0.69,0.6 1.12,1.36 1.3,2.28 0.01,0.03 0.02,0.05 0.03,0.07 0.06,0.14 0.11,0.13 0.14,-0.02l0.06 -0.32c0.05,-0.26 0.11,-0.26 0.18,-0.01l0.41 1.38c0.06,0.2 0.08,0.47 0.06,0.8 0,0.11 0.02,0.29 0.06,0.53 0.07,0.38 -0.01,0.8 -0.04,1.24 -0.02,0.38 -0.13,0.85 -0.32,1.42 -0.11,0.3 -0.05,0.33 0.16,0.09l0.17 -0.19c0.09,-0.11 0.16,-0.09 0.2,0.05 0.04,0.17 0.07,0.38 0.08,0.64 0.04,0.76 -0.05,1.54 -0.26,2.33 -0.02,0.05 0,0.07 0.04,0.06 0.01,-0.01 0.03,-0.02 0.04,-0.03l0.05 -0.09c0.15,-0.22 0.22,-0.2 0.22,0.06 0.01,0.24 0.01,0.48 0.01,0.72 -0.01,0.38 -0.05,0.72 -0.13,1.02 -0.09,0.33 -0.2,0.65 -0.33,0.96 -0.12,0.28 -0.07,0.32 0.15,0.1l0.23 -0.22c0.11,-0.12 0.17,-0.09 0.16,0.07 -0.02,0.35 -0.05,0.6 -0.09,0.74 -0.35,1.42 -1.05,2.62 -2.1,3.61 -0.03,0.02 -0.04,0.06 -0.04,0.09 0,0.05 0.03,0.09 0.08,0.11 0.73,0.25 1.28,0.71 1.64,1.4 0.01,0.01 0.01,0.03 0.01,0.05 0,0.05 -0.03,0.1 -0.08,0.11 -0.36,0.11 -0.63,0.17 -0.8,0.18 -0.45,0.04 -0.9,0.08 -1.35,0.13 -0.06,0.01 -0.1,0.06 -0.1,0.12 0,0.02 0,0.03 0.01,0.05 0.1,0.23 0.2,0.5 0.29,0.79 0.13,0.46 0.13,0.9 0.01,1.33 -0.02,0.06 -0.08,0.1 -0.14,0.08 -0.7,-0.19 -1.32,-0.53 -1.86,-1 -0.09,-0.08 -0.14,-0.06 -0.15,0.06 -0.04,0.44 -0.13,0.86 -0.27,1.27 -0.11,0.33 -0.29,0.61 -0.54,0.84 -0.02,0.02 -0.05,0.03 -0.08,0.03 -0.04,0 -0.07,-0.02 -0.1,-0.05l-0.53 -0.8c-0.1,-0.15 -0.17,-0.14 -0.21,0.04 -0.1,0.42 -0.27,0.81 -0.51,1.17 -0.02,0.03 -0.06,0.05 -0.1,0.05 -0.03,0 -0.06,-0.01 -0.08,-0.03 -0.35,-0.36 -0.65,-0.76 -0.9,-1.19 -0.09,-0.16 -0.15,-0.14 -0.18,0.04l-0.14 1.05c-0.01,0.05 0.02,0.1 0.07,0.13 1.44,0.59 1.91,2.09 1.77,3.53 -0.11,1.22 0.24,2.37 -0.09,3.64 -0.04,0.16 -0.09,0.32 -0.13,0.48 -0.06,0.24 0,0.28 0.19,0.12 0.24,-0.2 0.44,-0.43 0.6,-0.69 0.11,-0.18 0.17,-0.16 0.18,0.04 0.01,0.41 -0.02,0.79 -0.11,1.14 -0.37,1.52 -1.34,2.44 -2.9,2.76 -0.02,0 -0.05,0.01 -0.06,0.03 -0.56,0.64 -1.21,1.06 -1.94,1.25 -1.78,0.47 -4.07,0.31 -5.33,-1.2 -0.01,-0.02 -0.03,-0.03 -0.06,-0.04 -2.07,-0.5 -3.09,-1.8 -3.06,-3.91 0,-0.21 0.06,-0.22 0.17,-0.06 0.22,0.33 0.49,0.62 0.81,0.86 0.06,0.05 0.07,0.02 0.03,-0.07 -0.21,-0.55 -0.22,-0.94 -0.3,-1.39 -0.16,-0.85 0.11,-1.67 0.05,-2.53 -0.1,-1.71 0.02,-3.19 1.73,-3.97 0.04,-0.01 0.07,-0.06 0.07,-0.1 0,-0.01 0,-0.01 0,-0.02l-0.13 -0.98c-0.03,-0.21 -0.11,-0.23 -0.22,-0.04 -0.25,0.4 -0.53,0.77 -0.85,1.12 -0.03,0.02 -0.06,0.04 -0.09,0.04 -0.04,0 -0.07,-0.02 -0.09,-0.05 -0.27,-0.38 -0.44,-0.79 -0.53,-1.23 -0.03,-0.17 -0.09,-0.18 -0.17,-0.03 -0.16,0.27 -0.33,0.53 -0.51,0.78 -0.06,0.09 -0.13,0.11 -0.22,0.08 -0.07,-0.03 -0.15,-0.11 -0.22,-0.21 -0.36,-0.58 -0.55,-1.2 -0.58,-1.87 -0.01,-0.15 -0.07,-0.18 -0.19,-0.09zm19.44 -14.07c0.14,-0.47 0.21,-0.98 0.21,-1.55l-0.21 1.55z"/>
  </g>
  <path fill="#FEFEFE" fill-rule="nonzero" d="M56.06 60.25c-0.13,0.05 -0.26,0.09 -0.38,0.12 -0.53,0.13 -1.02,0.35 -1.46,0.66 -0.23,0.16 -0.42,0.36 -0.57,0.58 -0.1,0.14 -0.17,0.13 -0.21,-0.04 -0.18,-0.74 -0.52,-1.4 -1.03,-1.97 0,0 0,-0.01 0,-0.01 -0.05,-0.04 -0.12,-0.04 -0.17,0 0,0.01 0,0.01 -0.01,0.01 -0.49,0.59 -0.83,1.25 -1.02,1.99 -0.03,0.13 -0.09,0.14 -0.16,0.04 -0.21,-0.26 -0.43,-0.46 -0.67,-0.63 -0.55,-0.37 -1.16,-0.62 -1.85,-0.75 0,0 0,0 0,0 -0.07,-0.01 -0.13,0.03 -0.14,0.09 0,0 0,0 0,0 -0.11,0.66 -0.06,1.3 0.16,1.92 0,0.01 0.01,0.03 0.01,0.04 0,0.07 -0.06,0.12 -0.12,0.12 -0.01,0 -0.01,0 -0.01,0 -0.34,-0.04 -0.64,-0.16 -0.9,-0.37 -0.6,-0.5 -1.05,-1.11 -1.34,-1.84 -0.08,-0.19 -0.03,-0.23 0.14,-0.11 0.27,0.18 0.56,0.32 0.87,0.41 0.17,0.05 0.22,0 0.14,-0.16 -0.26,-0.54 -0.46,-1.09 -0.6,-1.66 -0.1,-0.42 -0.14,-0.83 -0.12,-1.24 0.01,-0.27 0.07,-0.28 0.18,-0.04 0.12,0.29 0.28,0.55 0.47,0.8 0.33,0.43 0.8,0.85 1.42,1.27 0.13,0.1 0.2,0.06 0.18,-0.11 -0.1,-1.01 0.11,-1.97 0.61,-2.86 0,-0.01 0.01,-0.01 0.01,-0.01 0.03,-0.05 0.1,-0.07 0.16,-0.04 0,0 0,0.01 0.01,0.01 0.48,0.34 0.83,0.78 1.05,1.3 0.09,0.21 0.18,0.43 0.27,0.64 0.09,0.21 0.15,0.2 0.18,-0.03 0.1,-0.92 0.46,-1.74 1.07,-2.44 0.04,-0.05 0.12,-0.06 0.17,-0.01 0.25,0.25 0.45,0.53 0.61,0.85 0.24,0.49 0.41,1.01 0.49,1.55 0.04,0.25 0.1,0.25 0.18,0.02 0.19,-0.52 0.38,-0.91 0.59,-1.19 0.23,-0.31 0.48,-0.54 0.75,-0.68 0.06,-0.03 0.13,-0.01 0.16,0.05 0.5,0.88 0.71,1.82 0.62,2.83 -0.01,0.18 0.05,0.22 0.19,0.11 0.34,-0.26 0.65,-0.51 0.93,-0.75 0.43,-0.38 0.79,-0.89 1.05,-1.55 0.01,-0.01 0.02,-0.02 0.03,-0.02 0.03,0 0.05,0.03 0.05,0.05 0.01,1.12 -0.23,2.17 -0.74,3.15 -0.08,0.16 -0.04,0.22 0.14,0.17 0.32,-0.1 0.61,-0.24 0.88,-0.43 0.18,-0.12 0.22,-0.08 0.14,0.12 -0.29,0.71 -0.74,1.32 -1.34,1.81 -0.27,0.22 -0.57,0.36 -0.9,0.43 -0.14,0.02 -0.18,-0.03 -0.14,-0.16 0.22,-0.64 0.28,-1.29 0.19,-1.96 -0.01,-0.06 -0.07,-0.11 -0.13,-0.1 -0.03,0 -0.06,0.01 -0.09,0.02zm-2.82 2.18c-0.05,-0.82 -0.33,-1.57 -0.82,-2.23 -0.04,-0.06 -0.14,-0.06 -0.18,0 -0.9,1.17 -0.78,2.33 -0.84,2.39 -0.01,0.02 -0.06,0.07 -0.09,0.02 -0.34,-0.55 -0.79,-1.03 -1.35,-1.43 -0.33,-0.23 -0.68,-0.37 -1.04,-0.44 -0.05,-0.01 -0.12,0.01 -0.14,0.09 -0.04,0.18 -0.05,0.38 -0.02,0.59 0.17,1.35 0.9,2.2 2.19,2.55 1.12,0.3 2.71,0.21 3.69,-0.4 0.9,-0.58 1.32,-1.48 1.26,-2.73 -0.01,-0.07 -0.07,-0.12 -0.15,-0.11 -0.48,0.1 -0.91,0.31 -1.29,0.63 -0.39,0.34 -0.74,0.71 -1.05,1.12 -0.1,0.14 -0.16,0.12 -0.17,-0.05zm-4.28 -29.58c-0.02,-0.06 0,-0.08 0.06,-0.04 1.41,0.85 2.21,-0.72 3.45,-0.9 0.88,-0.13 1.76,0.27 2.02,1.16 0.01,0.04 0,0.09 -0.03,0.12 -0.68,0.73 -0.96,0.9 -1.69,1.19 -0.05,0.02 -0.08,0.08 -0.07,0.14 0.14,0.59 0.53,0.92 1.16,1 0.06,0.01 0.11,0.06 0.11,0.12 0,0 0,0 0,0 -0.03,2.07 0.17,4.15 0.61,6.24 0.36,1.76 1.33,4.24 1.57,6.42 0.13,1.14 0.08,2.27 -0.13,3.39 -0.01,0.04 -0.04,0.07 -0.07,0.09 -0.13,0.05 -0.29,0.05 -0.41,0.09 -2.09,0.7 -2.14,3.06 -2.07,4.87 0,0.08 -0.01,0.08 -0.05,0 -0.26,-0.56 -0.59,-1.07 -1.02,-1.51 -0.04,-0.05 -0.12,-0.05 -0.17,0 -0.41,0.47 -0.75,0.98 -1.01,1.54 -0.06,0.11 -0.1,0.04 -0.09,-0.03 0.27,-1.84 -0.07,-4.59 -2.4,-4.94 -0.04,-0.01 -0.08,-0.05 -0.09,-0.1 -0.52,-2.57 0.07,-5.09 0.83,-7.59 0.88,-2.91 1.32,-5.6 1.24,-8.58 -0.01,-0.44 -0.09,-1.18 -0.16,-1.61 -0.01,-0.05 -0.05,-0.1 -0.11,-0.1 -0.36,0 -1.37,-0.62 -1.48,-0.97zm3.74 0.53c0.29,0.11 0.2,-0.47 0.03,-0.59 -0.59,-0.43 -0.84,0.79 -0.1,0.59 0.02,0 0.05,0 0.07,0zm-5.17 5.68c-0.51,-2.86 -3.41,-4.11 -4.93,-6.35 -0.69,-1.02 -0.83,-2.11 -0.43,-3.28 0.01,-0.03 0.07,-0.08 0.1,-0.06 0.01,0.01 0.02,0.02 0.02,0.04 -0.18,1.8 1.33,3.44 2.51,4.6 1.62,1.57 4.19,3.75 3.91,6.29 -0.09,0.77 -0.61,1.64 -0.97,2.36 -0.07,0.15 -0.18,0.5 -0.34,1.06 -0.15,0.56 0.01,0.98 0.49,1.25 0.15,0.09 0.38,0.13 0.56,0.22 0.03,0.02 0.1,0.06 0.1,0.09 -0.03,0.26 -0.06,0.35 -0.28,0.31 -1.56,-0.33 -1.61,-1.77 -1.15,-3.03 0.45,-1.25 0.63,-2.28 0.41,-3.5zm-4.23 -3.79c-1.27,-1.22 -2.3,-2.72 -1.79,-4.58 0,-0.03 0.02,-0.04 0.04,-0.03 0.01,0 0.01,0.01 0.01,0.02 0.01,1.03 0.37,1.92 1.08,2.66 1.05,1.08 2.25,2 3.2,3.17 0.68,0.85 1.14,1.8 1.38,2.85 0.04,0.15 -0.02,0.19 -0.16,0.14l-0.28 -0.12c-0.04,-0.01 -0.06,-0.04 -0.07,-0.08 -0.17,-0.66 -0.59,-1.04 -1.27,-1.14 -0.05,-0.01 -0.1,-0.05 -0.1,-0.1 -0.11,-1.09 -1.31,-2.09 -2.04,-2.79zm-0.49 3.07c-2.04,-1.88 -2.5,-4.28 -1.98,-6.94 0,-0.02 0.02,-0.04 0.04,-0.06 0.04,-0.02 0.06,-0.01 0.05,0.06 -0.17,2.19 2.18,4 3.51,5.42 0.37,0.4 0.57,0.83 0.6,1.3 0.01,0.04 -0.01,0.08 -0.05,0.11 -0.38,0.26 -0.59,0.62 -0.64,1.08 0,0.07 -0.05,0.11 -0.11,0.11 -0.03,0 -0.05,0 -0.07,-0.02 -0.42,-0.26 -0.87,-0.62 -1.35,-1.06zm-0.99 2.34c-1.09,-1.17 -1.6,-2.55 -1.55,-4.14 0.01,-0.22 0.08,-0.25 0.21,-0.07 0.99,1.28 2.18,2.33 3.58,3.17 0.13,0.08 0.12,0.14 -0.03,0.17 -0.43,0.1 -0.74,0.38 -0.91,0.82 -0.11,0.27 -0.15,0.56 -0.13,0.85 0,0.17 -0.06,0.2 -0.2,0.1 -0.34,-0.26 -0.66,-0.56 -0.97,-0.9zm0.48 3.02c-0.99,-0.9 -1.61,-2.02 -2,-3.3 -0.08,-0.25 -0.13,-0.51 -0.16,-0.77 -0.03,-0.33 0.03,-0.34 0.18,-0.05 0.29,0.56 0.69,1.04 1.21,1.44 0.11,0.09 0.36,0.26 0.74,0.52 0.22,0.15 0.44,0.3 0.66,0.43 0.01,0.01 0.01,0.01 0.02,0.01 0.05,0.05 0.05,0.12 0.01,0.17 0,0.01 -0.01,0.01 -0.01,0.02 -0.08,0.06 -0.13,0.11 -0.14,0.15 -0.21,0.6 -0.15,1.14 0.17,1.63 0.12,0.18 0.08,0.23 -0.12,0.14 -0.19,-0.09 -0.37,-0.22 -0.56,-0.39zm0 1.84c-1,-0.89 -1.63,-2.13 -2.03,-3.38 -0.07,-0.2 0.01,-0.21 0.09,-0.08 0.36,0.53 0.75,1 1.16,1.41 0.47,0.47 1.04,0.79 1.7,0.95 0.06,0.01 0.1,0.06 0.1,0.11 0,0.02 -0.01,0.03 -0.01,0.05 -0.24,0.56 0.03,1.12 0.43,1.55 0.18,0.18 0.15,0.23 -0.09,0.16 -0.51,-0.16 -0.96,-0.41 -1.35,-0.77zm3.13 0.31c-0.78,1.03 -1.86,0.06 -1.74,-0.92 0.06,-0.51 0.77,-0.5 1.11,-0.35 0.04,0.02 0.07,0.06 0.07,0.1 0.02,0.43 0.19,0.76 0.54,1 0,0 0,0 0,0 0.05,0.04 0.06,0.11 0.02,0.16 0,0 0,0 0,0l0 0.01zm-1.86 -1.73c-0.23,-0.18 -0.37,-0.44 -0.41,-0.78 -0.11,-0.99 0.31,-1.33 1.27,-1 0,0 0.01,0 0.01,0 0.06,0.03 0.08,0.1 0.06,0.16 -0.01,0.01 -0.01,0.01 -0.01,0.01 -0.3,0.5 -0.32,1 -0.04,1.51 0.01,0.01 0.01,0.03 0.01,0.05 0,0.04 -0.02,0.08 -0.06,0.11 -0.29,0.16 -0.57,0.14 -0.83,-0.06zm-0.09 -2.4c-0.02,-0.01 -0.03,-0.03 -0.04,-0.05 -0.31,-1.04 0.87,-2.22 1.63,-1.06 0.03,0.05 0.02,0.11 -0.02,0.15 -0.31,0.3 -0.47,0.68 -0.47,1.13 0,0 0,0 0,0 0,0.06 -0.04,0.1 -0.09,0.12 -0.39,0.07 -0.72,-0.02 -1.01,-0.29zm1.81 -1.39c-0.42,-0.29 -0.6,-0.63 -0.52,-1.01 0.13,-0.65 0.69,-0.92 1.29,-0.56 0.22,0.13 0.35,0.29 0.41,0.5 0.01,0.01 0.01,0.02 0.01,0.03 0,0.05 -0.04,0.1 -0.09,0.11 -0.45,0.13 -0.76,0.42 -0.92,0.87 -0.02,0.05 -0.06,0.08 -0.11,0.08 -0.03,0 -0.05,-0.01 -0.07,-0.02zm0.21 3.79c-0.61,-0.11 -0.82,-0.53 -0.64,-1.24 0.05,-0.2 0.18,-0.34 0.39,-0.41 0.13,-0.04 0.13,-0.1 0.02,-0.17 -0.32,-0.21 -0.38,-0.52 -0.19,-0.93 0.17,-0.35 0.43,-0.49 0.78,-0.42 0,0 0.01,0 0.02,0 0.07,0 0.12,-0.05 0.12,-0.12 0,-0.01 0,-0.02 0,-0.02 -0.05,-0.2 -0.05,-0.35 -0.01,-0.45 0.27,-0.63 0.68,-0.74 1.24,-0.32 0.03,0.02 0.05,0.05 0.05,0.08 0.15,1.3 -0.54,2.56 -0.74,3.7 -0.22,1.16 0.77,1.81 1.76,1.97 0,0 0.01,0 0.01,0 0.06,0.02 0.1,0.08 0.08,0.15 0,0 0,0 0,0l-0.18 0.66c-0.01,0.05 -0.05,0.08 -0.1,0.09 -0.48,0.07 -0.73,-0.08 -0.75,-0.45 -0.01,-0.06 -0.06,-0.11 -0.12,-0.11 -0.02,0 -0.04,0 -0.05,0.01 -0.15,0.07 -0.25,0.1 -0.3,0.1 -0.58,-0.02 -0.79,-0.25 -0.61,-0.69 0.05,-0.11 0.01,-0.15 -0.1,-0.13 -0.54,0.09 -0.84,-0.16 -0.92,-0.76 0,-0.03 0.01,-0.05 0.02,-0.08 0.07,-0.11 0.15,-0.21 0.26,-0.29 0.12,-0.09 0.1,-0.15 -0.04,-0.17zm0.06 2.97c-0.2,-0.17 -0.25,-0.35 -0.17,-0.54 0.09,-0.17 0.2,-0.32 0.34,-0.43 0,0 0,-0.01 0,-0.01 0.05,-0.04 0.13,-0.03 0.17,0.02 0,0.01 0,0.01 0,0.01 0.21,0.3 0.5,0.43 0.87,0.41 0,0 0,0 0,0 0.07,-0.01 0.12,0.04 0.13,0.1 0,0 0,0 0,0 0.04,0.5 -0.21,0.73 -0.75,0.69 -0.21,-0.01 -0.4,-0.09 -0.59,-0.25zm1.44 0.55c-0.05,-0.02 -0.08,-0.08 -0.07,-0.14l0.2 -0.67c0,-0.01 0,-0.01 0.01,-0.02 0.02,-0.06 0.09,-0.08 0.15,-0.06 0.01,0.01 0.01,0.01 0.02,0.01 0.19,0.13 0.42,0.18 0.66,0.15 0,0 0.01,0 0.01,0 0.07,0 0.12,0.06 0.12,0.12 0,0 0,0 0,0.01 -0.02,0.73 -0.38,0.93 -1.1,0.6zm-4.78 -1.41c0.14,-0.06 0.28,-0.06 0.42,0.03 0.54,0.28 1.12,0.44 1.73,0.49 0.19,0.01 0.21,0.08 0.08,0.2 -0.17,0.15 -0.38,0.27 -0.63,0.36 -0.92,0.31 -1.84,0.33 -2.76,0.06 -0.05,-0.02 -0.08,-0.06 -0.08,-0.12 0,-0.02 0.01,-0.05 0.02,-0.07 0.32,-0.43 0.73,-0.75 1.22,-0.95zm1.1 1.55c0.03,-0.03 0.05,-0.06 0.08,-0.09 0.02,-0.02 0.04,-0.04 0.07,-0.04 0.46,-0.05 0.89,-0.2 1.28,-0.44 0.17,-0.11 0.21,-0.07 0.13,0.12 -0.17,0.39 -0.28,0.81 -0.35,1.24 -0.01,0.02 -0.02,0.04 -0.03,0.06 -0.46,0.51 -1,0.88 -1.64,1.11 -0.01,0 -0.03,0 -0.04,0 -0.07,0 -0.12,-0.05 -0.12,-0.11 0,-0.01 0,-0.01 0,-0.01 0.02,-0.68 0.23,-1.29 0.62,-1.84zm2.94 -0.03c0.06,0 0.11,0.04 0.12,0.1 0.07,0.45 0.02,0.91 -0.15,1.37 -0.18,0.49 -0.42,0.96 -0.72,1.43 -0.02,0.03 -0.06,0.05 -0.1,0.05 -0.05,0 -0.09,-0.03 -0.11,-0.06 -0.38,-0.74 -0.53,-1.52 -0.44,-2.34 0.03,-0.29 0.14,-0.59 0.32,-0.89 0.01,0 0.01,-0.01 0.01,-0.01 0.04,-0.05 0.12,-0.06 0.17,-0.02 0,0 0,0 0.01,0.01 0.24,0.23 0.54,0.35 0.89,0.36zm1.16 0.43c0.12,0.01 0.24,0 0.38,-0.03 0.01,0 0.01,0 0.01,0 0.07,0 0.13,0.05 0.13,0.11 0,0 0,0.01 0,0.01 0.01,0.28 0.01,0.56 0.01,0.83 -0.01,0.34 -0.06,0.64 -0.17,0.89 -0.17,0.42 -0.41,0.8 -0.71,1.14 -0.03,0.03 -0.06,0.04 -0.09,0.04 -0.04,0 -0.08,-0.02 -0.11,-0.06 -0.19,-0.37 -0.28,-0.79 -0.28,-1.25 0.01,-0.64 0.09,-1.24 0.24,-1.78 0.01,-0.05 0.06,-0.09 0.11,-0.09 0.02,0 0.05,0.01 0.07,0.02 0.13,0.1 0.27,0.15 0.41,0.17zm5.74 -13.76c-0.07,-0.01 -0.07,-0.02 0,-0.03 0.76,-0.17 1.13,-0.88 1.81,-1.12 0.53,-0.17 1.15,-0.07 1.68,0.01 0.23,0.03 0.39,0.13 0.5,0.29 0.13,0.2 0.08,0.26 -0.14,0.18 -0.26,-0.09 -0.54,-0.09 -0.82,0.02 -1.07,0.37 -1.85,0.75 -3.03,0.65zm0.12 0.63c-0.1,-0.06 -0.29,-0.24 -0.29,-0.38 0,-0.07 0.06,-0.13 0.14,-0.12 0.68,0.12 1.36,0.08 2.02,-0.12 0.09,-0.02 0.17,0.05 0.15,0.14 -0.05,0.27 -0.23,0.47 -0.54,0.6 -0.51,0.21 -1.01,0.17 -1.48,-0.12zm2.9 10.43l0.01 -0.24c0,-0.05 0.04,-0.1 0.1,-0.11 2.35,-0.37 -0.18,-3.52 -0.35,-4.79 -0.36,-2.7 2.77,-5.2 4.45,-6.89 1.08,-1.08 2.07,-2.45 1.99,-4.05 0,-0.01 0,-0.01 0,-0.01 0,-0.01 0.01,-0.03 0.03,-0.03 0.02,-0.01 0.04,0 0.06,0.03 1.24,3.22 -2.42,5.21 -4.07,7.1 -1.58,1.81 -1.68,3.97 -0.84,6.18 0.06,0.16 0.11,0.41 0.17,0.77 0.21,1.18 -0.26,1.91 -1.41,2.16 -0.01,0 -0.02,0 -0.03,0 -0.06,0 -0.11,-0.05 -0.11,-0.12 0,0 0,0 0,0zm3.01 -7.31c-0.66,0.1 -1.07,0.47 -1.24,1.12 -0.01,0.03 -0.04,0.06 -0.07,0.08l-0.29 0.13c-0.15,0.06 -0.2,0.02 -0.17,-0.14 0.31,-1.27 0.92,-2.38 1.83,-3.33 1.46,-1.53 3.91,-3.09 3.81,-5.33 0,-0.12 0.02,-0.13 0.08,-0.02 0,0.01 0.01,0.02 0.01,0.03 0.44,1.7 -0.35,3.17 -1.55,4.31 -0.96,0.91 -2.19,1.93 -2.28,3.13 -0.01,0.06 -0.09,0.01 -0.13,0.02zm0.48 0.04c-0.04,-0.02 -0.06,-0.06 -0.06,-0.1 0,0 0,0 0,-0.01 0.03,-0.31 0.11,-0.57 0.24,-0.76 1.24,-1.86 4.08,-3.39 3.91,-5.93 0,-0.01 0,-0.02 0.02,-0.03 0.18,-0.11 0.24,1.99 0.24,2.21 0,0.57 -0.07,1.08 -0.21,1.55 -0.54,1.82 -1.65,3.24 -3.31,4.25 -0.08,0.04 -0.17,-0.01 -0.18,-0.09 -0.05,-0.46 -0.27,-0.82 -0.65,-1.09zm1 1.61c-0.15,-0.06 -0.15,-0.13 -0.02,-0.21 1.19,-0.72 2.25,-1.63 3.18,-2.72 0.13,-0.16 0.26,-0.32 0.37,-0.49 0.11,-0.16 0.17,-0.15 0.17,0.05 0.06,2.17 -0.77,3.87 -2.49,5.1 -0.13,0.09 -0.19,0.06 -0.19,-0.1 0.01,-0.22 -0.02,-0.45 -0.09,-0.68 -0.14,-0.45 -0.45,-0.77 -0.93,-0.95zm2.85 0.86c0.38,-0.34 0.68,-0.78 0.9,-1.31 0.06,-0.14 0.1,-0.13 0.12,0.02 0,0.02 0,0.05 0,0.09 -0.22,1.53 -1.02,3.29 -2.31,4.34 -0.14,0.12 -0.29,0.21 -0.45,0.28 -0.2,0.1 -0.24,0.05 -0.11,-0.14 0.29,-0.43 0.38,-0.91 0.25,-1.44 -0.03,-0.14 -0.1,-0.26 -0.22,-0.36 0,0 0,-0.01 -0.01,-0.01 -0.04,-0.05 -0.03,-0.12 0.01,-0.17 0.01,0 0.01,0 0.02,-0.01 0.7,-0.41 1.3,-0.84 1.8,-1.29zm0.79 1.39c0.05,-0.08 0.09,-0.09 0.12,-0.04 0.01,0.03 0.01,0.05 0,0.08 -0.51,1.43 -1.29,3.05 -2.64,3.85 -0.24,0.14 -0.5,0.26 -0.77,0.35 -0.26,0.08 -0.29,0.03 -0.1,-0.16 0.23,-0.22 0.4,-0.52 0.51,-0.89 0.06,-0.23 0.04,-0.44 -0.06,-0.64 -0.01,-0.01 -0.02,-0.03 -0.02,-0.05 0,-0.06 0.04,-0.1 0.09,-0.12 0.77,-0.21 1.41,-0.62 1.94,-1.22 0.51,-0.57 0.82,-0.96 0.93,-1.16zm-4.11 4.89c-0.18,-0.13 -0.16,-0.21 0.06,-0.22 0.69,-0.03 1.33,-0.22 1.93,-0.57 0.03,-0.01 0.07,-0.02 0.1,-0.01 0.56,0.2 1.02,0.54 1.37,1.02 0.02,0.02 0.02,0.05 0.02,0.07 0,0.05 -0.03,0.1 -0.08,0.11 -0.79,0.24 -1.58,0.26 -2.37,0.09 -0.34,-0.08 -0.69,-0.24 -1.03,-0.49zm-0.05 1.66c-0.01,-0.02 -0.02,-0.04 -0.02,-0.06 -0.07,-0.43 -0.19,-0.84 -0.35,-1.23 -0.07,-0.18 -0.03,-0.22 0.13,-0.12 0.39,0.23 0.82,0.38 1.27,0.44 0.03,0.01 0.06,0.03 0.08,0.05 0.43,0.57 0.67,1.21 0.71,1.92 0,0.01 0,0.02 0,0.03 -0.01,0.06 -0.07,0.11 -0.14,0.1 0,0 -0.01,-0.01 -0.02,-0.01 -0.64,-0.22 -1.19,-0.6 -1.66,-1.12zm-1.67 0.79c-0.23,-0.55 -0.19,-0.97 -0.21,-1.54 0,0 0,0 0,0 0,-0.07 0.05,-0.12 0.12,-0.12 0.35,-0.01 0.66,-0.13 0.91,-0.37 0.03,-0.02 0.05,-0.03 0.08,-0.03 0.05,0 0.09,0.02 0.11,0.06 0.37,0.7 0.45,1.44 0.25,2.23 -0.09,0.34 -0.22,0.68 -0.38,1 -0.02,0.04 -0.06,0.07 -0.1,0.07 -0.04,0 -0.08,-0.02 -0.1,-0.06 -0.27,-0.39 -0.5,-0.8 -0.68,-1.24zm-0.47 -0.46c0.04,0.19 0.06,0.38 0.06,0.56 0.07,0.57 -0.03,1.1 -0.29,1.6 -0.02,0.04 -0.06,0.06 -0.1,0.06 -0.04,0 -0.07,-0.01 -0.09,-0.04 -0.74,-0.81 -1.03,-1.77 -0.89,-2.88 0,-0.06 0.05,-0.11 0.11,-0.11 0.01,0 0.02,0 0.03,0.01 0.29,0.07 0.56,0.03 0.8,-0.13 0.02,-0.02 0.04,-0.02 0.07,-0.02 0.05,0 0.1,0.04 0.11,0.09l0.19 0.86zm-1.38 -1.47c-0.07,-0.14 -0.09,-0.29 -0.06,-0.46 0.01,-0.06 0.06,-0.1 0.12,-0.1 0,0 0,0 0.01,0 0.24,0.03 0.45,-0.02 0.63,-0.16 0.02,-0.01 0.05,-0.02 0.07,-0.02 0.05,0 0.1,0.03 0.11,0.08l0.2 0.65c0.02,0.04 0,0.09 -0.03,0.12 -0.33,0.26 -0.84,0.31 -1.05,-0.11zm1.22 -0.4c-0.08,-0.12 -0.11,-0.26 -0.11,-0.42 0,0 0,0 0,0 0,-0.07 0.06,-0.12 0.12,-0.11 0,0 0,0 0.01,0 0.38,0.03 0.68,-0.11 0.89,-0.41 0.03,-0.03 0.06,-0.05 0.1,-0.05 0.03,0 0.05,0.01 0.07,0.02 0.2,0.16 0.31,0.36 0.36,0.61 0,0.01 0,0.01 0,0.02 0,0.02 0,0.04 -0.01,0.05 -0.26,0.52 -1.05,0.88 -1.43,0.29zm1.94 -2.41c0,-0.05 0.03,-0.09 0.08,-0.11 0.34,-0.11 0.67,-0.09 0.99,0.08 0.03,0.01 0.05,0.04 0.06,0.08 0.25,1.06 -0.84,2.26 -1.69,1.13 -0.02,-0.02 -0.03,-0.05 -0.03,-0.07 0,-0.04 0.02,-0.08 0.05,-0.1 0.35,-0.25 0.53,-0.58 0.54,-1.01zm0.48 -0.48c-0.04,-0.02 -0.07,-0.06 -0.07,-0.11 0,-0.02 0,-0.04 0.01,-0.06 0.27,-0.51 0.26,-1.01 -0.04,-1.49 -0.01,-0.02 -0.02,-0.04 -0.02,-0.07 0,-0.04 0.03,-0.08 0.07,-0.1 0.29,-0.15 0.57,-0.19 0.84,-0.12 0.63,0.15 0.5,1.14 0.27,1.57 -0.23,0.44 -0.58,0.57 -1.06,0.38zm-0.09 -2.18c-0.06,0 -0.11,-0.06 -0.11,-0.12 0,-0.45 -0.15,-0.83 -0.47,-1.14 -0.05,-0.04 -0.05,-0.11 -0.01,-0.16 0.18,-0.23 0.37,-0.38 0.57,-0.44 0.99,-0.29 1.94,2.05 0.02,1.86zm-1.93 -2.61c-0.07,-0.02 -0.1,-0.1 -0.07,-0.16 0.65,-1.44 2.43,-0.13 1.47,0.86 -0.08,0.09 -0.17,0.17 -0.27,0.24 -0.02,0.02 -0.05,0.03 -0.07,0.03 -0.05,0 -0.1,-0.03 -0.11,-0.08 -0.16,-0.46 -0.48,-0.76 -0.95,-0.89zm-0.96 6.84c-0.03,0.41 -0.28,0.56 -0.76,0.44 -0.04,-0.01 -0.08,-0.04 -0.09,-0.08l-0.17 -0.65c0,0 0,0 0,0 -0.01,-0.06 0.03,-0.13 0.09,-0.14 0,0 0,0 0,0 1,-0.25 1.94,-0.75 1.76,-1.96 -0.17,-1.15 -0.83,-2.34 -0.75,-3.71 0,-0.03 0.01,-0.05 0.03,-0.07 0.36,-0.37 0.88,-0.39 1.16,0.07 0.11,0.2 0.15,0.43 0.11,0.67 -0.02,0.08 0.06,0.16 0.14,0.14 0.34,-0.07 0.6,0.07 0.76,0.42 0.2,0.42 0.14,0.73 -0.18,0.93 -0.11,0.06 -0.11,0.12 0.01,0.17 0.21,0.07 0.34,0.22 0.4,0.43 0.2,0.7 -0.02,1.11 -0.65,1.23 -0.16,0.02 -0.17,0.08 -0.04,0.17l0.25 0.16c0.04,0.03 0.06,0.07 0.05,0.12 -0.07,0.66 -0.37,0.94 -0.92,0.84 -0.11,-0.02 -0.15,0.03 -0.1,0.13 0.15,0.36 0,0.6 -0.47,0.71 -0.11,0.02 -0.26,-0.01 -0.45,-0.11 -0.02,-0.01 -0.04,-0.02 -0.06,-0.02 -0.06,0 -0.11,0.05 -0.12,0.11l0 0zm-2.19 9.57c-0.45,0.23 -0.83,0.55 -1.15,0.94 -0.1,0.13 -0.15,0.11 -0.16,-0.05 -0.04,-0.55 -0.04,-1.1 0.01,-1.65 0.1,-1.47 1.32,-3.09 2.98,-2.22 1.39,0.72 1.15,2.67 0.78,3.94 -0.23,0.81 -0.66,1.47 -1.28,2 -0.14,0.11 -0.2,0.08 -0.19,-0.1 0.04,-1.04 -0.24,-1.99 -0.84,-2.83 -0.04,-0.05 -0.1,-0.06 -0.15,-0.03l0 0zm-5.68 0.02c-0.62,0.84 -0.9,1.78 -0.84,2.83 0.02,0.18 -0.05,0.21 -0.19,0.1 -0.38,-0.3 -0.69,-0.67 -0.92,-1.1 -0.77,-1.44 -1.34,-4.88 1.19,-5.05 1.12,-0.08 1.84,0.85 2.07,1.84 0.18,0.74 0.22,1.49 0.13,2.25 -0.02,0.17 -0.08,0.18 -0.17,0.04 -0.09,-0.14 -0.2,-0.26 -0.33,-0.38 -0.08,-0.07 -0.34,-0.25 -0.77,-0.56 -0.06,-0.04 -0.13,-0.02 -0.17,0.03z"/>
 </g>
</svg>
