<?xml version="1.0" encoding="UTF-8"?>
<!DOCTYPE svg PUBLIC "-//W3C//DTD SVG 1.1//EN" "http://www.w3.org/Graphics/SVG/1.1/DTD/svg11.dtd">
<!-- Creator: CorelDRAW -->
<svg xmlns="http://www.w3.org/2000/svg" xml:space="preserve" width="400px" height="395px" version="1.1" shape-rendering="geometricPrecision" text-rendering="geometricPrecision" image-rendering="optimizeQuality" fill-rule="evenodd" clip-rule="evenodd"
viewBox="0 0 397.619 392.729"
 xmlns:xlink="http://www.w3.org/1999/xlink"
 xmlns:xodm="http://www.corel.com/coreldraw/odm/2003">
 <g id="Capa_x0020_1">
  <metadata id="CorelCorpID_0Corel-Layer"/>
  <circle fill="#2A6099" cx="198.527" cy="209.341" r="74.818"/>
  <g id="_2446904822240">
   <path fill="#55308D" d="M87.011 111.315c14.308,-16.313 31.737,-28.932 50.843,-37.47 1.245,6.332 3.457,12.318 6.476,17.797 -15.375,7.065 -29.47,17.174 -41.281,30.067 -4.745,-4.244 -10.148,-7.766 -16.038,-10.394z"/>
   <path fill="#55308D" d="M61.842 105.975c34.154,0 61.841,27.687 61.841,61.841 0,34.154 -27.687,61.842 -61.841,61.842 -34.155,0 -61.842,-27.688 -61.842,-61.842 0,-34.154 27.687,-61.841 61.842,-61.841z"/>
  </g>
  <g id="_2446904824064">
   <path fill="#FF8000" d="M259.205 73.82c19.619,8.798 36.979,21.73 50.975,37.686 -5.859,2.668 -11.229,6.222 -15.938,10.493 -11.598,-12.703 -25.691,-23.089 -41.504,-30.383 3.016,-5.479 5.224,-11.464 6.467,-17.796z"/>
   <path fill="#FF8000" d="M198.527 0c34.154,0 61.842,27.687 61.842,61.842 0,34.154 -27.688,61.841 -61.842,61.841 -34.154,0 -61.842,-27.687 -61.842,-61.841 0,-34.155 27.688,-61.842 61.842,-61.842z"/>
  </g>
  <g id="_2446904824256">
   <path fill="red" d="M345.73 228.857c-2.73,20.534 -9.74,40.12 -20.325,57.554 -4.54,-4.386 -9.75,-8.082 -15.459,-10.923 8.421,-14.188 14.147,-29.969 16.691,-46.504 2.983,0.442 6.034,0.674 9.14,0.674 3.389,0 6.713,-0.277 9.953,-0.801z"/>
   <path fill="red" d="M335.777 105.975c34.154,0 61.842,27.687 61.842,61.841 0,34.154 -27.688,61.842 -61.842,61.842 -34.154,0 -61.842,-27.688 -61.842,-61.842 0,-34.154 27.688,-61.841 61.842,-61.841z"/>
  </g>
  <g id="_2446904823440">
   <path fill="#729FCF" d="M225.625 355.336c-17.28,3.207 -34.818,3.261 -51.806,0.385 2.508,-5.712 4.178,-11.874 4.854,-18.333 13.872,2.16 28.14,2.085 42.228,-0.383 0.635,6.453 2.261,12.615 4.724,18.331z"/>
   <path fill="#729FCF" d="M282.442 269.046c34.154,0 61.842,27.687 61.842,61.841 0,34.155 -27.688,61.842 -61.842,61.842 -34.154,0 -61.842,-27.687 -61.842,-61.842 0,-34.154 27.688,-61.841 61.842,-61.841z"/>
  </g>
  <g id="_2446904828528">
   <path fill="#00A933" d="M72.6 288.02c-11.451,-18.295 -18.537,-38.542 -21.255,-59.253 3.412,0.583 6.918,0.891 10.497,0.891 2.922,0 5.795,-0.207 8.61,-0.6 2.534,16.55 8.279,32.703 17.235,47.455 -5.61,3.049 -10.695,6.942 -15.087,11.507z"/>
   <circle fill="#00A933" cx="117.17" cy="330.887" r="61.842"/>
  </g>
  <path fill="white" fill-rule="nonzero" d="M75.399 336.95l0 -12.126 3.091 0c1.152,0 1.906,0.059 2.26,0.175 0.565,0.186 1.03,0.587 1.398,1.2 0.368,0.609 0.552,1.4 0.552,2.365 0,0.875 -0.16,1.612 -0.476,2.205 -0.317,0.593 -0.714,1.007 -1.19,1.247 -0.476,0.24 -1.295,0.362 -2.458,0.362l-1.262 0 0 4.572 -1.915 0zm1.915 -10.077l0 3.455 1.068 0c0.713,0 1.203,-0.053 1.46,-0.158 0.256,-0.104 0.467,-0.293 0.632,-0.567 0.165,-0.277 0.246,-0.612 0.246,-1.01 0,-0.404 -0.083,-0.746 -0.254,-1.022 -0.17,-0.277 -0.381,-0.463 -0.63,-0.556 -0.249,-0.093 -0.776,-0.142 -1.584,-0.142l-0.938 0z"/>
  <path id="_1" fill="white" fill-rule="nonzero" d="M83.816 332.431c0,-0.861 0.165,-1.645 0.492,-2.354 0.327,-0.705 0.755,-1.236 1.282,-1.589 0.53,-0.353 1.122,-0.531 1.784,-0.531 1.109,0 1.979,0.455 2.612,1.364 0.636,0.909 0.952,1.97 0.952,3.184 0,0.906 -0.165,1.724 -0.495,2.453 -0.33,0.728 -0.762,1.278 -1.3,1.645 -0.536,0.367 -1.123,0.551 -1.761,0.551 -1.024,0 -1.876,-0.41 -2.552,-1.225 -0.676,-0.819 -1.014,-1.985 -1.014,-3.498zm1.866 0.125c0,0.889 0.167,1.56 0.5,2.018 0.335,0.454 0.738,0.683 1.211,0.683 0.463,0 0.857,-0.229 1.187,-0.689 0.327,-0.457 0.492,-1.135 0.492,-2.029 0,-0.873 -0.167,-1.539 -0.5,-1.996 -0.335,-0.46 -0.735,-0.689 -1.203,-0.689 -0.463,0 -0.857,0.229 -1.19,0.689 -0.332,0.457 -0.497,1.129 -0.497,2.013z"/>
  <polygon id="_2" fill="white" fill-rule="nonzero" points="92.382,336.95 92.382,324.824 94.215,324.824 94.215,336.95 "/>
  <path id="_3" fill="white" fill-rule="nonzero" d="M96.08 326.975l0 -2.151 1.834 0 0 2.151 -1.834 0zm0 9.975l0 -8.789 1.834 0 0 8.789 -1.834 0z"/>
  <path id="_4" fill="white" fill-rule="nonzero" d="M99.633 328.161l1.704 0 0 1.199c0.3,-0.468 0.63,-0.821 0.989,-1.053 0.36,-0.234 0.749,-0.35 1.166,-0.35 0.443,0 0.827,0.116 1.151,0.348 0.325,0.231 0.593,0.581 0.798,1.05 0.306,-0.469 0.636,-0.819 0.984,-1.05 0.352,-0.232 0.725,-0.348 1.122,-0.348 0.471,0 0.876,0.119 1.217,0.353 0.341,0.235 0.598,0.57 0.776,1.005 0.176,0.438 0.265,1.107 0.265,2.013l0 5.622 -1.833 0 0 -5.027c0,-0.878 -0.076,-1.462 -0.225,-1.753 -0.148,-0.29 -0.397,-0.434 -0.749,-0.434 -0.408,0 -0.738,0.203 -0.986,0.609 -0.252,0.404 -0.376,1.2 -0.376,2.38l0 4.225 -1.834 0 0 -4.821c0,-0.954 -0.051,-1.572 -0.151,-1.846 -0.13,-0.364 -0.397,-0.547 -0.798,-0.547 -0.27,0 -0.519,0.093 -0.746,0.282 -0.227,0.186 -0.389,0.463 -0.489,0.824 -0.1,0.361 -0.151,0.974 -0.151,1.835l0 4.273 -1.834 0 0 -8.789z"/>
  <path id="_5" fill="white" fill-rule="nonzero" d="M111.168 332.431c0,-0.861 0.165,-1.645 0.492,-2.354 0.327,-0.705 0.754,-1.236 1.281,-1.589 0.53,-0.353 1.122,-0.531 1.785,-0.531 1.108,0 1.979,0.455 2.612,1.364 0.635,0.909 0.952,1.97 0.952,3.184 0,0.906 -0.165,1.724 -0.495,2.453 -0.33,0.728 -0.763,1.278 -1.301,1.645 -0.535,0.367 -1.122,0.551 -1.76,0.551 -1.025,0 -1.876,-0.41 -2.552,-1.225 -0.676,-0.819 -1.014,-1.985 -1.014,-3.498zm1.865 0.125c0,0.889 0.168,1.56 0.5,2.018 0.336,0.454 0.739,0.683 1.212,0.683 0.462,0 0.857,-0.229 1.187,-0.689 0.327,-0.457 0.492,-1.135 0.492,-2.029 0,-0.873 -0.168,-1.539 -0.5,-1.996 -0.336,-0.46 -0.736,-0.689 -1.204,-0.689 -0.462,0 -0.857,0.229 -1.189,0.689 -0.333,0.457 -0.498,1.129 -0.498,2.013z"/>
  <path id="_6" fill="white" fill-rule="nonzero" d="M121.485 336.95l-1.833 0 0 -8.789 1.703 0 0 1.247c0.293,-0.584 0.552,-0.971 0.782,-1.163 0.23,-0.192 0.495,-0.288 0.795,-0.288 0.419,0 0.816,0.147 1.198,0.438l-0.571 2.027c-0.303,-0.254 -0.587,-0.381 -0.857,-0.381 -0.254,0 -0.479,0.098 -0.673,0.293 -0.192,0.198 -0.333,0.551 -0.417,1.064 -0.083,0.514 -0.127,1.46 -0.127,2.834l0 2.718z"/>
  <path id="_7" fill="white" fill-rule="nonzero" d="M124.143 328.161l1.022 0 0 -0.661c0,-0.796 0.073,-1.374 0.216,-1.733 0.147,-0.356 0.382,-0.638 0.703,-0.841 0.325,-0.203 0.725,-0.305 1.198,-0.305 0.517,0 1.022,0.099 1.517,0.296l-0.238 1.615c-0.292,-0.088 -0.57,-0.133 -0.835,-0.133 -0.257,0 -0.441,0.076 -0.555,0.232 -0.116,0.155 -0.173,0.457 -0.173,0.909l0 0.621 1.363 0 0 1.829 -1.363 0 0 6.96 -1.833 0 0 -6.96 -1.022 0 0 -1.829zm5.127 -1.186l0 -2.151 1.833 0 0 2.151 -1.833 0zm0 9.975l0 -8.789 1.833 0 0 8.789 -1.833 0z"/>
  <path id="_8" fill="white" fill-rule="nonzero" d="M132.4 334.447l1.833 -0.359c0.157,0.926 0.649,1.389 1.471,1.389 0.436,0 0.763,-0.088 0.979,-0.265 0.217,-0.178 0.325,-0.407 0.325,-0.692 0,-0.192 -0.049,-0.344 -0.146,-0.454 -0.103,-0.113 -0.3,-0.209 -0.595,-0.291 -1.501,-0.412 -2.455,-0.807 -2.864,-1.183 -0.505,-0.471 -0.759,-1.115 -0.759,-1.933 0,-0.816 0.249,-1.471 0.746,-1.965 0.498,-0.491 1.22,-0.737 2.168,-0.737 0.903,0 1.593,0.184 2.063,0.554 0.471,0.367 0.803,0.962 0.993,1.781l-1.72 0.409c-0.154,-0.711 -0.587,-1.067 -1.3,-1.067 -0.452,0 -0.771,0.068 -0.96,0.206 -0.192,0.135 -0.287,0.313 -0.287,0.531 0,0.197 0.087,0.358 0.257,0.488 0.17,0.133 0.711,0.33 1.62,0.593 1.022,0.293 1.714,0.652 2.079,1.078 0.359,0.424 0.538,0.991 0.538,1.696 0,0.847 -0.279,1.55 -0.836,2.101 -0.557,0.55 -1.324,0.827 -2.306,0.827 -0.889,0 -1.62,-0.232 -2.182,-0.692 -0.565,-0.46 -0.938,-1.132 -1.117,-2.015z"/>
  <path id="_9" fill="white" fill-rule="nonzero" d="M140.285 328.161l1.703 0 0 1.199c0.3,-0.468 0.63,-0.821 0.99,-1.053 0.359,-0.234 0.749,-0.35 1.165,-0.35 0.443,0 0.827,0.116 1.152,0.348 0.324,0.231 0.592,0.581 0.797,1.05 0.306,-0.469 0.636,-0.819 0.985,-1.05 0.351,-0.232 0.724,-0.348 1.122,-0.348 0.47,0 0.876,0.119 1.216,0.353 0.341,0.235 0.598,0.57 0.776,1.005 0.176,0.438 0.265,1.107 0.265,2.013l0 5.622 -1.833 0 0 -5.027c0,-0.878 -0.076,-1.462 -0.224,-1.753 -0.149,-0.29 -0.398,-0.434 -0.749,-0.434 -0.408,0 -0.738,0.203 -0.987,0.609 -0.252,0.404 -0.376,1.2 -0.376,2.38l0 4.225 -1.833 0 0 -4.821c0,-0.954 -0.051,-1.572 -0.151,-1.846 -0.13,-0.364 -0.398,-0.547 -0.798,-0.547 -0.27,0 -0.519,0.093 -0.746,0.282 -0.227,0.186 -0.39,0.463 -0.49,0.824 -0.1,0.361 -0.151,0.974 -0.151,1.835l0 4.273 -1.833 0 0 -8.789z"/>
  <path id="_10" fill="white" fill-rule="nonzero" d="M151.819 332.431c0,-0.861 0.165,-1.645 0.492,-2.354 0.327,-0.705 0.755,-1.236 1.282,-1.589 0.53,-0.353 1.122,-0.531 1.784,-0.531 1.109,0 1.98,0.455 2.612,1.364 0.635,0.909 0.952,1.97 0.952,3.184 0,0.906 -0.165,1.724 -0.495,2.453 -0.33,0.728 -0.762,1.278 -1.3,1.645 -0.536,0.367 -1.122,0.551 -1.761,0.551 -1.024,0 -1.876,-0.41 -2.552,-1.225 -0.676,-0.819 -1.014,-1.985 -1.014,-3.498zm1.866 0.125c0,0.889 0.167,1.56 0.5,2.018 0.335,0.454 0.738,0.683 1.211,0.683 0.463,0 0.857,-0.229 1.187,-0.689 0.327,-0.457 0.492,-1.135 0.492,-2.029 0,-0.873 -0.167,-1.539 -0.5,-1.996 -0.335,-0.46 -0.735,-0.689 -1.203,-0.689 -0.463,0 -0.857,0.229 -1.19,0.689 -0.332,0.457 -0.497,1.129 -0.497,2.013z"/>
  <polygon fill="white" fill-rule="nonzero" points="228.097,335.282 228.097,323.156 235.153,323.156 235.153,325.205 230.011,325.205 230.011,327.881 234.797,327.881 234.797,329.93 230.011,329.93 230.011,333.233 235.332,333.233 235.332,335.282 "/>
  <path id="_1_0" fill="white" fill-rule="nonzero" d="M243.214 335.282l-1.834 0 0 -4.491c0,-0.897 -0.035,-1.499 -0.102,-1.795 -0.068,-0.299 -0.198,-0.528 -0.384,-0.689 -0.187,-0.161 -0.401,-0.24 -0.638,-0.24 -0.306,0 -0.582,0.105 -0.831,0.311 -0.248,0.206 -0.421,0.494 -0.521,0.858 -0.1,0.364 -0.152,1.05 -0.152,2.061l0 3.985 -1.833 0 0 -8.79 1.704 0 0 1.285c0.299,-0.494 0.64,-0.867 1.016,-1.115 0.379,-0.249 0.795,-0.373 1.255,-0.373 0.532,0 0.984,0.144 1.349,0.435 0.368,0.291 0.622,0.663 0.76,1.118 0.14,0.454 0.211,1.115 0.211,1.975l0 5.465z"/>
  <path id="_2_1" fill="white" fill-rule="nonzero" d="M251.098 329.1l-1.801 0.407c-0.132,-0.926 -0.549,-1.389 -1.252,-1.389 -0.451,0 -0.816,0.198 -1.092,0.596 -0.276,0.398 -0.414,1.07 -0.414,2.015 0,1.045 0.138,1.781 0.414,2.213 0.273,0.432 0.641,0.647 1.1,0.647 0.344,0 0.627,-0.125 0.849,-0.37 0.222,-0.246 0.382,-0.683 0.476,-1.307l1.801 0.389c-0.371,2.123 -1.433,3.184 -3.191,3.184 -1.122,0 -1.955,-0.449 -2.498,-1.343 -0.544,-0.895 -0.817,-1.97 -0.817,-3.229 0,-1.508 0.309,-2.657 0.925,-3.444 0.617,-0.788 1.422,-1.18 2.423,-1.18 0.808,0 1.468,0.226 1.979,0.675 0.508,0.449 0.876,1.16 1.098,2.136z"/>
  <path id="_3_2" fill="white" fill-rule="nonzero" d="M253.856 329.168l-1.655 -0.355c0.2,-0.898 0.53,-1.542 0.992,-1.934 0.46,-0.392 1.122,-0.59 1.987,-0.59 0.771,0 1.358,0.113 1.764,0.339 0.405,0.226 0.694,0.533 0.87,0.923 0.173,0.389 0.26,1.098 0.26,2.125l-0.017 2.716c0,0.762 0.03,1.329 0.087,1.702 0.057,0.372 0.162,0.768 0.319,1.188l-1.801 0 -0.238 -0.96c-0.311,0.387 -0.646,0.678 -1.003,0.873 -0.357,0.194 -0.735,0.29 -1.138,0.29 -0.671,0 -1.222,-0.237 -1.649,-0.708 -0.43,-0.474 -0.644,-1.101 -0.644,-1.886 0,-0.499 0.087,-0.931 0.262,-1.304 0.176,-0.369 0.422,-0.666 0.738,-0.886 0.319,-0.22 0.828,-0.418 1.528,-0.587 0.846,-0.206 1.438,-0.395 1.771,-0.573 0,-0.486 -0.032,-0.805 -0.1,-0.957 -0.065,-0.15 -0.187,-0.274 -0.362,-0.373 -0.176,-0.096 -0.425,-0.144 -0.747,-0.144 -0.327,0 -0.584,0.077 -0.77,0.232 -0.187,0.155 -0.338,0.443 -0.454,0.869zm2.433 1.88c-0.232,0.099 -0.597,0.218 -1.09,0.35 -0.567,0.155 -0.938,0.328 -1.114,0.514 -0.175,0.189 -0.262,0.435 -0.262,0.734 0,0.336 0.098,0.621 0.289,0.852 0.195,0.229 0.439,0.344 0.73,0.344 0.26,0 0.517,-0.093 0.771,-0.279 0.254,-0.186 0.43,-0.406 0.53,-0.66 0.097,-0.255 0.146,-0.717 0.146,-1.389l0 -0.466z"/>
  <path id="_4_3" fill="white" fill-rule="nonzero" d="M259.826 326.492l1.703 0 0 1.29c0.233,-0.463 0.538,-0.827 0.919,-1.095 0.379,-0.265 0.79,-0.398 1.228,-0.398 0.787,0 1.463,0.392 2.03,1.177 0.568,0.785 0.852,1.897 0.852,3.339 0,1.513 -0.284,2.671 -0.854,3.475 -0.571,0.805 -1.249,1.205 -2.034,1.205 -0.365,0 -0.702,-0.093 -1.019,-0.276 -0.313,-0.187 -0.643,-0.52 -0.992,-1.005l0 4.415 -1.833 0 0 -12.127zm1.809 4.243c0,0.993 0.154,1.727 0.462,2.199 0.308,0.471 0.681,0.705 1.119,0.705 0.414,0 0.765,-0.217 1.049,-0.652 0.284,-0.434 0.428,-1.143 0.428,-2.128 0,-0.937 -0.147,-1.626 -0.438,-2.072 -0.293,-0.446 -0.649,-0.669 -1.071,-0.669 -0.444,0 -0.811,0.217 -1.106,0.652 -0.295,0.435 -0.443,1.09 -0.443,1.965z"/>
  <path id="_5_4" fill="white" fill-rule="nonzero" d="M267.369 332.779l1.833 -0.359c0.157,0.926 0.649,1.389 1.471,1.389 0.435,0 0.763,-0.088 0.979,-0.266 0.216,-0.177 0.324,-0.406 0.324,-0.691 0,-0.192 -0.048,-0.345 -0.145,-0.455 -0.103,-0.113 -0.301,-0.209 -0.595,-0.29 -1.501,-0.412 -2.455,-0.808 -2.864,-1.183 -0.505,-0.471 -0.759,-1.115 -0.759,-1.934 0,-0.815 0.248,-1.47 0.746,-1.964 0.497,-0.491 1.219,-0.737 2.168,-0.737 0.903,0 1.593,0.184 2.063,0.553 0.471,0.367 0.803,0.963 0.993,1.781l-1.72 0.41c-0.154,-0.712 -0.587,-1.067 -1.301,-1.067 -0.451,0 -0.77,0.067 -0.96,0.206 -0.191,0.135 -0.286,0.313 -0.286,0.53 0,0.198 0.086,0.359 0.257,0.489 0.17,0.133 0.711,0.33 1.619,0.593 1.022,0.293 1.715,0.652 2.08,1.078 0.359,0.423 0.538,0.991 0.538,1.696 0,0.847 -0.279,1.55 -0.836,2.1 -0.557,0.551 -1.325,0.827 -2.306,0.827 -0.89,0 -1.62,-0.231 -2.182,-0.691 -0.565,-0.46 -0.938,-1.132 -1.117,-2.015z"/>
  <path id="_6_5" fill="white" fill-rule="nonzero" d="M279.942 335.282l0 -1.318c-0.254,0.477 -0.587,0.85 -0.998,1.118 -0.411,0.268 -0.841,0.403 -1.289,0.403 -0.455,0 -0.86,-0.124 -1.22,-0.372 -0.359,-0.249 -0.627,-0.601 -0.803,-1.062 -0.176,-0.457 -0.265,-1.123 -0.265,-1.995l0 -5.564 1.833 0 0 4.037c0,1.154 0.027,1.885 0.084,2.199 0.054,0.31 0.176,0.553 0.365,0.722 0.189,0.172 0.419,0.257 0.687,0.257 0.305,0 0.587,-0.113 0.846,-0.336 0.257,-0.223 0.427,-0.511 0.508,-0.861 0.082,-0.35 0.122,-1.12 0.122,-2.312l0 -3.706 1.833 0 0 8.79 -1.703 0z"/>
  <polygon id="_7_6" fill="white" fill-rule="nonzero" points="283.527,335.282 283.527,323.156 285.36,323.156 285.36,335.282 "/>
  <path id="_8_7" fill="white" fill-rule="nonzero" d="M288.605 329.168l-1.655 -0.355c0.2,-0.898 0.53,-1.542 0.992,-1.934 0.46,-0.392 1.122,-0.59 1.988,-0.59 0.77,0 1.357,0.113 1.763,0.339 0.405,0.226 0.694,0.533 0.87,0.923 0.173,0.389 0.26,1.098 0.26,2.125l-0.016 2.716c0,0.762 0.029,1.329 0.086,1.702 0.057,0.372 0.162,0.768 0.319,1.188l-1.801 0 -0.238 -0.96c-0.31,0.387 -0.646,0.678 -1.003,0.873 -0.356,0.194 -0.735,0.29 -1.138,0.29 -0.671,0 -1.222,-0.237 -1.649,-0.708 -0.43,-0.474 -0.644,-1.101 -0.644,-1.886 0,-0.499 0.087,-0.931 0.263,-1.304 0.175,-0.369 0.421,-0.666 0.738,-0.886 0.319,-0.22 0.827,-0.418 1.527,-0.587 0.847,-0.206 1.439,-0.395 1.771,-0.573 0,-0.486 -0.032,-0.805 -0.1,-0.957 -0.065,-0.15 -0.186,-0.274 -0.362,-0.373 -0.176,-0.096 -0.425,-0.144 -0.746,-0.144 -0.328,0 -0.584,0.077 -0.771,0.232 -0.186,0.155 -0.338,0.443 -0.454,0.869zm2.433 1.88c-0.232,0.099 -0.597,0.218 -1.089,0.35 -0.568,0.155 -0.939,0.328 -1.114,0.514 -0.176,0.189 -0.262,0.435 -0.262,0.734 0,0.336 0.097,0.621 0.289,0.852 0.194,0.229 0.438,0.344 0.73,0.344 0.259,0 0.516,-0.093 0.77,-0.279 0.255,-0.186 0.43,-0.406 0.53,-0.66 0.098,-0.255 0.146,-0.717 0.146,-1.389l0 -0.466z"/>
  <path id="_9_8" fill="white" fill-rule="nonzero" d="M294.478 326.492l1.703 0 0 1.2c0.3,-0.469 0.63,-0.821 0.99,-1.053 0.359,-0.234 0.749,-0.35 1.165,-0.35 0.443,0 0.827,0.116 1.152,0.347 0.324,0.232 0.592,0.582 0.797,1.05 0.306,-0.468 0.636,-0.818 0.985,-1.05 0.351,-0.231 0.724,-0.347 1.122,-0.347 0.47,0 0.876,0.119 1.216,0.353 0.341,0.234 0.598,0.57 0.776,1.005 0.176,0.437 0.265,1.106 0.265,2.012l0 5.623 -1.833 0 0 -5.027c0,-0.878 -0.076,-1.462 -0.224,-1.753 -0.149,-0.291 -0.398,-0.435 -0.749,-0.435 -0.409,0 -0.738,0.204 -0.987,0.61 -0.252,0.404 -0.376,1.2 -0.376,2.38l0 4.225 -1.833 0 0 -4.821c0,-0.954 -0.051,-1.572 -0.152,-1.846 -0.129,-0.364 -0.397,-0.548 -0.797,-0.548 -0.271,0 -0.519,0.094 -0.747,0.283 -0.227,0.186 -0.389,0.463 -0.489,0.824 -0.1,0.361 -0.151,0.974 -0.151,1.835l0 4.273 -1.833 0 0 -8.79z"/>
  <path id="_10_9" fill="white" fill-rule="nonzero" d="M306.45 325.307l0 -2.151 1.833 0 0 2.151 -1.833 0zm0 9.975l0 -8.79 1.833 0 0 8.79 -1.833 0z"/>
  <path id="_11" fill="white" fill-rule="nonzero" d="M314.156 332.488l1.817 0.389c-0.244,0.884 -0.622,1.539 -1.136,1.968 -0.514,0.426 -1.138,0.64 -1.874,0.64 -1.022,0 -1.808,-0.355 -2.366,-1.069 -0.656,-0.827 -0.984,-1.988 -0.984,-3.478 0,-1.471 0.33,-2.648 0.99,-3.531 0.56,-0.745 1.284,-1.118 2.171,-1.118 0.987,0 1.76,0.381 2.32,1.143 0.646,0.872 0.968,2.16 0.968,3.859l-0.008 0.265 -4.575 0c0.011,0.695 0.16,1.234 0.452,1.615 0.289,0.381 0.638,0.57 1.046,0.57 0.589,0 0.981,-0.418 1.179,-1.253zm0.097 -2.354c-0.016,-0.686 -0.157,-1.203 -0.422,-1.547 -0.265,-0.347 -0.578,-0.52 -0.946,-0.52 -0.387,0 -0.711,0.181 -0.976,0.54 -0.27,0.364 -0.403,0.874 -0.398,1.527l2.742 0z"/>
  <path id="_12" fill="white" fill-rule="nonzero" d="M323.808 335.282l-1.833 0 0 -4.491c0,-0.897 -0.035,-1.499 -0.103,-1.795 -0.067,-0.299 -0.197,-0.528 -0.383,-0.689 -0.187,-0.161 -0.4,-0.24 -0.638,-0.24 -0.306,0 -0.582,0.105 -0.83,0.311 -0.249,0.206 -0.422,0.494 -0.522,0.858 -0.1,0.364 -0.152,1.05 -0.152,2.061l0 3.985 -1.833 0 0 -8.79 1.704 0 0 1.285c0.3,-0.494 0.64,-0.867 1.016,-1.115 0.379,-0.249 0.795,-0.373 1.255,-0.373 0.532,0 0.984,0.144 1.349,0.435 0.368,0.291 0.622,0.663 0.759,1.118 0.141,0.454 0.211,1.115 0.211,1.975l0 5.465z"/>
  <path id="_13" fill="white" fill-rule="nonzero" d="M328.837 326.492l0 1.846 -1.249 0 0 3.548c0,0.771 0.019,1.214 0.057,1.336 0.073,0.222 0.224,0.333 0.451,0.333 0.168,0 0.411,-0.074 0.728,-0.223l0.159 1.806c-0.421,0.232 -0.9,0.347 -1.435,0.347 -0.465,0 -0.839,-0.115 -1.12,-0.347 -0.278,-0.234 -0.468,-0.567 -0.562,-1.005 -0.073,-0.319 -0.111,-0.971 -0.111,-1.956l0 -3.839 -0.843 0 0 -1.846 0.843 0 0 -1.744 1.833 -1.355 0 3.099 1.249 0z"/>
  <path id="_14" fill="white" fill-rule="nonzero" d="M329.665 330.763c0,-0.861 0.165,-1.646 0.492,-2.354 0.327,-0.706 0.754,-1.236 1.281,-1.589 0.53,-0.353 1.122,-0.531 1.785,-0.531 1.108,0 1.979,0.454 2.612,1.363 0.635,0.909 0.951,1.971 0.951,3.184 0,0.906 -0.165,1.725 -0.494,2.453 -0.33,0.729 -0.763,1.279 -1.301,1.646 -0.535,0.367 -1.122,0.55 -1.76,0.55 -1.025,0 -1.876,-0.409 -2.552,-1.225 -0.676,-0.818 -1.014,-1.984 -1.014,-3.497zm1.865 0.124c0,0.889 0.168,1.561 0.5,2.018 0.336,0.455 0.739,0.684 1.212,0.684 0.462,0 0.857,-0.229 1.187,-0.689 0.327,-0.457 0.492,-1.135 0.492,-2.03 0,-0.872 -0.168,-1.538 -0.5,-1.995 -0.336,-0.46 -0.736,-0.689 -1.203,-0.689 -0.463,0 -0.858,0.229 -1.19,0.689 -0.333,0.457 -0.498,1.129 -0.498,2.012z"/>
  <polygon fill="white" fill-rule="nonzero" points="23.191,173.778 23.191,161.651 26.059,161.651 27.79,169.939 29.499,161.651 32.389,161.651 32.389,173.778 30.605,173.778 30.605,164.215 28.709,173.778 26.873,173.778 24.975,164.215 24.975,173.778 "/>
  <path id="_1_10" fill="white" fill-rule="nonzero" d="M33.852 169.259c0,-0.861 0.165,-1.646 0.492,-2.354 0.327,-0.706 0.754,-1.237 1.281,-1.59 0.53,-0.352 1.123,-0.53 1.785,-0.53 1.109,0 1.979,0.454 2.612,1.363 0.635,0.909 0.951,1.97 0.951,3.184 0,0.906 -0.164,1.725 -0.494,2.453 -0.33,0.728 -0.763,1.279 -1.301,1.645 -0.535,0.367 -1.122,0.551 -1.76,0.551 -1.025,0 -1.876,-0.409 -2.552,-1.225 -0.676,-0.819 -1.014,-1.984 -1.014,-3.497zm1.865 0.124c0,0.889 0.168,1.561 0.501,2.018 0.335,0.454 0.738,0.683 1.211,0.683 0.462,0 0.857,-0.229 1.187,-0.689 0.327,-0.457 0.492,-1.134 0.492,-2.029 0,-0.872 -0.168,-1.539 -0.5,-1.996 -0.336,-0.46 -0.736,-0.689 -1.203,-0.689 -0.463,0 -0.858,0.229 -1.19,0.689 -0.333,0.457 -0.498,1.129 -0.498,2.013z"/>
  <path id="_2_11" fill="white" fill-rule="nonzero" d="M48.744 173.778l-1.703 0 0 -1.29c-0.279,0.496 -0.609,0.869 -0.99,1.118 -0.378,0.251 -0.767,0.375 -1.168,0.375 -0.77,0 -1.441,-0.401 -2.014,-1.205 -0.571,-0.805 -0.857,-1.951 -0.857,-3.444 0,-1.502 0.278,-2.636 0.838,-3.401 0.557,-0.765 1.246,-1.146 2.063,-1.146 0.384,0 0.743,0.101 1.079,0.304 0.332,0.207 0.64,0.511 0.919,0.921l0 -4.359 1.833 0 0 12.127zm-4.867 -4.581c0,0.796 0.065,1.388 0.195,1.781 0.127,0.389 0.311,0.683 0.552,0.88 0.24,0.195 0.511,0.294 0.811,0.294 0.4,0 0.746,-0.226 1.041,-0.681 0.295,-0.454 0.443,-1.137 0.443,-2.052 0,-1.013 -0.143,-1.741 -0.43,-2.187 -0.286,-0.446 -0.651,-0.669 -1.095,-0.669 -0.422,0 -0.778,0.217 -1.073,0.655 -0.295,0.437 -0.444,1.098 -0.444,1.979z"/>
  <path id="_3_12" fill="white" fill-rule="nonzero" d="M55.087 173.778l0 -1.318c-0.254,0.477 -0.587,0.849 -0.997,1.117 -0.411,0.268 -0.841,0.404 -1.29,0.404 -0.454,0 -0.86,-0.124 -1.219,-0.373 -0.36,-0.248 -0.628,-0.601 -0.803,-1.061 -0.176,-0.457 -0.265,-1.123 -0.265,-1.996l0 -5.563 1.833 0 0 4.036c0,1.155 0.027,1.886 0.084,2.199 0.054,0.311 0.175,0.553 0.364,0.723 0.19,0.172 0.42,0.257 0.687,0.257 0.306,0 0.587,-0.113 0.847,-0.336 0.256,-0.223 0.427,-0.511 0.508,-0.861 0.081,-0.35 0.122,-1.121 0.122,-2.312l0 -3.706 1.833 0 0 8.79 -1.704 0z"/>
  <polygon id="_4_13" fill="white" fill-rule="nonzero" points="58.672,173.778 58.672,161.651 60.506,161.651 60.506,173.778 "/>
  <path id="_5_14" fill="white" fill-rule="nonzero" d="M63.75 167.664l-1.655 -0.356c0.2,-0.897 0.53,-1.541 0.993,-1.933 0.459,-0.393 1.122,-0.59 1.987,-0.59 0.771,0 1.357,0.113 1.763,0.338 0.406,0.226 0.695,0.534 0.871,0.923 0.173,0.39 0.259,1.098 0.259,2.126l-0.016 2.715c0,0.762 0.03,1.33 0.087,1.702 0.056,0.373 0.162,0.768 0.318,1.189l-1.8 0 -0.238 -0.96c-0.311,0.387 -0.646,0.678 -1.003,0.872 -0.357,0.195 -0.736,0.291 -1.138,0.291 -0.671,0 -1.223,-0.237 -1.65,-0.709 -0.43,-0.474 -0.643,-1.1 -0.643,-1.885 0,-0.5 0.086,-0.932 0.262,-1.304 0.176,-0.37 0.422,-0.666 0.738,-0.886 0.319,-0.221 0.827,-0.418 1.528,-0.588 0.846,-0.206 1.438,-0.395 1.771,-0.573 0,-0.485 -0.033,-0.804 -0.1,-0.957 -0.065,-0.149 -0.187,-0.273 -0.363,-0.372 -0.175,-0.096 -0.424,-0.144 -0.746,-0.144 -0.327,0 -0.584,0.076 -0.771,0.231 -0.186,0.156 -0.338,0.444 -0.454,0.87zm2.434 1.88c-0.233,0.099 -0.598,0.217 -1.09,0.35 -0.568,0.155 -0.938,0.327 -1.114,0.514 -0.176,0.188 -0.262,0.434 -0.262,0.733 0,0.336 0.097,0.621 0.289,0.853 0.195,0.228 0.438,0.344 0.73,0.344 0.26,0 0.517,-0.093 0.771,-0.279 0.254,-0.187 0.43,-0.407 0.53,-0.661 0.097,-0.254 0.146,-0.717 0.146,-1.388l0 -0.466z"/>
  <path id="_6_15" fill="white" fill-rule="nonzero" d="M71.521 173.778l-1.833 0 0 -8.79 1.703 0 0 1.247c0.292,-0.584 0.552,-0.97 0.782,-1.162 0.229,-0.192 0.494,-0.288 0.795,-0.288 0.419,0 0.816,0.147 1.197,0.437l-0.57 2.027c-0.303,-0.254 -0.587,-0.381 -0.857,-0.381 -0.254,0 -0.479,0.099 -0.674,0.293 -0.191,0.198 -0.332,0.551 -0.416,1.064 -0.084,0.514 -0.127,1.46 -0.127,2.834l0 2.719z"/>
  <path id="_7_16" fill="white" fill-rule="nonzero" d="M74.941 163.802l0 -2.151 1.833 0 0 2.151 -1.833 0zm0 9.976l0 -8.79 1.833 0 0 8.79 -1.833 0z"/>
  <path id="_8_17" fill="white" fill-rule="nonzero" d="M84.967 173.778l-1.703 0 0 -1.29c-0.279,0.496 -0.609,0.869 -0.99,1.118 -0.378,0.251 -0.768,0.375 -1.168,0.375 -0.771,0 -1.441,-0.401 -2.014,-1.205 -0.571,-0.805 -0.858,-1.951 -0.858,-3.444 0,-1.502 0.279,-2.636 0.839,-3.401 0.557,-0.765 1.246,-1.146 2.063,-1.146 0.384,0 0.743,0.101 1.078,0.304 0.333,0.207 0.641,0.511 0.92,0.921l0 -4.359 1.833 0 0 12.127zm-4.867 -4.581c0,0.796 0.065,1.388 0.195,1.781 0.127,0.389 0.311,0.683 0.551,0.88 0.241,0.195 0.511,0.294 0.812,0.294 0.4,0 0.746,-0.226 1.041,-0.681 0.294,-0.454 0.443,-1.137 0.443,-2.052 0,-1.013 -0.143,-1.741 -0.43,-2.187 -0.287,-0.446 -0.652,-0.669 -1.095,-0.669 -0.422,0 -0.779,0.217 -1.073,0.655 -0.295,0.437 -0.444,1.098 -0.444,1.979z"/>
  <path id="_9_18" fill="white" fill-rule="nonzero" d="M88.147 167.664l-1.655 -0.356c0.2,-0.897 0.53,-1.541 0.992,-1.933 0.46,-0.393 1.122,-0.59 1.987,-0.59 0.771,0 1.358,0.113 1.763,0.338 0.406,0.226 0.695,0.534 0.871,0.923 0.173,0.39 0.26,1.098 0.26,2.126l-0.017 2.715c0,0.762 0.03,1.33 0.087,1.702 0.057,0.373 0.162,0.768 0.319,1.189l-1.801 0 -0.238 -0.96c-0.311,0.387 -0.646,0.678 -1.003,0.872 -0.357,0.195 -0.735,0.291 -1.138,0.291 -0.671,0 -1.222,-0.237 -1.65,-0.709 -0.429,-0.474 -0.643,-1.1 -0.643,-1.885 0,-0.5 0.086,-0.932 0.262,-1.304 0.176,-0.37 0.422,-0.666 0.738,-0.886 0.319,-0.221 0.828,-0.418 1.528,-0.588 0.846,-0.206 1.438,-0.395 1.771,-0.573 0,-0.485 -0.032,-0.804 -0.1,-0.957 -0.065,-0.149 -0.187,-0.273 -0.362,-0.372 -0.176,-0.096 -0.425,-0.144 -0.747,-0.144 -0.327,0 -0.584,0.076 -0.77,0.231 -0.187,0.156 -0.338,0.444 -0.454,0.87zm2.433 1.88c-0.232,0.099 -0.598,0.217 -1.09,0.35 -0.567,0.155 -0.938,0.327 -1.114,0.514 -0.175,0.188 -0.262,0.434 -0.262,0.733 0,0.336 0.098,0.621 0.289,0.853 0.195,0.228 0.439,0.344 0.73,0.344 0.26,0 0.517,-0.093 0.771,-0.279 0.254,-0.187 0.43,-0.407 0.53,-0.661 0.097,-0.254 0.146,-0.717 0.146,-1.388l0 -0.466z"/>
  <path id="_10_19" fill="white" fill-rule="nonzero" d="M100.492 173.778l-1.703 0 0 -1.29c-0.279,0.496 -0.609,0.869 -0.99,1.118 -0.378,0.251 -0.768,0.375 -1.168,0.375 -0.771,0 -1.441,-0.401 -2.014,-1.205 -0.571,-0.805 -0.857,-1.951 -0.857,-3.444 0,-1.502 0.278,-2.636 0.838,-3.401 0.557,-0.765 1.246,-1.146 2.063,-1.146 0.384,0 0.743,0.101 1.079,0.304 0.332,0.207 0.64,0.511 0.919,0.921l0 -4.359 1.833 0 0 12.127zm-4.867 -4.581c0,0.796 0.065,1.388 0.195,1.781 0.127,0.389 0.311,0.683 0.552,0.88 0.24,0.195 0.511,0.294 0.811,0.294 0.4,0 0.746,-0.226 1.041,-0.681 0.294,-0.454 0.443,-1.137 0.443,-2.052 0,-1.013 -0.143,-1.741 -0.43,-2.187 -0.286,-0.446 -0.651,-0.669 -1.095,-0.669 -0.422,0 -0.779,0.217 -1.073,0.655 -0.295,0.437 -0.444,1.098 -0.444,1.979z"/>
  <polygon fill="white" fill-rule="nonzero" points="171.146,67.803 171.146,55.677 173.06,55.677 173.06,60.453 176.84,60.453 176.84,55.677 178.754,55.677 178.754,67.803 176.84,67.803 176.84,62.502 173.06,62.502 173.06,67.803 "/>
  <path id="_1_20" fill="white" fill-rule="nonzero" d="M184.738 65.009l1.817 0.389c-0.244,0.884 -0.622,1.539 -1.136,1.968 -0.514,0.426 -1.138,0.64 -1.874,0.64 -1.022,0 -1.809,-0.355 -2.366,-1.069 -0.656,-0.827 -0.984,-1.988 -0.984,-3.478 0,-1.471 0.33,-2.648 0.99,-3.531 0.56,-0.745 1.284,-1.118 2.171,-1.118 0.987,0 1.76,0.381 2.32,1.143 0.646,0.872 0.968,2.159 0.968,3.859l-0.008 0.265 -4.575 0c0.011,0.695 0.16,1.234 0.451,1.615 0.29,0.381 0.638,0.57 1.047,0.57 0.589,0 0.981,-0.418 1.179,-1.253zm0.097 -2.354c-0.016,-0.686 -0.157,-1.203 -0.422,-1.547 -0.265,-0.347 -0.578,-0.52 -0.946,-0.52 -0.387,0 -0.711,0.181 -0.976,0.54 -0.27,0.364 -0.403,0.874 -0.398,1.527l2.742 0z"/>
  <path id="_2_21" fill="white" fill-rule="nonzero" d="M189.88 67.803l-1.833 0 0 -8.79 1.704 0 0 1.248c0.291,-0.584 0.551,-0.971 0.781,-1.163 0.23,-0.192 0.495,-0.288 0.795,-0.288 0.419,0 0.816,0.147 1.198,0.438l-0.571 2.026c-0.303,-0.254 -0.587,-0.381 -0.857,-0.381 -0.254,0 -0.479,0.099 -0.673,0.294 -0.192,0.197 -0.333,0.55 -0.417,1.064 -0.083,0.514 -0.127,1.459 -0.127,2.834l0 2.718z"/>
  <path id="_3_22" fill="white" fill-rule="nonzero" d="M197.308 65.009l1.817 0.389c-0.244,0.884 -0.622,1.539 -1.136,1.968 -0.514,0.426 -1.138,0.64 -1.874,0.64 -1.022,0 -1.809,-0.355 -2.366,-1.069 -0.657,-0.827 -0.984,-1.988 -0.984,-3.478 0,-1.471 0.33,-2.648 0.99,-3.531 0.559,-0.745 1.284,-1.118 2.171,-1.118 0.987,0 1.76,0.381 2.32,1.143 0.646,0.872 0.968,2.159 0.968,3.859l-0.008 0.265 -4.575 0c0.011,0.695 0.159,1.234 0.451,1.615 0.29,0.381 0.638,0.57 1.047,0.57 0.589,0 0.981,-0.418 1.179,-1.253zm0.097 -2.354c-0.016,-0.686 -0.157,-1.203 -0.422,-1.547 -0.265,-0.347 -0.578,-0.52 -0.946,-0.52 -0.387,0 -0.711,0.181 -0.976,0.54 -0.271,0.364 -0.403,0.874 -0.398,1.527l2.742 0z"/>
  <path id="_4_23" fill="white" fill-rule="nonzero" d="M206.96 67.803l-1.833 0 0 -4.491c0,-0.897 -0.035,-1.499 -0.103,-1.795 -0.067,-0.299 -0.197,-0.528 -0.384,-0.689 -0.186,-0.161 -0.4,-0.24 -0.638,-0.24 -0.305,0 -0.581,0.105 -0.83,0.311 -0.248,0.206 -0.421,0.494 -0.522,0.858 -0.1,0.364 -0.151,1.05 -0.151,2.061l0 3.985 -1.833 0 0 -8.79 1.703 0 0 1.285c0.3,-0.494 0.641,-0.867 1.017,-1.115 0.378,-0.249 0.795,-0.373 1.254,-0.373 0.533,0 0.985,0.144 1.349,0.435 0.368,0.291 0.622,0.663 0.76,1.118 0.141,0.454 0.211,1.115 0.211,1.975l0 5.465z"/>
  <path id="_5_24" fill="white" fill-rule="nonzero" d="M214.844 61.621l-1.8 0.407c-0.133,-0.926 -0.549,-1.389 -1.252,-1.389 -0.452,0 -0.817,0.198 -1.092,0.596 -0.276,0.398 -0.414,1.07 -0.414,2.015 0,1.045 0.138,1.781 0.414,2.213 0.272,0.432 0.64,0.647 1.1,0.647 0.343,0 0.627,-0.125 0.849,-0.37 0.222,-0.246 0.381,-0.683 0.476,-1.307l1.8 0.389c-0.37,2.123 -1.432,3.184 -3.19,3.184 -1.122,0 -1.955,-0.449 -2.498,-1.343 -0.544,-0.895 -0.817,-1.97 -0.817,-3.229 0,-1.508 0.308,-2.657 0.925,-3.444 0.616,-0.788 1.422,-1.18 2.423,-1.18 0.808,0 1.468,0.226 1.979,0.675 0.508,0.449 0.876,1.16 1.097,2.136z"/>
  <path id="_6_25" fill="white" fill-rule="nonzero" d="M216.223 57.828l0 -2.151 1.834 0 0 2.151 -1.834 0zm0 9.975l0 -8.79 1.834 0 0 8.79 -1.834 0z"/>
  <path id="_7_26" fill="white" fill-rule="nonzero" d="M221.301 61.689l-1.655 -0.356c0.2,-0.897 0.53,-1.541 0.993,-1.933 0.459,-0.392 1.122,-0.59 1.987,-0.59 0.771,0 1.357,0.113 1.763,0.339 0.405,0.225 0.695,0.533 0.87,0.923 0.173,0.389 0.26,1.098 0.26,2.125l-0.016 2.716c0,0.762 0.03,1.329 0.086,1.702 0.057,0.372 0.163,0.768 0.319,1.188l-1.8 0 -0.238 -0.96c-0.311,0.387 -0.646,0.678 -1.003,0.873 -0.357,0.194 -0.736,0.29 -1.139,0.29 -0.67,0 -1.222,-0.237 -1.649,-0.708 -0.43,-0.474 -0.644,-1.101 -0.644,-1.886 0,-0.499 0.087,-0.931 0.263,-1.304 0.176,-0.37 0.422,-0.666 0.738,-0.886 0.319,-0.22 0.827,-0.418 1.527,-0.587 0.847,-0.206 1.439,-0.395 1.772,-0.573 0,-0.486 -0.033,-0.805 -0.1,-0.957 -0.065,-0.15 -0.187,-0.274 -0.363,-0.373 -0.176,-0.096 -0.424,-0.144 -0.746,-0.144 -0.327,0 -0.584,0.077 -0.771,0.232 -0.186,0.155 -0.338,0.443 -0.454,0.869zm2.434 1.88c-0.233,0.099 -0.598,0.218 -1.09,0.35 -0.568,0.155 -0.938,0.328 -1.114,0.514 -0.176,0.189 -0.262,0.434 -0.262,0.734 0,0.336 0.097,0.621 0.289,0.852 0.195,0.229 0.438,0.344 0.73,0.344 0.26,0 0.517,-0.093 0.77,-0.279 0.255,-0.186 0.43,-0.406 0.531,-0.66 0.097,-0.255 0.146,-0.717 0.146,-1.389l0 -0.466z"/>
  <path fill="white" fill-rule="nonzero" d="M307.349 173.879l-2.082 0 -0.813 -2.743 -3.829 0 -0.787 2.743 -2.044 0 3.702 -12.126 2.049 0 3.804 12.126zm-3.523 -4.792l-1.319 -4.503 -1.292 4.503 2.611 0z"/>
  <path id="_1_27" fill="white" fill-rule="nonzero" d="M308.271 173.879l0 -12.126 1.833 0 0 4.359c0.279,-0.41 0.587,-0.715 0.92,-0.921 0.335,-0.203 0.695,-0.305 1.079,-0.305 0.811,0 1.498,0.384 2.06,1.152 0.56,0.768 0.841,1.9 0.841,3.396 0,1.493 -0.287,2.639 -0.86,3.443 -0.573,0.805 -1.249,1.206 -2.022,1.206 -0.395,0 -0.785,-0.127 -1.168,-0.384 -0.384,-0.254 -0.711,-0.624 -0.979,-1.11l0 1.29 -1.704 0zm1.817 -4.581c0,0.757 0.071,1.335 0.209,1.733 0.135,0.401 0.332,0.703 0.583,0.912 0.255,0.206 0.522,0.311 0.801,0.311 0.403,0 0.743,-0.22 1.03,-0.661 0.284,-0.44 0.427,-1.135 0.427,-2.089 0,-1.002 -0.143,-1.724 -0.432,-2.17 -0.287,-0.446 -0.652,-0.669 -1.095,-0.669 -0.422,0 -0.782,0.214 -1.079,0.646 -0.295,0.432 -0.444,1.095 -0.444,1.987z"/>
  <path id="_2_28" fill="white" fill-rule="nonzero" d="M315.847 171.376l1.834 -0.359c0.156,0.926 0.648,1.389 1.47,1.389 0.436,0 0.763,-0.087 0.979,-0.265 0.216,-0.178 0.325,-0.407 0.325,-0.692 0,-0.192 -0.049,-0.344 -0.146,-0.454 -0.103,-0.113 -0.301,-0.209 -0.595,-0.291 -1.501,-0.412 -2.455,-0.807 -2.864,-1.183 -0.505,-0.471 -0.759,-1.115 -0.759,-1.933 0,-0.816 0.248,-1.471 0.746,-1.965 0.497,-0.491 1.219,-0.737 2.168,-0.737 0.904,0 1.593,0.184 2.063,0.554 0.471,0.367 0.803,0.962 0.993,1.781l-1.72 0.409c-0.154,-0.711 -0.587,-1.067 -1.3,-1.067 -0.452,0 -0.771,0.068 -0.96,0.206 -0.192,0.136 -0.287,0.313 -0.287,0.531 0,0.197 0.086,0.358 0.257,0.488 0.17,0.133 0.711,0.33 1.62,0.593 1.021,0.293 1.714,0.652 2.079,1.078 0.359,0.424 0.538,0.991 0.538,1.697 0,0.846 -0.279,1.549 -0.836,2.1 -0.557,0.55 -1.325,0.827 -2.306,0.827 -0.89,0 -1.62,-0.232 -2.182,-0.692 -0.565,-0.46 -0.938,-1.132 -1.117,-2.015z"/>
  <path id="_3_29" fill="white" fill-rule="nonzero" d="M327.041 165.09l0 1.846 -1.249 0 0 3.548c0,0.77 0.019,1.214 0.057,1.335 0.073,0.223 0.224,0.333 0.451,0.333 0.168,0 0.411,-0.073 0.728,-0.223l0.159 1.807c-0.422,0.231 -0.9,0.347 -1.435,0.347 -0.466,0 -0.839,-0.116 -1.12,-0.347 -0.278,-0.235 -0.468,-0.568 -0.562,-1.005 -0.073,-0.319 -0.111,-0.971 -0.111,-1.956l0 -3.839 -0.844 0 0 -1.846 0.844 0 0 -1.745 1.833 -1.355 0 3.1 1.249 0z"/>
  <path id="_4_30" fill="white" fill-rule="nonzero" d="M330.058 173.879l-1.833 0 0 -8.789 1.704 0 0 1.247c0.292,-0.584 0.551,-0.971 0.781,-1.163 0.23,-0.192 0.495,-0.288 0.795,-0.288 0.419,0 0.816,0.147 1.198,0.438l-0.571 2.027c-0.302,-0.254 -0.586,-0.381 -0.857,-0.381 -0.254,0 -0.478,0.098 -0.673,0.293 -0.192,0.198 -0.333,0.551 -0.417,1.064 -0.083,0.514 -0.127,1.46 -0.127,2.834l0 2.718z"/>
  <path id="_5_31" fill="white" fill-rule="nonzero" d="M334.858 167.766l-1.655 -0.356c0.2,-0.898 0.53,-1.541 0.992,-1.934 0.46,-0.392 1.122,-0.59 1.987,-0.59 0.771,0 1.358,0.113 1.763,0.339 0.406,0.226 0.695,0.534 0.871,0.923 0.173,0.39 0.26,1.098 0.26,2.126l-0.017 2.715c0,0.762 0.03,1.33 0.087,1.702 0.057,0.373 0.162,0.768 0.319,1.188l-1.801 0 -0.238 -0.959c-0.311,0.386 -0.646,0.677 -1.003,0.872 -0.357,0.195 -0.735,0.291 -1.138,0.291 -0.671,0 -1.222,-0.237 -1.649,-0.709 -0.43,-0.474 -0.644,-1.101 -0.644,-1.885 0,-0.5 0.086,-0.932 0.262,-1.304 0.176,-0.37 0.422,-0.667 0.738,-0.887 0.319,-0.22 0.828,-0.417 1.528,-0.587 0.846,-0.206 1.438,-0.395 1.771,-0.573 0,-0.485 -0.032,-0.804 -0.1,-0.957 -0.065,-0.149 -0.187,-0.273 -0.362,-0.372 -0.176,-0.096 -0.425,-0.144 -0.747,-0.144 -0.327,0 -0.584,0.076 -0.77,0.231 -0.187,0.155 -0.338,0.443 -0.454,0.87zm2.433 1.88c-0.232,0.098 -0.598,0.217 -1.09,0.35 -0.567,0.155 -0.938,0.327 -1.114,0.513 -0.175,0.189 -0.262,0.435 -0.262,0.734 0,0.336 0.098,0.621 0.289,0.853 0.195,0.228 0.438,0.344 0.73,0.344 0.26,0 0.517,-0.093 0.771,-0.28 0.254,-0.186 0.43,-0.406 0.53,-0.66 0.097,-0.254 0.146,-0.717 0.146,-1.389l0 -0.465z"/>
  <path id="_6_32" fill="white" fill-rule="nonzero" d="M346.895 167.698l-1.801 0.406c-0.132,-0.926 -0.549,-1.389 -1.252,-1.389 -0.451,0 -0.816,0.198 -1.092,0.596 -0.276,0.398 -0.414,1.07 -0.414,2.016 0,1.044 0.138,1.781 0.414,2.212 0.273,0.432 0.641,0.647 1.1,0.647 0.344,0 0.628,-0.124 0.849,-0.37 0.222,-0.245 0.382,-0.683 0.476,-1.307l1.801 0.39c-0.37,2.122 -1.433,3.184 -3.19,3.184 -1.122,0 -1.955,-0.449 -2.499,-1.344 -0.543,-0.895 -0.816,-1.97 -0.816,-3.229 0,-1.507 0.308,-2.656 0.924,-3.444 0.617,-0.787 1.423,-1.18 2.423,-1.18 0.809,0 1.468,0.226 1.979,0.675 0.509,0.449 0.876,1.16 1.098,2.137z"/>
  <path id="_7_33" fill="white" fill-rule="nonzero" d="M354.293 167.698l-1.801 0.406c-0.133,-0.926 -0.549,-1.389 -1.252,-1.389 -0.451,0 -0.817,0.198 -1.092,0.596 -0.276,0.398 -0.414,1.07 -0.414,2.016 0,1.044 0.138,1.781 0.414,2.212 0.273,0.432 0.641,0.647 1.1,0.647 0.344,0 0.627,-0.124 0.849,-0.37 0.222,-0.245 0.381,-0.683 0.476,-1.307l1.801 0.39c-0.371,2.122 -1.433,3.184 -3.191,3.184 -1.122,0 -1.955,-0.449 -2.498,-1.344 -0.544,-0.895 -0.817,-1.97 -0.817,-3.229 0,-1.507 0.309,-2.656 0.925,-3.444 0.616,-0.787 1.422,-1.18 2.423,-1.18 0.808,0 1.468,0.226 1.979,0.675 0.508,0.449 0.876,1.16 1.098,2.137z"/>
  <path id="_8_34" fill="white" fill-rule="nonzero" d="M355.671 163.904l0 -2.151 1.834 0 0 2.151 -1.834 0zm0 9.975l0 -8.789 1.834 0 0 8.789 -1.834 0z"/>
  <path id="_9_35" fill="white" fill-rule="nonzero" d="M358.932 169.36c0,-0.86 0.165,-1.645 0.493,-2.354 0.327,-0.705 0.754,-1.236 1.281,-1.589 0.53,-0.353 1.122,-0.531 1.785,-0.531 1.108,0 1.979,0.455 2.611,1.364 0.636,0.909 0.952,1.97 0.952,3.184 0,0.906 -0.165,1.724 -0.495,2.453 -0.329,0.728 -0.762,1.278 -1.3,1.645 -0.535,0.367 -1.122,0.551 -1.76,0.551 -1.025,0 -1.877,-0.41 -2.553,-1.225 -0.676,-0.819 -1.014,-1.985 -1.014,-3.498zm1.866 0.125c0,0.889 0.168,1.56 0.5,2.018 0.336,0.454 0.738,0.683 1.212,0.683 0.462,0 0.857,-0.229 1.187,-0.689 0.327,-0.457 0.492,-1.135 0.492,-2.029 0,-0.873 -0.168,-1.539 -0.501,-1.996 -0.335,-0.46 -0.735,-0.689 -1.203,-0.689 -0.462,0 -0.857,0.229 -1.189,0.689 -0.333,0.457 -0.498,1.129 -0.498,2.013zm0.763 -5.462l0.897 -2.473 2.055 0 -1.792 2.473 -1.16 0z"/>
  <path id="_10_36" fill="white" fill-rule="nonzero" d="M373.76 173.879l-1.833 0 0 -4.49c0,-0.898 -0.035,-1.499 -0.103,-1.796 -0.068,-0.299 -0.197,-0.527 -0.384,-0.688 -0.187,-0.161 -0.4,-0.24 -0.638,-0.24 -0.305,0 -0.581,0.104 -0.83,0.31 -0.249,0.206 -0.422,0.494 -0.522,0.858 -0.1,0.364 -0.151,1.05 -0.151,2.061l0 3.985 -1.833 0 0 -8.789 1.703 0 0 1.284c0.3,-0.494 0.641,-0.867 1.016,-1.115 0.379,-0.248 0.796,-0.373 1.255,-0.373 0.533,0 0.984,0.144 1.349,0.435 0.368,0.291 0.622,0.663 0.76,1.118 0.141,0.454 0.211,1.115 0.211,1.976l0 5.464z"/>
  <path fill="white" fill-rule="nonzero" d="M167.083 221.684l0 -24.685 6.925 0c2.581,0 4.271,0.12 5.065,0.356 1.266,0.379 2.308,1.195 3.132,2.442 0.824,1.241 1.236,2.85 1.236,4.815 0,1.781 -0.357,3.281 -1.066,4.488 -0.709,1.206 -1.6,2.051 -2.666,2.54 -1.066,0.488 -2.902,0.735 -5.507,0.735l-2.83 0 0 9.309 -4.289 0zm4.289 -20.514l0 7.033 2.393 0c1.6,0 2.697,-0.109 3.272,-0.321 0.576,-0.213 1.048,-0.598 1.418,-1.155 0.369,-0.563 0.551,-1.247 0.551,-2.057 0,-0.822 -0.188,-1.517 -0.569,-2.081 -0.382,-0.563 -0.855,-0.942 -1.412,-1.131 -0.557,-0.19 -1.739,-0.288 -3.551,-0.288l-2.102 0z"/>
  <path id="_1_37" fill="white" fill-rule="nonzero" d="M186.089 209.491c0,-2.937 0.46,-5.356 1.375,-7.258 0.915,-1.902 2.114,-3.321 3.593,-4.252 1.478,-0.931 3.271,-1.396 5.374,-1.396 3.053,0 5.537,1.103 7.458,3.315 1.92,2.213 2.883,5.356 2.883,9.441 0,4.126 -1.017,7.355 -3.053,9.677 -1.781,2.051 -4.211,3.08 -7.27,3.08 -3.09,0 -5.526,-1.017 -7.307,-3.046 -2.036,-2.321 -3.053,-5.51 -3.053,-9.561zm4.434 -0.167c0,2.833 0.57,4.959 1.703,6.372 1.139,1.42 2.551,2.126 4.229,2.126 1.696,0 3.102,-0.701 4.211,-2.108 1.114,-1.402 1.672,-3.563 1.672,-6.476 0,-2.85 -0.539,-4.965 -1.624,-6.327 -1.084,-1.367 -2.502,-2.051 -4.259,-2.051 -1.751,0 -3.175,0.69 -4.278,2.063 -1.102,1.379 -1.654,3.511 -1.654,6.401z"/>
  <path id="_2_38" fill="white" fill-rule="nonzero" d="M209.287 209.491c0,-2.937 0.46,-5.356 1.375,-7.258 0.915,-1.902 2.115,-3.321 3.593,-4.252 1.478,-0.931 3.272,-1.396 5.374,-1.396 3.054,0 5.538,1.103 7.458,3.315 1.921,2.213 2.884,5.356 2.884,9.441 0,4.126 -1.018,7.355 -3.053,9.677 -1.782,2.051 -4.211,3.08 -7.271,3.08 -3.09,0 -5.525,-1.017 -7.306,-3.046 -2.036,-2.321 -3.054,-5.51 -3.054,-9.561zm4.435 -0.167c0,2.833 0.569,4.959 1.702,6.372 1.139,1.42 2.551,2.126 4.229,2.126 1.697,0 3.102,-0.701 4.211,-2.108 1.115,-1.402 1.672,-3.563 1.672,-6.476 0,-2.85 -0.539,-4.965 -1.624,-6.327 -1.084,-1.367 -2.502,-2.051 -4.259,-2.051 -1.751,0 -3.174,0.69 -4.277,2.063 -1.103,1.379 -1.654,3.511 -1.654,6.401z"/>
 </g>
</svg>
