<?xml version="1.0" encoding="UTF-8"?>
<!DOCTYPE svg PUBLIC "-//W3C//DTD SVG 1.1//EN" "http://www.w3.org/Graphics/SVG/1.1/DTD/svg11.dtd">
<!-- Creator: CorelDRAW -->
<svg xmlns="http://www.w3.org/2000/svg" xml:space="preserve" width="100px" height="99px" version="1.1" shape-rendering="geometricPrecision" text-rendering="geometricPrecision" image-rendering="optimizeQuality" fill-rule="evenodd" clip-rule="evenodd"
viewBox="0 0 99.405 98.182"
 xmlns:xlink="http://www.w3.org/1999/xlink"
 xmlns:xodm="http://www.corel.com/coreldraw/odm/2003">
 <g id="Capa_x0020_1">
  <metadata id="CorelCorpID_0Corel-Layer"/>
  <circle fill="#2A6099" cx="49.632" cy="52.335" r="18.705"/>
  <g id="_2482169784032">
   <path fill="#55308D" d="M21.753 27.829c3.577,-4.079 7.934,-7.233 12.71,-9.368 0.312,1.583 0.865,3.08 1.619,4.449 -3.843,1.767 -7.367,4.294 -10.32,7.517 -1.186,-1.061 -2.537,-1.941 -4.009,-2.598z"/>
   <path fill="#55308D" d="M15.46 26.494c8.539,0 15.461,6.922 15.461,15.46 0,8.539 -6.922,15.46 -15.461,15.46 -8.538,0 -15.46,-6.921 -15.46,-15.46 0,-8.538 6.922,-15.46 15.46,-15.46z"/>
  </g>
  <g id="_2482169783024">
   <path fill="#FF8000" d="M64.801 18.455c4.905,2.2 9.245,5.432 12.744,9.422 -1.465,0.666 -2.807,1.555 -3.984,2.623 -2.9,-3.176 -6.423,-5.773 -10.376,-7.596 0.753,-1.37 1.306,-2.866 1.616,-4.449z"/>
   <path fill="#FF8000" d="M49.632 0c8.538,0 15.46,6.922 15.46,15.46 0,8.539 -6.922,15.461 -15.46,15.461 -8.539,0 -15.461,-6.922 -15.461,-15.461 0,-8.538 6.922,-15.46 15.461,-15.46z"/>
  </g>
  <g id="_2482169783264">
   <path fill="red" d="M86.433 57.214c-0.683,5.134 -2.435,10.03 -5.082,14.389 -1.135,-1.097 -2.437,-2.021 -3.865,-2.731 2.106,-3.547 3.537,-7.492 4.173,-11.626 0.746,0.111 1.509,0.168 2.285,0.168 0.847,0 1.678,-0.069 2.489,-0.2z"/>
   <path fill="red" d="M83.944 26.494c8.539,0 15.461,6.922 15.461,15.46 0,8.539 -6.922,15.46 -15.461,15.46 -8.538,0 -15.46,-6.921 -15.46,-15.46 0,-8.538 6.922,-15.46 15.46,-15.46z"/>
  </g>
  <g id="_2482169784704">
   <path fill="#729FCF" d="M56.406 88.834c-4.32,0.802 -8.704,0.815 -12.951,0.096 0.627,-1.428 1.044,-2.968 1.213,-4.583 3.468,0.54 7.035,0.521 10.557,-0.096 0.159,1.614 0.565,3.154 1.181,4.583z"/>
   <path fill="#729FCF" d="M70.61 67.261c8.539,0 15.461,6.922 15.461,15.461 0,8.538 -6.922,15.46 -15.461,15.46 -8.538,0 -15.46,-6.922 -15.46,-15.46 0,-8.539 6.922,-15.461 15.46,-15.461z"/>
  </g>
  <g id="_2482169784464">
   <path fill="#00A933" d="M18.15 72.005c-2.863,-4.574 -4.634,-9.635 -5.314,-14.813 0.853,0.146 1.73,0.222 2.624,0.222 0.731,0 1.449,-0.051 2.153,-0.149 0.634,4.137 2.07,8.175 4.309,11.863 -1.403,0.762 -2.674,1.736 -3.772,2.877z"/>
   <circle fill="#00A933" cx="29.293" cy="82.722" r="15.46"/>
  </g>
  <path fill="white" fill-rule="nonzero" d="M18.85 84.238l0 -3.032 0.772 0c0.288,0 0.477,0.015 0.565,0.044 0.142,0.046 0.258,0.147 0.35,0.3 0.092,0.152 0.138,0.35 0.138,0.591 0,0.219 -0.04,0.403 -0.119,0.551 -0.079,0.148 -0.179,0.252 -0.298,0.312 -0.118,0.06 -0.323,0.09 -0.614,0.09l-0.316 0 0 1.144 -0.478 0zm0.478 -2.52l0 0.864 0.267 0c0.179,0 0.301,-0.013 0.365,-0.039 0.065,-0.026 0.117,-0.074 0.159,-0.142 0.041,-0.069 0.061,-0.153 0.061,-0.253 0,-0.101 -0.021,-0.186 -0.063,-0.255 -0.043,-0.069 -0.096,-0.116 -0.158,-0.139 -0.062,-0.024 -0.194,-0.036 -0.396,-0.036l-0.235 0z"/>
  <path id="_1" fill="white" fill-rule="nonzero" d="M20.954 83.108c0,-0.215 0.041,-0.412 0.123,-0.589 0.082,-0.176 0.189,-0.309 0.32,-0.397 0.133,-0.088 0.281,-0.133 0.447,-0.133 0.277,0 0.494,0.114 0.653,0.341 0.158,0.227 0.237,0.493 0.237,0.796 0,0.227 -0.041,0.431 -0.123,0.613 -0.083,0.182 -0.191,0.32 -0.325,0.412 -0.134,0.092 -0.281,0.137 -0.44,0.137 -0.257,0 -0.469,-0.102 -0.638,-0.306 -0.169,-0.204 -0.254,-0.496 -0.254,-0.874zm0.466 0.031c0,0.222 0.042,0.39 0.125,0.504 0.084,0.114 0.185,0.171 0.303,0.171 0.116,0 0.215,-0.057 0.297,-0.172 0.082,-0.114 0.123,-0.284 0.123,-0.507 0,-0.218 -0.042,-0.385 -0.125,-0.499 -0.084,-0.115 -0.184,-0.172 -0.301,-0.172 -0.115,0 -0.214,0.057 -0.297,0.172 -0.083,0.114 -0.125,0.282 -0.125,0.503z"/>
  <polygon id="_2" fill="white" fill-rule="nonzero" points="23.095,84.238 23.095,81.206 23.554,81.206 23.554,84.238 "/>
  <path id="_3" fill="white" fill-rule="nonzero" d="M24.02 81.744l0 -0.538 0.458 0 0 0.538 -0.458 0zm0 2.494l0 -2.198 0.458 0 0 2.198 -0.458 0z"/>
  <path id="_4" fill="white" fill-rule="nonzero" d="M24.908 82.04l0.426 0 0 0.3c0.075,-0.117 0.158,-0.205 0.248,-0.263 0.089,-0.059 0.187,-0.088 0.291,-0.088 0.111,0 0.207,0.029 0.288,0.087 0.081,0.058 0.148,0.146 0.199,0.263 0.077,-0.117 0.159,-0.205 0.246,-0.263 0.088,-0.058 0.181,-0.087 0.281,-0.087 0.117,0 0.219,0.03 0.304,0.089 0.085,0.058 0.149,0.142 0.194,0.251 0.044,0.109 0.066,0.276 0.066,0.503l0 1.406 -0.458 0 0 -1.257c0,-0.22 -0.019,-0.366 -0.056,-0.438 -0.037,-0.073 -0.1,-0.109 -0.187,-0.109 -0.103,0 -0.185,0.051 -0.247,0.152 -0.063,0.101 -0.094,0.3 -0.094,0.595l0 1.057 -0.458 0 0 -1.206c0,-0.238 -0.013,-0.393 -0.038,-0.461 -0.033,-0.091 -0.1,-0.137 -0.2,-0.137 -0.067,0 -0.129,0.023 -0.186,0.07 -0.057,0.047 -0.098,0.116 -0.123,0.207 -0.025,0.09 -0.037,0.243 -0.037,0.458l0 1.069 -0.459 0 0 -2.198z"/>
  <path id="_5" fill="white" fill-rule="nonzero" d="M27.792 83.108c0,-0.215 0.041,-0.412 0.123,-0.589 0.082,-0.176 0.189,-0.309 0.32,-0.397 0.133,-0.088 0.281,-0.133 0.447,-0.133 0.277,0 0.494,0.114 0.652,0.341 0.159,0.227 0.238,0.493 0.238,0.796 0,0.227 -0.041,0.431 -0.123,0.613 -0.083,0.182 -0.191,0.32 -0.325,0.412 -0.134,0.092 -0.281,0.137 -0.441,0.137 -0.256,0 -0.469,-0.102 -0.638,-0.306 -0.169,-0.204 -0.253,-0.496 -0.253,-0.874zm0.466 0.031c0,0.222 0.042,0.39 0.125,0.504 0.084,0.114 0.185,0.171 0.303,0.171 0.116,0 0.214,-0.057 0.297,-0.172 0.082,-0.114 0.123,-0.284 0.123,-0.507 0,-0.218 -0.042,-0.385 -0.125,-0.499 -0.084,-0.115 -0.184,-0.172 -0.301,-0.172 -0.115,0 -0.214,0.057 -0.297,0.172 -0.083,0.114 -0.125,0.282 -0.125,0.503z"/>
  <path id="_6" fill="white" fill-rule="nonzero" d="M30.371 84.238l-0.458 0 0 -2.198 0.426 0 0 0.312c0.073,-0.146 0.138,-0.243 0.195,-0.291 0.058,-0.048 0.124,-0.072 0.199,-0.072 0.105,0 0.204,0.037 0.299,0.11l-0.142 0.506c-0.076,-0.063 -0.147,-0.095 -0.214,-0.095 -0.064,0 -0.12,0.025 -0.169,0.073 -0.048,0.05 -0.083,0.138 -0.104,0.267 -0.021,0.128 -0.032,0.364 -0.032,0.708l0 0.68z"/>
  <path id="_7" fill="white" fill-rule="nonzero" d="M31.036 82.04l0.255 0 0 -0.165c0,-0.199 0.019,-0.344 0.054,-0.433 0.037,-0.089 0.096,-0.16 0.176,-0.211 0.081,-0.05 0.181,-0.076 0.3,-0.076 0.129,0 0.255,0.025 0.379,0.074l-0.06 0.404c-0.073,-0.022 -0.142,-0.033 -0.209,-0.033 -0.064,0 -0.11,0.019 -0.138,0.058 -0.029,0.038 -0.043,0.114 -0.043,0.227l0 0.155 0.34 0 0 0.457 -0.34 0 0 1.741 -0.459 0 0 -1.741 -0.255 0 0 -0.457zm1.281 -0.296l0 -0.538 0.459 0 0 0.538 -0.459 0zm0 2.494l0 -2.198 0.459 0 0 2.198 -0.459 0z"/>
  <path id="_8" fill="white" fill-rule="nonzero" d="M33.1 83.612l0.458 -0.09c0.04,0.232 0.163,0.347 0.368,0.347 0.109,0 0.191,-0.022 0.245,-0.066 0.054,-0.045 0.081,-0.102 0.081,-0.173 0,-0.048 -0.012,-0.086 -0.037,-0.114 -0.025,-0.028 -0.075,-0.052 -0.148,-0.072 -0.375,-0.103 -0.614,-0.202 -0.716,-0.296 -0.127,-0.118 -0.19,-0.279 -0.19,-0.483 0,-0.204 0.062,-0.368 0.187,-0.491 0.124,-0.123 0.304,-0.185 0.542,-0.185 0.225,0 0.398,0.046 0.515,0.139 0.118,0.091 0.201,0.24 0.248,0.445l-0.429 0.102c-0.039,-0.178 -0.147,-0.266 -0.326,-0.266 -0.113,0 -0.192,0.016 -0.24,0.051 -0.048,0.034 -0.071,0.078 -0.071,0.133 0,0.049 0.021,0.089 0.064,0.122 0.043,0.033 0.178,0.082 0.405,0.148 0.255,0.073 0.428,0.163 0.52,0.27 0.09,0.105 0.134,0.247 0.134,0.424 0,0.211 -0.069,0.387 -0.209,0.525 -0.139,0.137 -0.331,0.206 -0.576,0.206 -0.223,0 -0.405,-0.057 -0.546,-0.172 -0.141,-0.115 -0.234,-0.283 -0.279,-0.504z"/>
  <path id="_9" fill="white" fill-rule="nonzero" d="M35.071 82.04l0.426 0 0 0.3c0.075,-0.117 0.158,-0.205 0.247,-0.263 0.09,-0.059 0.188,-0.088 0.292,-0.088 0.111,0 0.207,0.029 0.288,0.087 0.081,0.058 0.148,0.146 0.199,0.263 0.076,-0.117 0.159,-0.205 0.246,-0.263 0.088,-0.058 0.181,-0.087 0.281,-0.087 0.117,0 0.219,0.03 0.304,0.089 0.085,0.058 0.149,0.142 0.194,0.251 0.044,0.109 0.066,0.276 0.066,0.503l0 1.406 -0.458 0 0 -1.257c0,-0.22 -0.019,-0.366 -0.056,-0.438 -0.037,-0.073 -0.1,-0.109 -0.188,-0.109 -0.102,0 -0.184,0.051 -0.246,0.152 -0.063,0.101 -0.094,0.3 -0.094,0.595l0 1.057 -0.458 0 0 -1.206c0,-0.238 -0.013,-0.393 -0.038,-0.461 -0.033,-0.091 -0.1,-0.137 -0.2,-0.137 -0.067,0 -0.13,0.023 -0.186,0.07 -0.057,0.047 -0.098,0.116 -0.123,0.207 -0.025,0.09 -0.038,0.243 -0.038,0.458l0 1.069 -0.458 0 0 -2.198z"/>
  <path id="_10" fill="white" fill-rule="nonzero" d="M37.955 83.108c0,-0.215 0.041,-0.412 0.123,-0.589 0.082,-0.176 0.188,-0.309 0.32,-0.397 0.133,-0.088 0.281,-0.133 0.446,-0.133 0.277,0 0.495,0.114 0.653,0.341 0.159,0.227 0.238,0.493 0.238,0.796 0,0.227 -0.041,0.431 -0.124,0.613 -0.082,0.182 -0.19,0.32 -0.325,0.412 -0.133,0.092 -0.28,0.137 -0.44,0.137 -0.256,0 -0.469,-0.102 -0.638,-0.306 -0.169,-0.204 -0.253,-0.496 -0.253,-0.874zm0.466 0.031c0,0.222 0.042,0.39 0.125,0.504 0.084,0.114 0.185,0.171 0.303,0.171 0.116,0 0.214,-0.057 0.297,-0.172 0.082,-0.114 0.123,-0.284 0.123,-0.507 0,-0.218 -0.042,-0.385 -0.125,-0.499 -0.084,-0.115 -0.184,-0.172 -0.301,-0.172 -0.116,0 -0.214,0.057 -0.297,0.172 -0.084,0.114 -0.125,0.282 -0.125,0.503z"/>
  <polygon fill="white" fill-rule="nonzero" points="57.024,83.821 57.024,80.789 58.788,80.789 58.788,81.301 57.503,81.301 57.503,81.97 58.699,81.97 58.699,82.483 57.503,82.483 57.503,83.308 58.833,83.308 58.833,83.821 "/>
  <path id="_1_0" fill="white" fill-rule="nonzero" d="M60.803 83.821l-0.458 0 0 -1.123c0,-0.225 -0.009,-0.375 -0.026,-0.449 -0.017,-0.075 -0.049,-0.132 -0.096,-0.172 -0.046,-0.04 -0.1,-0.06 -0.159,-0.06 -0.076,0 -0.145,0.026 -0.208,0.077 -0.062,0.052 -0.105,0.124 -0.13,0.215 -0.025,0.091 -0.038,0.262 -0.038,0.515l0 0.997 -0.458 0 0 -2.198 0.426 0 0 0.321c0.075,-0.123 0.16,-0.216 0.254,-0.279 0.094,-0.062 0.199,-0.093 0.313,-0.093 0.134,0 0.246,0.036 0.338,0.109 0.092,0.073 0.155,0.166 0.19,0.279 0.035,0.114 0.052,0.279 0.052,0.494l0 1.367z"/>
  <path id="_2_1" fill="white" fill-rule="nonzero" d="M62.774 82.275l-0.45 0.102c-0.033,-0.232 -0.137,-0.347 -0.313,-0.347 -0.113,0 -0.204,0.049 -0.273,0.148 -0.069,0.1 -0.103,0.268 -0.103,0.504 0,0.261 0.034,0.446 0.103,0.554 0.068,0.107 0.16,0.161 0.275,0.161 0.086,0 0.157,-0.031 0.213,-0.092 0.055,-0.062 0.095,-0.171 0.119,-0.327l0.45 0.097c-0.093,0.531 -0.359,0.796 -0.798,0.796 -0.28,0 -0.489,-0.112 -0.625,-0.336 -0.135,-0.223 -0.204,-0.492 -0.204,-0.807 0,-0.377 0.077,-0.664 0.232,-0.861 0.154,-0.197 0.355,-0.295 0.605,-0.295 0.202,0 0.367,0.057 0.495,0.169 0.127,0.112 0.219,0.29 0.274,0.534z"/>
  <path id="_3_2" fill="white" fill-rule="nonzero" d="M63.464 82.292l-0.414 -0.089c0.05,-0.224 0.133,-0.385 0.248,-0.483 0.115,-0.098 0.281,-0.148 0.497,-0.148 0.193,0 0.339,0.028 0.441,0.085 0.101,0.056 0.174,0.133 0.217,0.231 0.044,0.097 0.065,0.274 0.065,0.531l-0.004 0.679c0,0.19 0.008,0.332 0.022,0.425 0.014,0.094 0.041,0.192 0.08,0.298l-0.45 0 -0.06 -0.24c-0.078,0.096 -0.161,0.169 -0.251,0.218 -0.089,0.048 -0.184,0.072 -0.284,0.072 -0.168,0 -0.306,-0.059 -0.413,-0.177 -0.107,-0.118 -0.16,-0.275 -0.16,-0.471 0,-0.125 0.021,-0.233 0.065,-0.326 0.044,-0.093 0.106,-0.167 0.185,-0.222 0.079,-0.055 0.206,-0.104 0.381,-0.147 0.212,-0.051 0.36,-0.098 0.443,-0.143 0,-0.121 -0.008,-0.201 -0.025,-0.239 -0.016,-0.037 -0.046,-0.068 -0.09,-0.093 -0.044,-0.024 -0.106,-0.036 -0.187,-0.036 -0.082,0 -0.146,0.019 -0.193,0.058 -0.046,0.039 -0.084,0.11 -0.113,0.217zm0.608 0.47c-0.058,0.025 -0.149,0.054 -0.272,0.088 -0.142,0.038 -0.235,0.081 -0.279,0.128 -0.044,0.047 -0.065,0.109 -0.065,0.183 0,0.084 0.024,0.156 0.072,0.214 0.049,0.057 0.11,0.086 0.183,0.086 0.065,0 0.129,-0.024 0.192,-0.07 0.064,-0.047 0.108,-0.102 0.133,-0.165 0.024,-0.064 0.036,-0.18 0.036,-0.348l0 -0.116z"/>
  <path id="_4_3" fill="white" fill-rule="nonzero" d="M64.956 81.623l0.426 0 0 0.323c0.058,-0.116 0.135,-0.207 0.23,-0.274 0.095,-0.067 0.197,-0.1 0.307,-0.1 0.197,0 0.366,0.098 0.508,0.295 0.142,0.196 0.213,0.474 0.213,0.834 0,0.379 -0.071,0.668 -0.214,0.869 -0.143,0.201 -0.312,0.301 -0.508,0.301 -0.092,0 -0.176,-0.023 -0.255,-0.069 -0.079,-0.046 -0.161,-0.13 -0.248,-0.251l0 1.104 -0.459 0 0 -3.032zm0.453 1.061c0,0.248 0.038,0.432 0.115,0.549 0.077,0.118 0.171,0.177 0.28,0.177 0.103,0 0.191,-0.055 0.262,-0.163 0.071,-0.109 0.107,-0.286 0.107,-0.532 0,-0.235 -0.036,-0.407 -0.109,-0.518 -0.073,-0.112 -0.163,-0.167 -0.268,-0.167 -0.111,0 -0.203,0.054 -0.277,0.163 -0.073,0.108 -0.11,0.272 -0.11,0.491z"/>
  <path id="_5_4" fill="white" fill-rule="nonzero" d="M66.842 83.195l0.459 -0.09c0.039,0.231 0.162,0.347 0.367,0.347 0.109,0 0.191,-0.022 0.245,-0.066 0.054,-0.045 0.081,-0.102 0.081,-0.173 0,-0.048 -0.012,-0.086 -0.036,-0.114 -0.026,-0.028 -0.075,-0.052 -0.149,-0.072 -0.375,-0.103 -0.614,-0.202 -0.716,-0.296 -0.126,-0.118 -0.19,-0.279 -0.19,-0.483 0,-0.204 0.062,-0.368 0.187,-0.492 0.124,-0.122 0.305,-0.184 0.542,-0.184 0.226,0 0.398,0.046 0.516,0.139 0.117,0.091 0.2,0.24 0.248,0.445l-0.43 0.102c-0.039,-0.178 -0.147,-0.267 -0.325,-0.267 -0.113,0 -0.193,0.017 -0.24,0.052 -0.048,0.034 -0.072,0.078 -0.072,0.133 0,0.049 0.022,0.089 0.064,0.122 0.043,0.033 0.178,0.082 0.405,0.148 0.256,0.073 0.429,0.163 0.52,0.269 0.09,0.106 0.134,0.248 0.134,0.425 0,0.211 -0.069,0.387 -0.208,0.525 -0.14,0.137 -0.332,0.206 -0.577,0.206 -0.222,0 -0.405,-0.058 -0.546,-0.173 -0.141,-0.115 -0.234,-0.283 -0.279,-0.503z"/>
  <path id="_6_5" fill="white" fill-rule="nonzero" d="M69.986 83.821l0 -0.33c-0.064,0.119 -0.147,0.212 -0.25,0.279 -0.103,0.067 -0.21,0.101 -0.322,0.101 -0.114,0 -0.215,-0.031 -0.305,-0.093 -0.09,-0.062 -0.157,-0.15 -0.201,-0.265 -0.044,-0.114 -0.066,-0.281 -0.066,-0.499l0 -1.391 0.458 0 0 1.009c0,0.289 0.007,0.472 0.021,0.55 0.014,0.078 0.044,0.138 0.091,0.181 0.048,0.043 0.105,0.064 0.172,0.064 0.076,0 0.147,-0.028 0.212,-0.084 0.064,-0.056 0.106,-0.128 0.127,-0.215 0.02,-0.088 0.03,-0.281 0.03,-0.578l0 -0.927 0.458 0 0 2.198 -0.425 0z"/>
  <polygon id="_7_6" fill="white" fill-rule="nonzero" points="70.882,83.821 70.882,80.789 71.34,80.789 71.34,83.821 "/>
  <path id="_8_7" fill="white" fill-rule="nonzero" d="M72.151 82.292l-0.413 -0.089c0.05,-0.224 0.132,-0.385 0.248,-0.483 0.115,-0.098 0.28,-0.148 0.496,-0.148 0.193,0 0.34,0.028 0.441,0.085 0.102,0.056 0.174,0.133 0.218,0.231 0.043,0.097 0.065,0.274 0.065,0.531l-0.004 0.679c0,0.19 0.007,0.332 0.021,0.425 0.014,0.094 0.041,0.192 0.08,0.298l-0.45 0 -0.06 -0.24c-0.077,0.096 -0.161,0.169 -0.25,0.218 -0.09,0.048 -0.184,0.072 -0.285,0.072 -0.168,0 -0.305,-0.059 -0.412,-0.177 -0.108,-0.118 -0.161,-0.275 -0.161,-0.471 0,-0.125 0.021,-0.233 0.065,-0.326 0.044,-0.093 0.106,-0.167 0.185,-0.222 0.08,-0.055 0.207,-0.104 0.382,-0.147 0.211,-0.051 0.359,-0.098 0.443,-0.143 0,-0.121 -0.009,-0.201 -0.025,-0.239 -0.017,-0.037 -0.047,-0.068 -0.091,-0.093 -0.044,-0.024 -0.106,-0.036 -0.187,-0.036 -0.081,0 -0.146,0.019 -0.192,0.058 -0.047,0.039 -0.085,0.11 -0.114,0.217zm0.609 0.47c-0.059,0.025 -0.15,0.054 -0.273,0.088 -0.142,0.038 -0.234,0.081 -0.278,0.128 -0.044,0.047 -0.066,0.109 -0.066,0.183 0,0.084 0.024,0.156 0.072,0.214 0.049,0.057 0.11,0.086 0.183,0.086 0.065,0 0.129,-0.024 0.193,-0.07 0.063,-0.047 0.107,-0.102 0.132,-0.165 0.024,-0.064 0.037,-0.18 0.037,-0.348l0 -0.116z"/>
  <path id="_9_8" fill="white" fill-rule="nonzero" d="M73.619 81.623l0.426 0 0 0.3c0.075,-0.117 0.158,-0.205 0.248,-0.263 0.09,-0.059 0.187,-0.088 0.291,-0.088 0.111,0 0.207,0.029 0.288,0.087 0.081,0.058 0.148,0.145 0.199,0.263 0.077,-0.118 0.159,-0.205 0.246,-0.263 0.088,-0.058 0.182,-0.087 0.281,-0.087 0.117,0 0.219,0.03 0.304,0.088 0.085,0.059 0.149,0.143 0.194,0.252 0.044,0.109 0.066,0.276 0.066,0.503l0 1.406 -0.458 0 0 -1.257c0,-0.22 -0.019,-0.366 -0.056,-0.438 -0.037,-0.073 -0.099,-0.109 -0.187,-0.109 -0.102,0 -0.185,0.051 -0.247,0.152 -0.063,0.101 -0.094,0.3 -0.094,0.595l0 1.057 -0.458 0 0 -1.206c0,-0.238 -0.013,-0.393 -0.038,-0.461 -0.033,-0.091 -0.099,-0.137 -0.2,-0.137 -0.067,0 -0.129,0.023 -0.186,0.07 -0.057,0.047 -0.097,0.116 -0.122,0.206 -0.025,0.091 -0.038,0.244 -0.038,0.459l0 1.069 -0.459 0 0 -2.198z"/>
  <path id="_10_9" fill="white" fill-rule="nonzero" d="M76.612 81.327l0 -0.538 0.459 0 0 0.538 -0.459 0zm0 2.494l0 -2.198 0.459 0 0 2.198 -0.459 0z"/>
  <path id="_11" fill="white" fill-rule="nonzero" d="M78.539 83.122l0.454 0.097c-0.061,0.221 -0.155,0.385 -0.284,0.492 -0.128,0.107 -0.284,0.16 -0.468,0.16 -0.256,0 -0.452,-0.089 -0.592,-0.267 -0.164,-0.207 -0.246,-0.497 -0.246,-0.869 0,-0.368 0.083,-0.662 0.248,-0.883 0.14,-0.187 0.321,-0.28 0.543,-0.28 0.246,0 0.44,0.096 0.58,0.286 0.161,0.218 0.241,0.54 0.241,0.965l-0.002 0.066 -1.143 0c0.002,0.174 0.04,0.308 0.113,0.404 0.072,0.095 0.159,0.142 0.261,0.142 0.148,0 0.246,-0.104 0.295,-0.313zm0.024 -0.589c-0.004,-0.171 -0.039,-0.3 -0.105,-0.386 -0.066,-0.087 -0.145,-0.13 -0.237,-0.13 -0.096,0 -0.178,0.045 -0.244,0.135 -0.067,0.091 -0.1,0.218 -0.099,0.381l0.685 0z"/>
  <path id="_12" fill="white" fill-rule="nonzero" d="M80.952 83.821l-0.458 0 0 -1.123c0,-0.225 -0.009,-0.375 -0.026,-0.449 -0.017,-0.075 -0.049,-0.132 -0.096,-0.172 -0.047,-0.04 -0.1,-0.06 -0.159,-0.06 -0.077,0 -0.146,0.026 -0.208,0.077 -0.062,0.052 -0.105,0.124 -0.13,0.215 -0.025,0.091 -0.038,0.262 -0.038,0.515l0 0.997 -0.459 0 0 -2.198 0.426 0 0 0.321c0.075,-0.123 0.161,-0.216 0.254,-0.279 0.095,-0.062 0.199,-0.093 0.314,-0.093 0.133,0 0.246,0.036 0.337,0.109 0.092,0.073 0.156,0.166 0.19,0.279 0.036,0.114 0.053,0.279 0.053,0.494l0 1.367z"/>
  <path id="_13" fill="white" fill-rule="nonzero" d="M82.209 81.623l0 0.462 -0.312 0 0 0.887c0,0.192 0.005,0.303 0.014,0.333 0.019,0.056 0.056,0.084 0.113,0.084 0.042,0 0.103,-0.019 0.182,-0.056l0.04 0.452c-0.106,0.057 -0.225,0.086 -0.359,0.086 -0.116,0 -0.21,-0.029 -0.28,-0.086 -0.07,-0.059 -0.117,-0.142 -0.141,-0.252 -0.018,-0.079 -0.027,-0.242 -0.027,-0.489l0 -0.959 -0.211 0 0 -0.462 0.211 0 0 -0.436 0.458 -0.339 0 0.775 0.312 0z"/>
  <path id="_14" fill="white" fill-rule="nonzero" d="M82.416 82.691c0,-0.215 0.041,-0.412 0.123,-0.589 0.082,-0.176 0.189,-0.309 0.321,-0.397 0.132,-0.088 0.28,-0.133 0.446,-0.133 0.277,0 0.495,0.114 0.653,0.341 0.159,0.227 0.238,0.493 0.238,0.796 0,0.227 -0.042,0.431 -0.124,0.613 -0.083,0.182 -0.191,0.32 -0.325,0.412 -0.134,0.091 -0.281,0.137 -0.44,0.137 -0.256,0 -0.469,-0.102 -0.638,-0.306 -0.169,-0.205 -0.254,-0.496 -0.254,-0.874zm0.467 0.031c0,0.222 0.041,0.39 0.125,0.504 0.083,0.114 0.184,0.171 0.302,0.171 0.116,0 0.215,-0.057 0.297,-0.172 0.082,-0.114 0.123,-0.284 0.123,-0.507 0,-0.218 -0.042,-0.385 -0.125,-0.499 -0.084,-0.115 -0.184,-0.173 -0.301,-0.173 -0.115,0 -0.214,0.058 -0.297,0.173 -0.083,0.114 -0.124,0.282 -0.124,0.503z"/>
  <polygon fill="white" fill-rule="nonzero" points="5.798,43.444 5.798,40.413 6.515,40.413 6.947,42.485 7.375,40.413 8.097,40.413 8.097,43.444 7.651,43.444 7.651,41.054 7.177,43.444 6.718,43.444 6.244,41.054 6.244,43.444 "/>
  <path id="_1_10" fill="white" fill-rule="nonzero" d="M8.463 42.315c0,-0.216 0.041,-0.412 0.123,-0.589 0.082,-0.176 0.189,-0.309 0.32,-0.397 0.133,-0.088 0.281,-0.133 0.447,-0.133 0.277,0 0.494,0.114 0.652,0.341 0.159,0.227 0.238,0.493 0.238,0.796 0,0.226 -0.041,0.431 -0.123,0.613 -0.083,0.182 -0.191,0.32 -0.325,0.412 -0.134,0.091 -0.281,0.137 -0.44,0.137 -0.257,0 -0.47,-0.102 -0.639,-0.306 -0.169,-0.205 -0.253,-0.496 -0.253,-0.874zm0.466 0.031c0,0.222 0.042,0.39 0.125,0.504 0.084,0.114 0.185,0.171 0.303,0.171 0.116,0 0.215,-0.057 0.297,-0.172 0.082,-0.114 0.123,-0.284 0.123,-0.508 0,-0.218 -0.042,-0.384 -0.125,-0.498 -0.084,-0.115 -0.184,-0.173 -0.301,-0.173 -0.115,0 -0.214,0.058 -0.297,0.173 -0.083,0.114 -0.125,0.282 -0.125,0.503z"/>
  <path id="_2_11" fill="white" fill-rule="nonzero" d="M12.186 43.444l-0.426 0 0 -0.322c-0.069,0.124 -0.152,0.217 -0.247,0.279 -0.095,0.063 -0.192,0.094 -0.292,0.094 -0.193,0 -0.36,-0.1 -0.504,-0.301 -0.142,-0.201 -0.214,-0.488 -0.214,-0.861 0,-0.375 0.07,-0.659 0.21,-0.85 0.139,-0.192 0.311,-0.287 0.515,-0.287 0.096,0 0.186,0.026 0.27,0.076 0.083,0.052 0.16,0.128 0.23,0.23l0 -1.089 0.458 0 0 3.031zm-1.217 -1.145c0,0.199 0.017,0.347 0.049,0.445 0.032,0.098 0.078,0.171 0.138,0.221 0.06,0.048 0.128,0.073 0.203,0.073 0.1,0 0.186,-0.056 0.26,-0.17 0.074,-0.114 0.111,-0.284 0.111,-0.513 0,-0.253 -0.036,-0.436 -0.108,-0.547 -0.071,-0.112 -0.163,-0.167 -0.273,-0.167 -0.106,0 -0.195,0.054 -0.269,0.163 -0.073,0.11 -0.111,0.275 -0.111,0.495z"/>
  <path id="_3_12" fill="white" fill-rule="nonzero" d="M13.772 43.444l0 -0.329c-0.064,0.119 -0.147,0.212 -0.25,0.279 -0.102,0.067 -0.21,0.101 -0.322,0.101 -0.114,0 -0.215,-0.031 -0.305,-0.093 -0.09,-0.062 -0.157,-0.15 -0.201,-0.265 -0.044,-0.115 -0.066,-0.281 -0.066,-0.499l0 -1.391 0.458 0 0 1.009c0,0.289 0.007,0.471 0.021,0.55 0.014,0.077 0.044,0.138 0.092,0.18 0.047,0.043 0.104,0.065 0.171,0.065 0.077,0 0.147,-0.029 0.212,-0.084 0.064,-0.056 0.107,-0.128 0.127,-0.216 0.02,-0.087 0.03,-0.28 0.03,-0.578l0 -0.926 0.459 0 0 2.197 -0.426 0z"/>
  <polygon id="_4_13" fill="white" fill-rule="nonzero" points="14.668,43.444 14.668,40.413 15.126,40.413 15.126,43.444 "/>
  <path id="_5_14" fill="white" fill-rule="nonzero" d="M15.938 41.916l-0.414 -0.089c0.05,-0.224 0.132,-0.385 0.248,-0.483 0.115,-0.098 0.28,-0.148 0.497,-0.148 0.192,0 0.339,0.028 0.441,0.085 0.101,0.056 0.173,0.133 0.217,0.231 0.043,0.097 0.065,0.274 0.065,0.531l-0.004 0.679c0,0.19 0.007,0.332 0.022,0.425 0.014,0.093 0.04,0.192 0.079,0.297l-0.45 0 -0.059 -0.239c-0.078,0.096 -0.162,0.169 -0.251,0.218 -0.089,0.048 -0.184,0.072 -0.285,0.072 -0.167,0 -0.305,-0.059 -0.412,-0.177 -0.107,-0.118 -0.161,-0.275 -0.161,-0.471 0,-0.125 0.022,-0.233 0.066,-0.326 0.044,-0.093 0.105,-0.167 0.184,-0.222 0.08,-0.055 0.207,-0.104 0.382,-0.147 0.212,-0.051 0.36,-0.098 0.443,-0.143 0,-0.121 -0.008,-0.201 -0.025,-0.239 -0.016,-0.038 -0.047,-0.069 -0.091,-0.093 -0.044,-0.024 -0.106,-0.036 -0.186,-0.036 -0.082,0 -0.146,0.019 -0.193,0.058 -0.047,0.038 -0.084,0.11 -0.113,0.217zm0.608 0.47c-0.058,0.025 -0.149,0.054 -0.273,0.087 -0.141,0.039 -0.234,0.082 -0.278,0.129 -0.044,0.047 -0.066,0.109 -0.066,0.183 0,0.084 0.025,0.156 0.073,0.213 0.048,0.058 0.109,0.087 0.182,0.087 0.065,0 0.129,-0.024 0.193,-0.07 0.063,-0.047 0.107,-0.102 0.132,-0.165 0.025,-0.064 0.037,-0.18 0.037,-0.348l0 -0.116z"/>
  <path id="_6_15" fill="white" fill-rule="nonzero" d="M17.88 43.444l-0.458 0 0 -2.197 0.426 0 0 0.312c0.073,-0.146 0.138,-0.243 0.195,-0.291 0.058,-0.048 0.124,-0.072 0.199,-0.072 0.105,0 0.204,0.037 0.299,0.11l-0.142 0.506c-0.076,-0.063 -0.147,-0.095 -0.215,-0.095 -0.063,0 -0.119,0.025 -0.168,0.073 -0.048,0.05 -0.083,0.138 -0.104,0.266 -0.021,0.129 -0.032,0.365 -0.032,0.709l0 0.679z"/>
  <path id="_7_16" fill="white" fill-rule="nonzero" d="M18.735 40.951l0 -0.538 0.459 0 0 0.538 -0.459 0zm0 2.493l0 -2.197 0.459 0 0 2.197 -0.459 0z"/>
  <path id="_8_17" fill="white" fill-rule="nonzero" d="M21.242 43.444l-0.426 0 0 -0.322c-0.07,0.124 -0.152,0.217 -0.248,0.279 -0.094,0.063 -0.191,0.094 -0.292,0.094 -0.192,0 -0.36,-0.1 -0.503,-0.301 -0.143,-0.201 -0.214,-0.488 -0.214,-0.861 0,-0.375 0.069,-0.659 0.209,-0.85 0.139,-0.192 0.312,-0.287 0.516,-0.287 0.096,0 0.186,0.026 0.27,0.076 0.083,0.052 0.16,0.128 0.229,0.23l0 -1.089 0.459 0 0 3.031zm-1.217 -1.145c0,0.199 0.016,0.347 0.049,0.445 0.031,0.098 0.077,0.171 0.138,0.221 0.06,0.048 0.127,0.073 0.202,0.073 0.1,0 0.187,-0.056 0.261,-0.17 0.073,-0.114 0.11,-0.284 0.11,-0.513 0,-0.253 -0.035,-0.436 -0.107,-0.547 -0.072,-0.112 -0.163,-0.167 -0.274,-0.167 -0.105,0 -0.194,0.054 -0.268,0.163 -0.074,0.11 -0.111,0.275 -0.111,0.495z"/>
  <path id="_9_18" fill="white" fill-rule="nonzero" d="M22.037 41.916l-0.414 -0.089c0.05,-0.224 0.132,-0.385 0.248,-0.483 0.115,-0.098 0.281,-0.148 0.497,-0.148 0.193,0 0.339,0.028 0.441,0.085 0.101,0.056 0.173,0.133 0.217,0.231 0.044,0.097 0.065,0.274 0.065,0.531l-0.004 0.679c0,0.19 0.008,0.332 0.022,0.425 0.014,0.093 0.04,0.192 0.079,0.297l-0.45 0 -0.059 -0.239c-0.078,0.096 -0.162,0.169 -0.251,0.218 -0.089,0.048 -0.184,0.072 -0.285,0.072 -0.167,0 -0.305,-0.059 -0.412,-0.177 -0.107,-0.118 -0.161,-0.275 -0.161,-0.471 0,-0.125 0.022,-0.233 0.066,-0.326 0.044,-0.093 0.105,-0.167 0.184,-0.222 0.08,-0.055 0.207,-0.104 0.382,-0.147 0.212,-0.051 0.36,-0.098 0.443,-0.143 0,-0.121 -0.008,-0.201 -0.025,-0.239 -0.016,-0.038 -0.047,-0.069 -0.091,-0.093 -0.044,-0.024 -0.106,-0.036 -0.186,-0.036 -0.082,0 -0.146,0.019 -0.193,0.058 -0.046,0.038 -0.084,0.11 -0.113,0.217zm0.608 0.47c-0.058,0.025 -0.149,0.054 -0.272,0.087 -0.142,0.039 -0.235,0.082 -0.279,0.129 -0.044,0.047 -0.065,0.109 -0.065,0.183 0,0.084 0.024,0.156 0.072,0.213 0.049,0.058 0.109,0.087 0.182,0.087 0.065,0 0.129,-0.024 0.193,-0.07 0.064,-0.047 0.107,-0.102 0.133,-0.165 0.024,-0.064 0.036,-0.18 0.036,-0.348l0 -0.116z"/>
  <path id="_10_19" fill="white" fill-rule="nonzero" d="M25.123 43.444l-0.426 0 0 -0.322c-0.069,0.124 -0.152,0.217 -0.247,0.279 -0.095,0.063 -0.192,0.094 -0.292,0.094 -0.193,0 -0.36,-0.1 -0.504,-0.301 -0.142,-0.201 -0.214,-0.488 -0.214,-0.861 0,-0.375 0.07,-0.659 0.209,-0.85 0.14,-0.192 0.312,-0.287 0.516,-0.287 0.096,0 0.186,0.026 0.27,0.076 0.083,0.052 0.16,0.128 0.23,0.23l0 -1.089 0.458 0 0 3.031zm-1.217 -1.145c0,0.199 0.017,0.347 0.049,0.445 0.032,0.098 0.078,0.171 0.138,0.221 0.06,0.048 0.128,0.073 0.203,0.073 0.1,0 0.186,-0.056 0.26,-0.17 0.074,-0.114 0.111,-0.284 0.111,-0.513 0,-0.253 -0.036,-0.436 -0.108,-0.547 -0.071,-0.112 -0.163,-0.167 -0.273,-0.167 -0.106,0 -0.195,0.054 -0.269,0.163 -0.073,0.11 -0.111,0.275 -0.111,0.495z"/>
  <polygon fill="white" fill-rule="nonzero" points="42.786,16.951 42.786,13.919 43.265,13.919 43.265,15.113 44.21,15.113 44.21,13.919 44.689,13.919 44.689,16.951 44.21,16.951 44.21,15.626 43.265,15.626 43.265,16.951 "/>
  <path id="_1_20" fill="white" fill-rule="nonzero" d="M46.184 16.252l0.455 0.098c-0.061,0.22 -0.156,0.384 -0.284,0.491 -0.129,0.107 -0.285,0.161 -0.469,0.161 -0.255,0 -0.452,-0.089 -0.591,-0.268 -0.164,-0.207 -0.246,-0.497 -0.246,-0.869 0,-0.368 0.082,-0.662 0.247,-0.883 0.14,-0.186 0.321,-0.279 0.543,-0.279 0.247,0 0.44,0.095 0.58,0.285 0.162,0.218 0.242,0.54 0.242,0.965l-0.002 0.066 -1.144 0c0.003,0.174 0.04,0.309 0.113,0.404 0.072,0.095 0.16,0.142 0.262,0.142 0.147,0 0.245,-0.104 0.294,-0.313zm0.025 -0.588c-0.004,-0.172 -0.039,-0.301 -0.106,-0.387 -0.066,-0.087 -0.144,-0.13 -0.236,-0.13 -0.097,0 -0.178,0.045 -0.244,0.135 -0.068,0.091 -0.101,0.219 -0.1,0.382l0.686 0z"/>
  <path id="_2_21" fill="white" fill-rule="nonzero" d="M47.47 16.951l-0.458 0 0 -2.198 0.426 0 0 0.312c0.073,-0.146 0.137,-0.243 0.195,-0.29 0.057,-0.049 0.124,-0.072 0.199,-0.072 0.105,0 0.204,0.036 0.299,0.109l-0.142 0.507c-0.076,-0.064 -0.147,-0.096 -0.215,-0.096 -0.063,0 -0.119,0.025 -0.168,0.074 -0.048,0.049 -0.083,0.137 -0.104,0.266 -0.021,0.128 -0.032,0.365 -0.032,0.708l0 0.68z"/>
  <path id="_3_22" fill="white" fill-rule="nonzero" d="M49.327 16.252l0.454 0.098c-0.061,0.22 -0.155,0.384 -0.284,0.491 -0.128,0.107 -0.284,0.161 -0.468,0.161 -0.256,0 -0.452,-0.089 -0.592,-0.268 -0.164,-0.207 -0.246,-0.497 -0.246,-0.869 0,-0.368 0.083,-0.662 0.248,-0.883 0.14,-0.186 0.321,-0.279 0.543,-0.279 0.246,0 0.44,0.095 0.579,0.285 0.162,0.218 0.242,0.54 0.242,0.965l-0.002 0.066 -1.143 0c0.002,0.174 0.04,0.309 0.113,0.404 0.072,0.095 0.159,0.142 0.261,0.142 0.148,0 0.246,-0.104 0.295,-0.313zm0.024 -0.588c-0.004,-0.172 -0.039,-0.301 -0.105,-0.387 -0.066,-0.087 -0.145,-0.13 -0.237,-0.13 -0.096,0 -0.178,0.045 -0.244,0.135 -0.067,0.091 -0.101,0.219 -0.099,0.382l0.685 0z"/>
  <path id="_4_23" fill="white" fill-rule="nonzero" d="M51.74 16.951l-0.458 0 0 -1.123c0,-0.224 -0.009,-0.375 -0.026,-0.449 -0.017,-0.075 -0.049,-0.132 -0.096,-0.172 -0.047,-0.04 -0.1,-0.06 -0.159,-0.06 -0.077,0 -0.146,0.026 -0.208,0.078 -0.062,0.051 -0.105,0.123 -0.13,0.214 -0.025,0.091 -0.038,0.263 -0.038,0.515l0 0.997 -0.459 0 0 -2.198 0.426 0 0 0.321c0.075,-0.123 0.16,-0.216 0.254,-0.278 0.095,-0.062 0.199,-0.093 0.314,-0.093 0.133,0 0.246,0.035 0.337,0.108 0.092,0.073 0.156,0.166 0.19,0.28 0.035,0.113 0.053,0.278 0.053,0.494l0 1.366z"/>
  <path id="_5_24" fill="white" fill-rule="nonzero" d="M53.711 15.405l-0.45 0.102c-0.033,-0.231 -0.137,-0.347 -0.313,-0.347 -0.113,0 -0.204,0.049 -0.273,0.149 -0.069,0.099 -0.104,0.267 -0.104,0.504 0,0.261 0.035,0.445 0.104,0.553 0.068,0.108 0.16,0.161 0.275,0.161 0.086,0 0.157,-0.031 0.212,-0.092 0.056,-0.061 0.096,-0.171 0.119,-0.327l0.45 0.098c-0.092,0.53 -0.358,0.796 -0.797,0.796 -0.281,0 -0.489,-0.113 -0.625,-0.336 -0.136,-0.224 -0.204,-0.493 -0.204,-0.808 0,-0.376 0.077,-0.664 0.231,-0.861 0.154,-0.196 0.356,-0.294 0.606,-0.294 0.202,0 0.367,0.056 0.495,0.168 0.127,0.112 0.219,0.29 0.274,0.534z"/>
  <path id="_6_25" fill="white" fill-rule="nonzero" d="M54.056 14.457l0 -0.538 0.458 0 0 0.538 -0.458 0zm0 2.494l0 -2.198 0.458 0 0 2.198 -0.458 0z"/>
  <path id="_7_26" fill="white" fill-rule="nonzero" d="M55.325 15.422l-0.413 -0.089c0.05,-0.224 0.132,-0.385 0.248,-0.483 0.115,-0.098 0.28,-0.147 0.497,-0.147 0.192,0 0.339,0.028 0.44,0.084 0.102,0.057 0.174,0.134 0.218,0.231 0.043,0.097 0.065,0.274 0.065,0.531l-0.004 0.679c0,0.191 0.007,0.333 0.021,0.426 0.015,0.093 0.041,0.192 0.08,0.297l-0.45 0 -0.06 -0.24c-0.077,0.096 -0.161,0.169 -0.25,0.218 -0.09,0.049 -0.184,0.073 -0.285,0.073 -0.168,0 -0.305,-0.06 -0.412,-0.178 -0.108,-0.118 -0.161,-0.275 -0.161,-0.471 0,-0.125 0.021,-0.233 0.065,-0.326 0.044,-0.092 0.106,-0.166 0.185,-0.222 0.08,-0.055 0.207,-0.104 0.382,-0.146 0.211,-0.052 0.359,-0.099 0.443,-0.144 0,-0.121 -0.008,-0.201 -0.025,-0.239 -0.017,-0.037 -0.047,-0.068 -0.091,-0.093 -0.044,-0.024 -0.106,-0.036 -0.187,-0.036 -0.081,0 -0.145,0.019 -0.192,0.058 -0.047,0.039 -0.085,0.111 -0.114,0.217zm0.609 0.47c-0.058,0.025 -0.15,0.055 -0.273,0.088 -0.142,0.039 -0.234,0.082 -0.278,0.128 -0.044,0.047 -0.066,0.109 -0.066,0.184 0,0.084 0.025,0.155 0.073,0.213 0.048,0.057 0.109,0.086 0.182,0.086 0.065,0 0.129,-0.023 0.193,-0.07 0.063,-0.047 0.107,-0.102 0.132,-0.165 0.024,-0.064 0.037,-0.179 0.037,-0.347l0 -0.117z"/>
  <path fill="white" fill-rule="nonzero" d="M76.837 43.47l-0.52 0 -0.204 -0.686 -0.957 0 -0.196 0.686 -0.511 0 0.925 -3.032 0.512 0 0.951 3.032zm-0.88 -1.198l-0.33 -1.126 -0.323 1.126 0.653 0z"/>
  <path id="_1_27" fill="white" fill-rule="nonzero" d="M77.068 43.47l0 -3.032 0.458 0 0 1.09c0.07,-0.102 0.147,-0.179 0.23,-0.23 0.084,-0.051 0.174,-0.076 0.27,-0.076 0.202,0 0.374,0.096 0.515,0.288 0.14,0.191 0.21,0.474 0.21,0.848 0,0.374 -0.072,0.66 -0.215,0.861 -0.143,0.201 -0.312,0.302 -0.506,0.302 -0.098,0 -0.196,-0.032 -0.292,-0.096 -0.096,-0.064 -0.177,-0.156 -0.244,-0.278l0 0.323 -0.426 0zm0.454 -1.145c0,0.189 0.018,0.333 0.052,0.433 0.034,0.1 0.083,0.176 0.146,0.228 0.064,0.051 0.131,0.077 0.2,0.077 0.101,0 0.186,-0.055 0.258,-0.165 0.071,-0.11 0.107,-0.283 0.107,-0.522 0,-0.25 -0.036,-0.431 -0.109,-0.543 -0.071,-0.111 -0.163,-0.167 -0.273,-0.167 -0.106,0 -0.196,0.054 -0.27,0.162 -0.074,0.108 -0.111,0.274 -0.111,0.497z"/>
  <path id="_2_28" fill="white" fill-rule="nonzero" d="M78.962 42.844l0.458 -0.09c0.039,0.232 0.162,0.348 0.368,0.348 0.109,0 0.19,-0.022 0.245,-0.067 0.054,-0.044 0.081,-0.101 0.081,-0.173 0,-0.048 -0.013,-0.086 -0.037,-0.113 -0.026,-0.029 -0.075,-0.053 -0.149,-0.073 -0.375,-0.103 -0.613,-0.202 -0.715,-0.296 -0.127,-0.118 -0.19,-0.278 -0.19,-0.483 0,-0.204 0.062,-0.368 0.186,-0.491 0.125,-0.123 0.305,-0.184 0.542,-0.184 0.226,0 0.398,0.045 0.516,0.138 0.118,0.092 0.201,0.241 0.248,0.445l-0.43 0.103c-0.038,-0.178 -0.146,-0.267 -0.325,-0.267 -0.113,0 -0.193,0.017 -0.24,0.051 -0.048,0.034 -0.071,0.079 -0.071,0.133 0,0.049 0.021,0.09 0.064,0.122 0.042,0.033 0.178,0.083 0.405,0.148 0.255,0.074 0.428,0.163 0.519,0.27 0.09,0.106 0.135,0.248 0.135,0.424 0,0.212 -0.07,0.387 -0.209,0.525 -0.139,0.138 -0.331,0.207 -0.577,0.207 -0.222,0 -0.404,-0.058 -0.545,-0.173 -0.141,-0.115 -0.235,-0.283 -0.279,-0.504z"/>
  <path id="_3_29" fill="white" fill-rule="nonzero" d="M81.76 41.272l0 0.462 -0.312 0 0 0.887c0,0.193 0.005,0.303 0.014,0.334 0.018,0.055 0.056,0.083 0.113,0.083 0.042,0 0.103,-0.018 0.182,-0.056l0.04 0.452c-0.106,0.058 -0.225,0.087 -0.359,0.087 -0.116,0 -0.21,-0.029 -0.28,-0.087 -0.07,-0.059 -0.117,-0.142 -0.141,-0.251 -0.018,-0.08 -0.027,-0.243 -0.027,-0.489l0 -0.96 -0.211 0 0 -0.462 0.211 0 0 -0.436 0.458 -0.338 0 0.774 0.312 0z"/>
  <path id="_4_30" fill="white" fill-rule="nonzero" d="M82.515 43.47l-0.459 0 0 -2.198 0.426 0 0 0.312c0.073,-0.146 0.138,-0.242 0.196,-0.29 0.057,-0.048 0.123,-0.072 0.198,-0.072 0.105,0 0.204,0.036 0.3,0.109l-0.143 0.507c-0.076,-0.064 -0.147,-0.096 -0.214,-0.096 -0.064,0 -0.12,0.025 -0.169,0.074 -0.047,0.049 -0.083,0.137 -0.104,0.266 -0.021,0.128 -0.031,0.365 -0.031,0.708l0 0.68z"/>
  <path id="_5_31" fill="white" fill-rule="nonzero" d="M83.714 41.941l-0.413 -0.089c0.05,-0.224 0.132,-0.385 0.248,-0.483 0.115,-0.098 0.28,-0.147 0.497,-0.147 0.192,0 0.339,0.028 0.44,0.084 0.102,0.057 0.174,0.134 0.218,0.231 0.043,0.097 0.065,0.275 0.065,0.531l-0.004 0.679c0,0.191 0.007,0.333 0.021,0.426 0.015,0.093 0.041,0.192 0.08,0.297l-0.45 0 -0.059 -0.24c-0.078,0.097 -0.162,0.169 -0.251,0.218 -0.089,0.049 -0.184,0.073 -0.285,0.073 -0.167,0 -0.305,-0.06 -0.412,-0.177 -0.108,-0.119 -0.161,-0.276 -0.161,-0.472 0,-0.125 0.022,-0.233 0.066,-0.326 0.044,-0.092 0.105,-0.166 0.184,-0.221 0.08,-0.055 0.207,-0.105 0.382,-0.147 0.212,-0.052 0.36,-0.099 0.443,-0.143 0,-0.122 -0.008,-0.202 -0.025,-0.24 -0.016,-0.037 -0.047,-0.068 -0.091,-0.093 -0.044,-0.024 -0.106,-0.036 -0.186,-0.036 -0.082,0 -0.146,0.019 -0.193,0.058 -0.047,0.039 -0.085,0.111 -0.114,0.217zm0.609 0.47c-0.058,0.025 -0.15,0.055 -0.273,0.088 -0.142,0.039 -0.234,0.082 -0.278,0.128 -0.044,0.048 -0.066,0.109 -0.066,0.184 0,0.084 0.025,0.155 0.073,0.213 0.048,0.057 0.109,0.086 0.182,0.086 0.065,0 0.129,-0.023 0.193,-0.07 0.063,-0.046 0.107,-0.101 0.132,-0.165 0.025,-0.064 0.037,-0.179 0.037,-0.347l0 -0.117z"/>
  <path id="_6_32" fill="white" fill-rule="nonzero" d="M86.724 41.924l-0.45 0.102c-0.034,-0.231 -0.138,-0.347 -0.313,-0.347 -0.113,0 -0.205,0.049 -0.273,0.149 -0.069,0.099 -0.104,0.267 -0.104,0.504 0,0.261 0.035,0.445 0.104,0.553 0.068,0.108 0.16,0.161 0.275,0.161 0.085,0 0.156,-0.031 0.212,-0.092 0.055,-0.061 0.095,-0.171 0.119,-0.327l0.45 0.098c-0.093,0.53 -0.358,0.796 -0.798,0.796 -0.28,0 -0.488,-0.113 -0.624,-0.336 -0.136,-0.224 -0.204,-0.493 -0.204,-0.808 0,-0.376 0.077,-0.664 0.231,-0.86 0.154,-0.197 0.355,-0.295 0.606,-0.295 0.202,0 0.367,0.056 0.494,0.168 0.127,0.112 0.219,0.29 0.275,0.534z"/>
  <path id="_7_33" fill="white" fill-rule="nonzero" d="M88.573 41.924l-0.45 0.102c-0.033,-0.231 -0.137,-0.347 -0.313,-0.347 -0.113,0 -0.204,0.049 -0.273,0.149 -0.069,0.099 -0.104,0.267 -0.104,0.504 0,0.261 0.035,0.445 0.104,0.553 0.068,0.108 0.16,0.161 0.275,0.161 0.086,0 0.157,-0.031 0.212,-0.092 0.056,-0.061 0.096,-0.171 0.119,-0.327l0.45 0.098c-0.092,0.53 -0.358,0.796 -0.797,0.796 -0.281,0 -0.489,-0.113 -0.625,-0.336 -0.136,-0.224 -0.204,-0.493 -0.204,-0.808 0,-0.376 0.077,-0.664 0.231,-0.86 0.154,-0.197 0.356,-0.295 0.606,-0.295 0.202,0 0.367,0.056 0.495,0.168 0.127,0.112 0.219,0.29 0.274,0.534z"/>
  <path id="_8_34" fill="white" fill-rule="nonzero" d="M88.918 40.976l0 -0.538 0.458 0 0 0.538 -0.458 0zm0 2.494l0 -2.198 0.458 0 0 2.198 -0.458 0z"/>
  <path id="_9_35" fill="white" fill-rule="nonzero" d="M89.733 42.34c0,-0.215 0.041,-0.411 0.123,-0.588 0.082,-0.177 0.189,-0.309 0.321,-0.398 0.132,-0.088 0.28,-0.132 0.446,-0.132 0.277,0 0.494,0.113 0.653,0.34 0.158,0.228 0.238,0.493 0.238,0.796 0,0.227 -0.042,0.432 -0.124,0.614 -0.083,0.182 -0.191,0.319 -0.325,0.411 -0.134,0.092 -0.281,0.138 -0.44,0.138 -0.256,0 -0.469,-0.103 -0.638,-0.307 -0.169,-0.204 -0.254,-0.496 -0.254,-0.874zm0.467 0.031c0,0.222 0.041,0.39 0.125,0.505 0.083,0.113 0.184,0.17 0.302,0.17 0.116,0 0.215,-0.057 0.297,-0.172 0.082,-0.114 0.123,-0.283 0.123,-0.507 0,-0.218 -0.042,-0.385 -0.125,-0.499 -0.084,-0.115 -0.184,-0.172 -0.301,-0.172 -0.115,0 -0.214,0.057 -0.297,0.172 -0.083,0.114 -0.124,0.282 -0.124,0.503zm0.19 -1.365l0.225 -0.618 0.513 0 -0.448 0.618 -0.29 0z"/>
  <path id="_10_36" fill="white" fill-rule="nonzero" d="M93.44 43.47l-0.458 0 0 -1.123c0,-0.224 -0.009,-0.375 -0.026,-0.449 -0.017,-0.074 -0.049,-0.132 -0.096,-0.172 -0.047,-0.04 -0.1,-0.06 -0.159,-0.06 -0.077,0 -0.146,0.026 -0.208,0.078 -0.062,0.051 -0.105,0.123 -0.13,0.214 -0.025,0.091 -0.038,0.263 -0.038,0.515l0 0.997 -0.459 0 0 -2.198 0.426 0 0 0.321c0.075,-0.123 0.16,-0.216 0.254,-0.278 0.095,-0.062 0.199,-0.093 0.314,-0.093 0.133,0 0.246,0.036 0.337,0.108 0.092,0.073 0.156,0.166 0.19,0.28 0.035,0.113 0.053,0.278 0.053,0.494l0 1.366z"/>
  <path fill="white" fill-rule="nonzero" d="M41.771 55.421l0 -6.171 1.731 0c0.645,0 1.068,0.03 1.266,0.089 0.317,0.094 0.577,0.298 0.783,0.61 0.206,0.311 0.309,0.713 0.309,1.204 0,0.445 -0.089,0.82 -0.266,1.122 -0.178,0.302 -0.4,0.513 -0.667,0.635 -0.266,0.122 -0.725,0.184 -1.377,0.184l-0.707 0 0 2.327 -1.072 0zm1.072 -5.128l0 1.758 0.598 0c0.4,0 0.674,-0.027 0.818,-0.081 0.144,-0.053 0.262,-0.149 0.355,-0.288 0.092,-0.141 0.138,-0.312 0.138,-0.515 0,-0.205 -0.047,-0.379 -0.143,-0.52 -0.095,-0.14 -0.213,-0.235 -0.353,-0.283 -0.139,-0.047 -0.434,-0.071 -0.887,-0.071l-0.526 0z"/>
  <path id="_1_37" fill="white" fill-rule="nonzero" d="M46.522 52.373c0,-0.734 0.115,-1.339 0.344,-1.815 0.229,-0.475 0.529,-0.83 0.898,-1.063 0.37,-0.232 0.818,-0.349 1.344,-0.349 0.763,0 1.384,0.276 1.864,0.829 0.48,0.553 0.721,1.339 0.721,2.36 0,1.032 -0.254,1.839 -0.763,2.419 -0.446,0.513 -1.053,0.77 -1.818,0.77 -0.772,0 -1.381,-0.254 -1.826,-0.761 -0.509,-0.58 -0.764,-1.378 -0.764,-2.39zm1.109 -0.042c0,0.708 0.142,1.24 0.426,1.593 0.284,0.355 0.637,0.532 1.057,0.532 0.424,0 0.775,-0.176 1.052,-0.528 0.279,-0.35 0.418,-0.89 0.418,-1.619 0,-0.712 -0.134,-1.241 -0.406,-1.581 -0.271,-0.342 -0.625,-0.513 -1.064,-0.513 -0.438,0 -0.794,0.172 -1.07,0.516 -0.275,0.344 -0.413,0.877 -0.413,1.6z"/>
  <path id="_2_38" fill="white" fill-rule="nonzero" d="M52.322 52.373c0,-0.734 0.115,-1.339 0.344,-1.815 0.228,-0.475 0.528,-0.83 0.898,-1.063 0.369,-0.232 0.818,-0.349 1.343,-0.349 0.764,0 1.385,0.276 1.865,0.829 0.48,0.553 0.721,1.339 0.721,2.36 0,1.032 -0.255,1.839 -0.764,2.419 -0.445,0.513 -1.052,0.77 -1.817,0.77 -0.773,0 -1.382,-0.254 -1.827,-0.761 -0.509,-0.58 -0.763,-1.378 -0.763,-2.39zm1.108 -0.042c0,0.708 0.143,1.24 0.426,1.593 0.285,0.355 0.638,0.532 1.057,0.532 0.424,0 0.776,-0.176 1.053,-0.528 0.279,-0.35 0.418,-0.89 0.418,-1.619 0,-0.712 -0.135,-1.241 -0.406,-1.581 -0.271,-0.342 -0.625,-0.513 -1.065,-0.513 -0.437,0 -0.793,0.172 -1.069,0.516 -0.276,0.344 -0.414,0.877 -0.414,1.6z"/>
 </g>
</svg>
